<svg xmlns="http://www.w3.org/2000/svg" viewBox="0 0 800 600">
  <!-- April: Aprilwetter - Regen und Regenbogen / Dorfszene -->
  <defs>
    <linearGradient id="aprilSky" x1="0%" y1="0%" x2="0%" y2="100%">
      <stop offset="0%" style="stop-color:#94a3b8;stop-opacity:1" />
      <stop offset="50%" style="stop-color:#cbd5e1;stop-opacity:1" />
      <stop offset="100%" style="stop-color:#e2e8f0;stop-opacity:1" />
    </linearGradient>
  </defs>

  <!-- Himmel (grau-weiß) -->
  <rect width="800" height="600" fill="url(#aprilSky)"/>

  <!-- Sonne oben links mit Sonnenstrahlen -->
  <g id="sun">
    <!-- Sonnenstrahlen -->
    <line x1="100" y1="30" x2="100" y2="10" stroke="#fbbf24" stroke-width="4" stroke-linecap="round"/>
    <line x1="135" y1="45" x2="150" y2="30" stroke="#fbbf24" stroke-width="4" stroke-linecap="round"/>
    <line x1="150" y1="80" x2="170" y2="80" stroke="#fbbf24" stroke-width="4" stroke-linecap="round"/>
    <line x1="135" y1="115" x2="150" y2="130" stroke="#fbbf24" stroke-width="4" stroke-linecap="round"/>
    <line x1="100" y1="130" x2="100" y2="150" stroke="#fbbf24" stroke-width="4" stroke-linecap="round"/>
    <line x1="65" y1="115" x2="50" y2="130" stroke="#fbbf24" stroke-width="4" stroke-linecap="round"/>
    <line x1="50" y1="80" x2="30" y2="80" stroke="#fbbf24" stroke-width="4" stroke-linecap="round"/>
    <line x1="65" y1="45" x2="50" y2="30" stroke="#fbbf24" stroke-width="4" stroke-linecap="round"/>

    <!-- Sonnenkern -->
    <circle cx="100" cy="80" r="35" fill="#fef08a"/>
    <circle cx="100" cy="80" r="28" fill="#fde047"/>
  </g>

  <!-- Hügel im Hintergrund -->
  <ellipse cx="300" cy="420" rx="280" ry="70" fill="#86efac" opacity="0.7"/>
  <ellipse cx="600" cy="440" rx="320" ry="80" fill="#4ade80" opacity="0.7"/>

  <!-- Wiese -->
  <rect y="430" width="800" height="170" fill="#6ee7b7"/>

  <!-- Bauernhof in der Mitte -->
  <rect x="320" y="340" width="160" height="130" fill="#fed7aa"/>

  <!-- Fachwerk -->
  <line x1="340" y1="340" x2="340" y2="470" stroke="#92400e" stroke-width="6"/>
  <line x1="400" y1="340" x2="400" y2="470" stroke="#92400e" stroke-width="6"/>
  <line x1="460" y1="340" x2="460" y2="470" stroke="#92400e" stroke-width="6"/>
  <line x1="320" y1="385" x2="480" y2="385" stroke="#92400e" stroke-width="6"/>
  <line x1="340" y1="385" x2="400" y2="340" stroke="#92400e" stroke-width="5"/>
  <line x1="400" y1="385" x2="340" y2="340" stroke="#92400e" stroke-width="5"/>
  <line x1="400" y1="385" x2="460" y2="340" stroke="#92400e" stroke-width="5"/>
  <line x1="460" y1="385" x2="400" y2="340" stroke="#92400e" stroke-width="5"/>

  <!-- Dach -->
  <path d="M 305 340 L 400 275 L 495 340 Z" fill="#7c2d12"/>
  <path d="M 310 340 L 400 280 L 490 340 Z" fill="#92400e"/>

  <!-- Dachziegel-Details -->
  <line x1="310" y1="340" x2="400" y2="285" stroke="#78350f" stroke-width="2" opacity="0.4"/>
  <line x1="320" y1="335" x2="400" y2="290" stroke="#78350f" stroke-width="2" opacity="0.4"/>
  <line x1="490" y1="340" x2="400" y2="285" stroke="#78350f" stroke-width="2" opacity="0.4"/>
  <line x1="480" y1="335" x2="400" y2="290" stroke="#78350f" stroke-width="2" opacity="0.4"/>

  <!-- Schornstein -->
  <rect x="430" y="295" width="22" height="45" fill="#7c2d12"/>
  <rect x="427" y="290" width="28" height="8" fill="#78350f"/>

  <!-- Keine Rauch (Regen) stattdessen Regentropfen vom Dach -->

  <!-- Fenster -->
  <rect x="345" y="360" width="38" height="45" fill="#bae6fd"/>
  <line x1="364" y1="360" x2="364" y2="405" stroke="#475569" stroke-width="2.5"/>
  <line x1="345" y1="382.5" x2="383" y2="382.5" stroke="#475569" stroke-width="2.5"/>

  <rect x="417" y="360" width="38" height="45" fill="#bae6fd"/>
  <line x1="436" y1="360" x2="436" y2="405" stroke="#475569" stroke-width="2.5"/>
  <line x1="417" y1="382.5" x2="455" y2="382.5" stroke="#475569" stroke-width="2.5"/>

  <!-- Tür -->
  <rect x="360" y="415" width="38" height="55" fill="#b45309"/>
  <rect x="361" y="416" width="36" height="53" fill="#d97706"/>
  <line x1="379" y1="415" x2="379" y2="470" stroke="#92400e" stroke-width="2"/>
  <circle cx="389" cy="442" r="3" fill="#fbbf24"/>
  <!-- Türgriff -->
  <line x1="389" y1="442" x2="394" y2="442" stroke="#fbbf24" stroke-width="2"/>

  <!-- Scheune links -->
  <rect x="80" y="370" width="110" height="100" fill="#dc2626"/>
  <path d="M 70 370 L 135 320 L 200 370 Z" fill="#7c2d12"/>

  <!-- Scheunentür -->
  <rect x="100" y="410" width="35" height="60" fill="#78350f"/>
  <rect x="145" y="410" width="35" height="60" fill="#78350f"/>
  <line x1="117.5" y1="410" x2="117.5" y2="470" stroke="#1c0a00" stroke-width="2"/>
  <line x1="162.5" y1="410" x2="162.5" y2="470" stroke="#1c0a00" stroke-width="2"/>

  <!-- Fenster Scheune -->
  <circle cx="135" cy="350" r="12" fill="#fef3c7" opacity="0.7"/>

  <!-- Kleines Haus rechts -->
  <rect x="620" y="385" width="95" height="85" fill="#fef3c7"/>
  <path d="M 610 385 L 667.5 340 L 725 385 Z" fill="#ef4444"/>

  <!-- Fenster kleines Haus -->
  <rect x="640" y="405" width="25" height="28" fill="#93c5fd"/>
  <line x1="652.5" y1="405" x2="652.5" y2="433" stroke="#475569" stroke-width="2"/>
  <line x1="640" y1="419" x2="665" y2="419" stroke="#475569" stroke-width="2"/>

  <rect x="680" y="405" width="25" height="28" fill="#93c5fd"/>
  <line x1="692.5" y1="405" x2="692.5" y2="433" stroke="#475569" stroke-width="2"/>
  <line x1="680" y1="419" x2="705" y2="419" stroke="#475569" stroke-width="2"/>

  <!-- Tür kleines Haus -->
  <rect x="650" y="445" width="28" height="25" fill="#a16207"/>
  <circle cx="673" cy="458" r="2" fill="#fbbf24"/>

  <!-- Zaun im Vordergrund -->
  <g>
    <!-- Zaun-Pfosten -->
    <rect x="30" y="480" width="8" height="65" fill="#78350f"/>
    <rect x="28" y="478" width="12" height="8" fill="#92400e"/>

    <rect x="80" y="485" width="8" height="60" fill="#78350f"/>
    <rect x="78" y="483" width="12" height="8" fill="#92400e"/>

    <rect x="130" y="482" width="8" height="63" fill="#78350f"/>
    <rect x="128" y="480" width="12" height="8" fill="#92400e"/>

    <rect x="580" y="490" width="8" height="58" fill="#78350f"/>
    <rect x="578" y="488" width="12" height="8" fill="#92400e"/>

    <rect x="630" y="487" width="8" height="61" fill="#78350f"/>
    <rect x="628" y="485" width="12" height="8" fill="#92400e"/>

    <rect x="680" y="492" width="8" height="56" fill="#78350f"/>
    <rect x="678" y="490" width="12" height="8" fill="#92400e"/>

    <rect x="730" y="489" width="8" height="59" fill="#78350f"/>
    <rect x="728" y="487" width="12" height="8" fill="#92400e"/>

    <!-- Horizontale Latten -->
    <rect x="30" y="500" width="110" height="6" fill="#92400e"/>
    <rect x="30" y="520" width="110" height="6" fill="#92400e"/>

    <rect x="580" y="505" width="160" height="6" fill="#92400e"/>
    <rect x="580" y="525" width="160" height="6" fill="#92400e"/>
  </g>

  <!-- Regenbogen (großer Bogen über alles) -->
  <path d="M 50 220 Q 400 40 750 220" stroke="#ef4444" stroke-width="18" fill="none" opacity="0.75"/>
  <path d="M 50 232 Q 400 52 750 232" stroke="#f97316" stroke-width="18" fill="none" opacity="0.75"/>
  <path d="M 50 244 Q 400 64 750 244" stroke="#fbbf24" stroke-width="18" fill="none" opacity="0.75"/>
  <path d="M 50 256 Q 400 76 750 256" stroke="#84cc16" stroke-width="18" fill="none" opacity="0.75"/>
  <path d="M 50 268 Q 400 88 750 268" stroke="#3b82f6" stroke-width="18" fill="none" opacity="0.75"/>
  <path d="M 50 280 Q 400 100 750 280" stroke="#6366f1" stroke-width="18" fill="none" opacity="0.75"/>
  <path d="M 50 292 Q 400 112 750 292" stroke="#a855f7" stroke-width="18" fill="none" opacity="0.75"/>

  <!-- Regenwolken (groß und dunkel) -->
  <ellipse cx="150" cy="120" rx="75" ry="45" fill="#94a3b8" opacity="0.85"/>
  <ellipse cx="200" cy="125" rx="65" ry="40" fill="#94a3b8" opacity="0.85"/>
  <ellipse cx="110" cy="130" rx="60" ry="38" fill="#94a3b8" opacity="0.85"/>
  <ellipse cx="180" cy="110" rx="50" ry="32" fill="#cbd5e1" opacity="0.7"/>

  <ellipse cx="450" cy="100" rx="80" ry="48" fill="#94a3b8" opacity="0.9"/>
  <ellipse cx="510" cy="105" rx="70" ry="43" fill="#94a3b8" opacity="0.9"/>
  <ellipse cx="390" cy="110" rx="65" ry="40" fill="#94a3b8" opacity="0.9"/>
  <ellipse cx="470" cy="90" rx="55" ry="35" fill="#cbd5e1" opacity="0.75"/>

  <ellipse cx="680" cy="130" rx="70" ry="42" fill="#94a3b8" opacity="0.8"/>
  <ellipse cx="730" cy="135" rx="60" ry="38" fill="#94a3b8" opacity="0.8"/>
  <ellipse cx="640" cy="140" rx="55" ry="35" fill="#94a3b8" opacity="0.8"/>

  <!-- Regen (viele Tropfen) -->
  <g opacity="0.6">
    <!-- Von linker Wolke -->
    <ellipse cx="120" cy="170" rx="3" ry="10" fill="#3b82f6"/>
    <ellipse cx="140" cy="185" rx="3" ry="10" fill="#3b82f6"/>
    <ellipse cx="160" cy="175" rx="3" ry="10" fill="#3b82f6"/>
    <ellipse cx="180" cy="195" rx="3" ry="10" fill="#3b82f6"/>
    <ellipse cx="200" cy="180" rx="3" ry="10" fill="#3b82f6"/>
    <ellipse cx="130" cy="210" rx="3" ry="10" fill="#3b82f6"/>
    <ellipse cx="150" cy="220" rx="3" ry="10" fill="#3b82f6"/>
    <ellipse cx="170" cy="215" rx="3" ry="10" fill="#3b82f6"/>
    <ellipse cx="110" cy="200" rx="3" ry="10" fill="#3b82f6"/>
    <ellipse cx="190" cy="235" rx="3" ry="10" fill="#3b82f6"/>

    <ellipse cx="125" cy="250" rx="3" ry="10" fill="#60a5fa"/>
    <ellipse cx="145" cy="260" rx="3" ry="10" fill="#60a5fa"/>
    <ellipse cx="165" cy="255" rx="3" ry="10" fill="#60a5fa"/>
    <ellipse cx="185" cy="275" rx="3" ry="10" fill="#60a5fa"/>

    <!-- Von mittlerer Wolke -->
    <ellipse cx="410" cy="155" rx="3" ry="10" fill="#3b82f6"/>
    <ellipse cx="430" cy="165" rx="3" ry="10" fill="#3b82f6"/>
    <ellipse cx="450" cy="160" rx="3" ry="10" fill="#3b82f6"/>
    <ellipse cx="470" cy="175" rx="3" ry="10" fill="#3b82f6"/>
    <ellipse cx="490" cy="170" rx="3" ry="10" fill="#3b82f6"/>
    <ellipse cx="510" cy="185" rx="3" ry="10" fill="#3b82f6"/>
    <ellipse cx="420" cy="195" rx="3" ry="10" fill="#3b82f6"/>
    <ellipse cx="440" cy="205" rx="3" ry="10" fill="#3b82f6"/>
    <ellipse cx="460" cy="200" rx="3" ry="10" fill="#3b82f6"/>
    <ellipse cx="480" cy="215" rx="3" ry="10" fill="#3b82f6"/>
    <ellipse cx="500" cy="225" rx="3" ry="10" fill="#3b82f6"/>

    <ellipse cx="415" cy="235" rx="3" ry="10" fill="#60a5fa"/>
    <ellipse cx="435" cy="245" rx="3" ry="10" fill="#60a5fa"/>
    <ellipse cx="455" cy="240" rx="3" ry="10" fill="#60a5fa"/>
    <ellipse cx="475" cy="255" rx="3" ry="10" fill="#60a5fa"/>
    <ellipse cx="495" cy="265" rx="3" ry="10" fill="#60a5fa"/>

    <!-- Von rechter Wolke -->
    <ellipse cx="650" cy="185" rx="3" ry="10" fill="#3b82f6"/>
    <ellipse cx="670" cy="195" rx="3" ry="10" fill="#3b82f6"/>
    <ellipse cx="690" cy="190" rx="3" ry="10" fill="#3b82f6"/>
    <ellipse cx="710" cy="205" rx="3" ry="10" fill="#3b82f6"/>
    <ellipse cx="730" cy="200" rx="3" ry="10" fill="#3b82f6"/>
    <ellipse cx="660" cy="220" rx="3" ry="10" fill="#3b82f6"/>
    <ellipse cx="680" cy="230" rx="3" ry="10" fill="#3b82f6"/>
    <ellipse cx="700" cy="225" rx="3" ry="10" fill="#3b82f6"/>
    <ellipse cx="720" cy="240" rx="3" ry="10" fill="#3b82f6"/>

    <ellipse cx="655" cy="255" rx="3" ry="10" fill="#60a5fa"/>
    <ellipse cx="675" cy="265" rx="3" ry="10" fill="#60a5fa"/>
    <ellipse cx="695" cy="260" rx="3" ry="10" fill="#60a5fa"/>
  </g>

  <!-- Pfützen auf dem Boden -->
  <ellipse cx="250" cy="550" rx="45" ry="12" fill="#3b82f6" opacity="0.4"/>
  <ellipse cx="250" cy="550" rx="38" ry="9" fill="#60a5fa" opacity="0.5"/>

  <ellipse cx="520" cy="560" rx="55" ry="14" fill="#3b82f6" opacity="0.4"/>
  <ellipse cx="520" cy="560" rx="45" ry="10" fill="#60a5fa" opacity="0.5"/>

  <ellipse cx="380" cy="545" rx="40" ry="11" fill="#3b82f6" opacity="0.4"/>
  <ellipse cx="380" cy="545" rx="32" ry="8" fill="#60a5fa" opacity="0.5"/>

  <!-- Blumen trotz Regen -->
  <!-- Gänseblümchen -->
  <circle cx="280" cy="480" r="8" fill="#fef3c7"/>
  <circle cx="274" cy="476" r="3" fill="#ffffff"/>
  <circle cx="286" cy="476" r="3" fill="#ffffff"/>
  <circle cx="274" cy="484" r="3" fill="#ffffff"/>
  <circle cx="286" cy="484" r="3" fill="#ffffff"/>
  <rect x="278" y="485" width="4" height="45" fill="#22c55e"/>

  <circle cx="560" cy="490" r="7" fill="#fef3c7"/>
  <circle cx="555" cy="487" r="2.5" fill="#ffffff"/>
  <circle cx="565" cy="487" r="2.5" fill="#ffffff"/>
  <circle cx="555" cy="493" r="2.5" fill="#ffffff"/>
  <circle cx="565" cy="493" r="2.5" fill="#ffffff"/>
  <rect x="558" y="494" width="4" height="40" fill="#22c55e"/>

  <!-- Vögel fliegen trotz Regen -->
  <path d="M 550 230 Q 565 225 580 230" stroke="#1e293b" stroke-width="2.5" fill="none"/>
  <path d="M 590 245 Q 605 240 620 245" stroke="#1e293b" stroke-width="2.5" fill="none"/>

  <!-- Emoji-Dekoration: Aprilwetter -->
  <!-- Regenbogen 🌈 -->
  <text x="360" y="330" font-size="32" opacity="0.5">🌈</text>

  <!-- Regentropfen 💧 -->
  <text x="105" y="190" font-size="20" opacity="0.75">💧</text>
  <text x="175" y="240" font-size="18" opacity="0.7">💧</text>
  <text x="425" y="220" font-size="20" opacity="0.75">💧</text>
  <text x="495" y="270" font-size="18" opacity="0.7">💧</text>
  <text x="685" y="235" font-size="20" opacity="0.75">💧</text>

  <!-- Blumen 🌼 (trotz Regen) -->
  <text x="255" y="495" font-size="22" opacity="0.75">🌼</text>
  <text x="540" y="510" font-size="20" opacity="0.7">🌼</text>

  <!-- Vögel 🐦 -->
  <text x="540" y="240" font-size="16" opacity="0.5">🐦</text>
</svg>
