<svg xmlns="http://www.w3.org/2000/svg" viewBox="0 0 800 600">
  <!-- August: Erntezeit / Kornfeld mit Windmühle -->
  <defs>
    <linearGradient id="augustSky" x1="0%" y1="0%" x2="0%" y2="100%">
      <stop offset="0%" style="stop-color:#fed7aa;stop-opacity:1" />
      <stop offset="50%" style="stop-color:#fdba74;stop-opacity:1" />
      <stop offset="100%" style="stop-color:#fb923c;stop-opacity:1" />
    </linearGradient>
    <linearGradient id="wheatField" x1="0%" y1="0%" x2="0%" y2="100%">
      <stop offset="0%" style="stop-color:#fde047;stop-opacity:1" />
      <stop offset="100%" style="stop-color:#f59e0b;stop-opacity:1" />
    </linearGradient>
  </defs>

  <!-- Himmel (goldener Spätsommer) -->
  <rect width="800" height="600" fill="url(#augustSky)"/>

  <!-- Sonne am späten Nachmittag -->
  <circle cx="100" cy="140" r="80" fill="#fde047" opacity="0.4"/>
  <circle cx="100" cy="140" r="65" fill="#fde047" opacity="0.7"/>
  <circle cx="100" cy="140" r="50" fill="#fef08a"/>

  <!-- Sonnenstrahlen -->
  <line x1="100" y1="50" x2="100" y2="25" stroke="#fbbf24" stroke-width="6" opacity="0.8"/>
  <line x1="190" y1="140" x2="215" y2="140" stroke="#fbbf24" stroke-width="6" opacity="0.8"/>
  <line x1="100" y1="230" x2="100" y2="255" stroke="#fbbf24" stroke-width="6" opacity="0.8"/>
  <line x1="10" y1="140" x2="-15" y2="140" stroke="#fbbf24" stroke-width="6" opacity="0.8"/>
  <line x1="163" y1="77" x2="183" y2="57" stroke="#fbbf24" stroke-width="5" opacity="0.8"/>
  <line x1="163" y1="203" x2="183" y2="223" stroke="#fbbf24" stroke-width="5" opacity="0.8"/>
  <line x1="37" y1="203" x2="17" y2="223" stroke="#fbbf24" stroke-width="5" opacity="0.8"/>
  <line x1="37" y1="77" x2="17" y2="57" stroke="#fbbf24" stroke-width="5" opacity="0.8"/>

  <!-- Hügel -->
  <ellipse cx="300" cy="380" rx="320" ry="75" fill="#d97706" opacity="0.6"/>
  <ellipse cx="600" cy="400" rx="350" ry="85" fill="#b45309" opacity="0.6"/>

  <!-- Kornfeld (golden) -->
  <rect y="380" width="800" height="220" fill="url(#wheatField)"/>
  <rect y="410" width="800" height="190" fill="#f59e0b" opacity="0.4"/>

  <!-- Windmühle (rechts) -->
  <!-- Basis -->
  <path d="M 650 350 L 680 450 L 720 450 L 750 350 Z" fill="#fef3c7"/>
  <path d="M 652 350 L 682 450 L 718 450 L 748 350 Z" fill="#fed7aa"/>

  <!-- Details der Mühle -->
  <rect x="670" y="380" width="30" height="35" fill="#7c2d12" opacity="0.3"/>
  <rect x="680" y="420" width="20" height="30" fill="#92400e"/>

  <!-- Dach/Spitze -->
  <path d="M 645 350 L 700 305 L 755 350 Z" fill="#7c2d12"/>

  <!-- Windmühlenflügel (in Bewegung) -->
  <g transform="translate(700, 330)">
    <!-- Flügel 1 (oben rechts) -->
    <path d="M 0 0 L 65 -75 L 55 -85 L -5 -10 Z" fill="#f8fafc"/>
    <path d="M 1 0 L 63 -75 L 56 -83 L -4 -10 Z" fill="#e2e8f0"/>
    <rect x="18" y="-48" width="12" height="45" fill="#94a3b8" opacity="0.3"/>

    <!-- Flügel 2 (unten rechts) -->
    <path d="M 0 0 L 80 55 L 75 70 L -5 10 Z" fill="#f8fafc"/>
    <path d="M 1 0 L 78 55 L 76 68 L -4 10 Z" fill="#e2e8f0"/>
    <rect x="28" y="18" width="12" height="45" fill="#94a3b8" opacity="0.3"/>

    <!-- Flügel 3 (unten links) -->
    <path d="M 0 0 L -65 75 L -55 85 L 5 10 Z" fill="#f8fafc"/>
    <path d="M -1 0 L -63 75 L -56 83 L 4 10 Z" fill="#cbd5e1"/>
    <rect x="-30" y="28" width="12" height="45" fill="#94a3b8" opacity="0.3"/>

    <!-- Flügel 4 (oben links) -->
    <path d="M 0 0 L -80 -55 L -75 -70 L 5 -10 Z" fill="#f8fafc"/>
    <path d="M -1 0 L -78 -55 L -76 -68 L 4 -10 Z" fill="#cbd5e1"/>
    <rect x="-40" y="-63" width="12" height="45" fill="#94a3b8" opacity="0.3"/>

    <!-- Zentrum -->
    <circle cx="0" cy="0" r="12" fill="#78350f"/>
    <circle cx="0" cy="0" r="8" fill="#92400e"/>
  </g>

  <!-- Detaillierte Kornähren (Vordergrund) -->
  <g>
    <!-- Ähre 1 -->
    <rect x="80" y="430" width="5" height="170" fill="#d97706"/>
    <ellipse cx="82.5" cy="423" rx="10" ry="22" fill="#fde047"/>
    <ellipse cx="79" cy="420" rx="6" ry="12" fill="#fbbf24" opacity="0.7"/>
    <ellipse cx="86" cy="425" rx="5" ry="10" fill="#f59e0b" opacity="0.6"/>
    <line x1="82.5" y1="430" x2="82.5" y2="443" stroke="#f59e0b" stroke-width="1.5"/>
    <line x1="82.5" y1="431" x2="77" y2="436" stroke="#f59e0b" stroke-width="1"/>
    <line x1="82.5" y1="433" x2="88" y2="438" stroke="#f59e0b" stroke-width="1"/>
    <line x1="82.5" y1="435" x2="78" y2="440" stroke="#f59e0b" stroke-width="1"/>
    <line x1="82.5" y1="437" x2="87" y2="442" stroke="#f59e0b" stroke-width="1"/>

    <!-- Ähre 2 -->
    <rect x="140" y="445" width="5" height="155" fill="#d97706"/>
    <ellipse cx="142.5" cy="438" rx="11" ry="24" fill="#fde047"/>
    <ellipse cx="139" cy="435" rx="7" ry="13" fill="#fbbf24" opacity="0.7"/>
    <ellipse cx="146" cy="440" rx="6" ry="11" fill="#f59e0b" opacity="0.6"/>
    <line x1="142.5" y1="445" x2="142.5" y2="460" stroke="#f59e0b" stroke-width="1.5"/>
    <line x1="142.5" y1="446" x2="137" y2="451" stroke="#f59e0b" stroke-width="1"/>
    <line x1="142.5" y1="448" x2="148" y2="453" stroke="#f59e0b" stroke-width="1"/>
    <line x1="142.5" y1="450" x2="138" y2="455" stroke="#f59e0b" stroke-width="1"/>
    <line x1="142.5" y1="452" x2="147" y2="457" stroke="#f59e0b" stroke-width="1"/>

    <!-- Ähre 3 -->
    <rect x="210" y="438" width="5" height="162" fill="#d97706"/>
    <ellipse cx="212.5" cy="431" rx="10" ry="23" fill="#fde047"/>
    <ellipse cx="209" cy="428" rx="6" ry="12" fill="#fbbf24" opacity="0.7"/>
    <line x1="212.5" y1="438" x2="212.5" y2="452" stroke="#f59e0b" stroke-width="1.5"/>
    <line x1="212.5" y1="439" x2="207" y2="444" stroke="#f59e0b" stroke-width="1"/>
    <line x1="212.5" y1="441" x2="218" y2="446" stroke="#f59e0b" stroke-width="1"/>

    <!-- Ähre 4 -->
    <rect x="290" y="450" width="5" height="150" fill="#d97706"/>
    <ellipse cx="292.5" cy="443" rx="11" ry="24" fill="#fde047"/>
    <ellipse cx="289" cy="440" rx="7" ry="13" fill="#fbbf24" opacity="0.7"/>
    <line x1="292.5" y1="450" x2="292.5" y2="465" stroke="#f59e0b" stroke-width="1.5"/>
    <line x1="292.5" y1="451" x2="287" y2="456" stroke="#f59e0b" stroke-width="1"/>
    <line x1="292.5" y1="453" x2="298" y2="458" stroke="#f59e0b" stroke-width="1"/>

    <!-- Ähre 5 -->
    <rect x="360" y="442" width="5" height="158" fill="#d97706"/>
    <ellipse cx="362.5" cy="435" rx="10" ry="23" fill="#fde047"/>
    <ellipse cx="359" cy="432" rx="6" ry="12" fill="#fbbf24" opacity="0.7"/>
    <line x1="362.5" y1="442" x2="362.5" y2="456" stroke="#f59e0b" stroke-width="1.5"/>
    <line x1="362.5" y1="443" x2="357" y2="448" stroke="#f59e0b" stroke-width="1"/>

    <!-- Ähre 6 -->
    <rect x="430" y="455" width="5" height="145" fill="#d97706"/>
    <ellipse cx="432.5" cy="448" rx="11" ry="24" fill="#fde047"/>
    <ellipse cx="429" cy="445" rx="7" ry="13" fill="#fbbf24" opacity="0.7"/>
    <line x1="432.5" y1="455" x2="432.5" y2="470" stroke="#f59e0b" stroke-width="1.5"/>

    <!-- Ähre 7 -->
    <rect x="500" y="448" width="5" height="152" fill="#d97706"/>
    <ellipse cx="502.5" cy="441" rx="10" ry="23" fill="#fde047"/>
    <ellipse cx="499" cy="438" rx="6" ry="12" fill="#fbbf24" opacity="0.7"/>
    <line x1="502.5" y1="448" x2="502.5" y2="462" stroke="#f59e0b" stroke-width="1.5"/>

    <!-- Ähre 8 -->
    <rect x="560" y="440" width="5" height="160" fill="#d97706"/>
    <ellipse cx="562.5" cy="433" rx="11" ry="24" fill="#fde047"/>
    <ellipse cx="559" cy="430" rx="7" ry="13" fill="#fbbf24" opacity="0.7"/>
    <line x1="562.5" y1="440" x2="562.5" y2="454" stroke="#f59e0b" stroke-width="1.5"/>
  </g>

  <!-- Mohnblumen zwischen dem Korn -->
  <g>
    <circle cx="250" cy="520" r="13" fill="#ef4444"/>
    <circle cx="245" cy="516" r="4.5" fill="#7c2d12" opacity="0.6"/>
    <rect x="248" y="528" width="4" height="55" fill="#84cc16"/>

    <circle cx="380" cy="530" r="12" fill="#dc2626"/>
    <circle cx="376" cy="526" r="4" fill="#7c2d12" opacity="0.6"/>
    <rect x="378" y="537" width="4" height="50" fill="#84cc16"/>

    <circle cx="480" cy="525" r="13" fill="#ef4444"/>
    <circle cx="475" cy="521" r="4.5" fill="#7c2d12" opacity="0.6"/>
    <rect x="478" y="533" width="4" height="53" fill="#84cc16"/>
  </g>

  <!-- Kornblumen -->
  <g>
    <circle cx="310" cy="535" r="8" fill="#3b82f6"/>
    <circle cx="307" cy="533" r="2.5" fill="#ffffff" opacity="0.5"/>
    <rect x="308" y="541" width="4" height="45" fill="#84cc16"/>

    <circle cx="420" cy="540" r="9" fill="#2563eb"/>
    <circle cx="416" cy="538" r="2.8" fill="#ffffff" opacity="0.5"/>
    <rect x="418" y="546" width="4" height="42" fill="#84cc16"/>
  </g>

  <!-- Erntewagen links -->
  <g>
    <!-- Wagenkasten -->
    <rect x="30" y="500" width="120" height="55" fill="#92400e"/>
    <rect x="32" y="502" width="116" height="51" fill="#b45309"/>
    <line x1="30" y1="515" x2="150" y2="515" stroke="#78350f" stroke-width="3"/>
    <line x1="30" y1="530" x2="150" y2="530" stroke="#78350f" stroke-width="3"/>
    <line x1="30" y1="545" x2="150" y2="545" stroke="#78350f" stroke-width="3"/>
    <line x1="65" y1="500" x2="65" y2="555" stroke="#78350f" stroke-width="3"/>
    <line x1="90" y1="500" x2="90" y2="555" stroke="#78350f" stroke-width="3"/>
    <line x1="115" y1="500" x2="115" y2="555" stroke="#78350f" stroke-width="3"/>

    <!-- Garben auf dem Wagen -->
    <rect x="45" y="475" width="15" height="25" fill="#fbbf24"/>
    <rect x="70" y="470" width="18" height="30" fill="#fde047"/>
    <rect x="95" y="473" width="16" height="27" fill="#fbbf24"/>
    <rect x="120" y="477" width="15" height="23" fill="#f59e0b"/>

    <!-- Räder -->
    <circle cx="55" cy="565" r="18" fill="#78350f"/>
    <circle cx="55" cy="565" r="14" fill="#92400e"/>
    <circle cx="55" cy="565" r="5" fill="#78350f"/>
    <line x1="55" y1="547" x2="55" y2="583" stroke="#78350f" stroke-width="2"/>
    <line x1="37" y1="565" x2="73" y2="565" stroke="#78350f" stroke-width="2"/>

    <circle cx="125" cy="565" r="18" fill="#78350f"/>
    <circle cx="125" cy="565" r="14" fill="#92400e"/>
    <circle cx="125" cy="565" r="5" fill="#78350f"/>
    <line x1="125" y1="547" x2="125" y2="583" stroke="#78350f" stroke-width="2"/>
    <line x1="107" y1="565" x2="143" y2="565" stroke="#78350f" stroke-width="2"/>
  </g>

  <!-- Vögel (kreisen über dem Feld) -->
  <path d="M 300 200 Q 315 195 330 200" stroke="#1e293b" stroke-width="2.5" fill="none"/>
  <path d="M 350 220 Q 365 215 380 220" stroke="#1e293b" stroke-width="2.5" fill="none"/>
  <path d="M 320 180 Q 335 175 350 180" stroke="#1e293b" stroke-width="2.5" fill="none"/>
  <path d="M 400 240 Q 415 235 430 240" stroke="#1e293b" stroke-width="2.5" fill="none"/>
  <path d="M 370 160 Q 385 155 400 160" stroke="#1e293b" stroke-width="2.5" fill="none"/>

  <!-- Schmetterlinge -->
  <g transform="translate(190, 480) rotate(10)">
    <ellipse cx="-8" cy="0" rx="10" ry="13" fill="#fbbf24" opacity="0.85"/>
    <ellipse cx="8" cy="0" rx="10" ry="13" fill="#fde047" opacity="0.85"/>
    <ellipse cx="-8" cy="0" rx="3" ry="5" fill="#dc2626" opacity="0.6"/>
    <ellipse cx="8" cy="0" rx="3" ry="5" fill="#dc2626" opacity="0.6"/>
    <line x1="-9" y1="-8" x2="9" y2="-8" stroke="#1e293b" stroke-width="1.8"/>
    <circle cx="0" cy="-8" r="2.5" fill="#374151"/>
    <line x1="-2.5" y1="-9" x2="-5" y2="-13" stroke="#1e293b" stroke-width="1.2"/>
    <line x1="2.5" y1="-9" x2="5" y2="-13" stroke="#1e293b" stroke-width="1.2"/>
  </g>

  <!-- Emoji-Dekoration: Erntezeit / Kornfeld -->
  <!-- Sonne ☀️ -->
  <text x="60" y="145" font-size="38" opacity="0.4">☀️</text>

  <!-- Getreide/Kornähren 🌾 -->
  <text x="55" y="455" font-size="26" opacity="0.85">🌾</text>
  <text x="120" y="470" font-size="24" opacity="0.8">🌾</text>
  <text x="190" y="465" font-size="26" opacity="0.85">🌾</text>
  <text x="270" y="480" font-size="24" opacity="0.8">🌾</text>
  <text x="340" y="472" font-size="26" opacity="0.85">🌾</text>
  <text x="410" y="485" font-size="24" opacity="0.8">🌾</text>
  <text x="480" y="478" font-size="26" opacity="0.85">🌾</text>
  <text x="540" y="470" font-size="24" opacity="0.8">🌾</text>

  <!-- Mohnblumen 🌺 -->
  <text x="225" y="540" font-size="22" opacity="0.75">🌺</text>
  <text x="355" y="550" font-size="20" opacity="0.7">🌺</text>
  <text x="455" y="545" font-size="22" opacity="0.75">🌺</text>

  <!-- Kornblumen 💙 (als kleine Akzente) -->
  <text x="285" y="555" font-size="18" opacity="0.7">🌸</text>
  <text x="395" y="560" font-size="16" opacity="0.65">🌸</text>

  <!-- Schmetterlinge 🦋 -->
  <text x="160" y="470" font-size="20" opacity="0.8">🦋</text>

  <!-- Vögel 🐦 -->
  <text x="290" y="210" font-size="16" opacity="0.5">🐦</text>
  <text x="340" y="230" font-size="14" opacity="0.5">🐦</text>
  <text x="390" y="250" font-size="14" opacity="0.5">🐦</text>

  <!-- Windmühle -->
  <text x="660" y="340" font-size="24" opacity="0.3">⚙️</text>
</svg>
