<svg xmlns="http://www.w3.org/2000/svg" viewBox="0 0 800 600" role="img" aria-label="Februar Dorfszene - Winterdorf mit Kirche">
  <defs>
    <linearGradient id="februarySky" x1="0%" y1="0%" x2="0%" y2="100%">
      <stop offset="0%" style="stop-color:#4a5f7f;stop-opacity:1" />
      <stop offset="50%" style="stop-color:#6a7f9f;stop-opacity:1" />
      <stop offset="100%" style="stop-color:#8a9fbf;stop-opacity:1" />
    </linearGradient>
  </defs>

  <!-- Himmel -->
  <rect width="800" height="600" fill="url(#februarySky)"/>

  <!-- Schneehügel im Hintergrund -->
  <ellipse cx="250" cy="430" rx="300" ry="115" fill="#e0e8f0"/>
  <ellipse cx="600" cy="450" rx="280" ry="95" fill="#d8e4f0"/>
  <ellipse cx="100" cy="440" rx="150" ry="80" fill="#dce8f0"/>

  <!-- Schneebedeckter Boden -->
  <rect x="0" y="420" width="800" height="180" fill="#f0f4f8"/>

  <!-- Schneeverwehungen -->
  <ellipse cx="180" cy="490" rx="90" ry="28" fill="#e8f4fc"/>
  <ellipse cx="450" cy="495" rx="110" ry="32" fill="#e8f4fc"/>
  <ellipse cx="680" cy="488" rx="95" ry="30" fill="#e8f4fc"/>

  <!-- Kirche mit Turm - Hauptgebäude -->
  <rect x="140" y="270" width="110" height="120" fill="#c8c0b0"/>
  <rect x="145" y="275" width="100" height="110" fill="#d8d0c0"/>
  <polygon points="195,210 120,270 270,270" fill="#8b7355"/>
  <polygon points="195,210 130,265 260,265" fill="#a08060"/>

  <!-- Schnee auf Kirchendach -->
  <path d="M 120,270 Q 160,255 195,250 Q 230,255 270,270" fill="#ffffff" opacity="0.95"/>

  <!-- Kirchturm -->
  <rect x="175" y="170" width="42" height="105" fill="#c8c0b0"/>
  <rect x="180" y="175" width="32" height="95" fill="#d8d0c0"/>
  <polygon points="196,140 165,170 227,170" fill="#8b7355"/>
  <polygon points="196,135 170,165 222,165" fill="#a08060"/>

  <!-- Schnee auf Turmspitze -->
  <path d="M 165,170 Q 180,163 196,160 Q 212,163 227,170" fill="#ffffff" opacity="0.95"/>

  <!-- Kreuz auf Kirchturm -->
  <rect x="193" y="118" width="6" height="22" fill="#6b4423"/>
  <rect x="185" y="126" width="22" height="6" fill="#6b4423"/>

  <!-- Turmfenster -->
  <rect x="187" y="190" width="10" height="15" fill="#4a5f7f"/>
  <rect x="199" y="190" width="10" height="15" fill="#4a5f7f"/>
  <rect x="187" y="220" width="10" height="15" fill="#4a5f7f"/>
  <rect x="199" y="220" width="10" height="15" fill="#4a5f7f"/>

  <!-- Kirchenfenster - große Bögen -->
  <path d="M 165 310 L 165 340 A 10 10 0 0 0 185 340 L 185 310 Z" fill="#4a5f7f"/>
  <path d="M 205 310 L 205 340 A 10 10 0 0 0 225 340 L 225 310 Z" fill="#4a5f7f"/>

  <!-- Rundbogenfenster über Portal -->
  <path d="M 195 360 m -15 20 a 15 15 0 0 1 30 0" fill="#4a5f7f"/>
  <line x1="195" y1="360" x2="195" y2="380" stroke="#8b7355" stroke-width="2"/>

  <!-- Kirchenportal -->
  <path d="M 180 355 L 180 390 L 210 390 L 210 355 A 15 25 0 0 0 180 355" fill="#6a4a30"/>
  <rect x="185" y="360" width="20" height="28" fill="#7a5a40"/>
  <circle cx="206" cy="375" r="2" fill="#c0a080"/>

  <!-- Türverzierungen -->
  <line x1="185" y1="368" x2="205" y2="368" stroke="#6a4a30" stroke-width="1"/>
  <line x1="185" y1="380" x2="205" y2="380" stroke="#6a4a30" stroke-width="1"/>

  <!-- Wohnhaus rechts -->
  <rect x="410" y="290" width="120" height="105" fill="#b8704a"/>
  <rect x="415" y="295" width="110" height="95" fill="#c8805a"/>
  <polygon points="470,235 390,290 550,290" fill="#654321"/>
  <polygon points="470,235 400,285 540,285" fill="#7b5423"/>

  <!-- Schnee auf Hausdach -->
  <path d="M 390,290 Q 430,275 470,270 Q 510,275 550,290" fill="#ffffff" opacity="0.95"/>

  <!-- Fachwerkbalken Wohnhaus -->
  <rect x="425" y="310" width="4" height="75" fill="#4a3020"/>
  <rect x="460" y="310" width="4" height="75" fill="#4a3020"/>
  <rect x="495" y="310" width="4" height="75" fill="#4a3020"/>
  <rect x="420" y="335" width="110" height="3" fill="#4a3020"/>
  <rect x="420" y="360" width="110" height="3" fill="#4a3020"/>

  <!-- Fenster Wohnhaus mit Licht -->
  <rect x="435" y="320" width="28" height="32" fill="#ffe8d0"/>
  <rect x="448" y="320" width="2" height="32" fill="#654321"/>
  <rect x="435" y="335" width="28" height="2" fill="#654321"/>

  <rect x="480" y="320" width="28" height="32" fill="#ffe8d0"/>
  <rect x="493" y="320" width="2" height="32" fill="#654321"/>
  <rect x="480" y="335" width="28" height="2" fill="#654321"/>

  <!-- Fensterläden -->
  <rect x="428" y="320" width="6" height="32" fill="#5a3a20"/>
  <rect x="464" y="320" width="6" height="32" fill="#5a3a20"/>
  <rect x="473" y="320" width="6" height="32" fill="#5a3a20"/>
  <rect x="509" y="320" width="6" height="32" fill="#5a3a20"/>

  <!-- Tür Wohnhaus -->
  <rect x="445" y="360" width="35" height="35" fill="#4a3520"/>
  <rect x="450" y="365" width="25" height="28" fill="#5a4530"/>
  <circle cx="470" cy="380" r="2.5" fill="#c0a080"/>

  <!-- Türpanels -->
  <rect x="453" y="368" width="19" height="12" fill="#4a3520" opacity="0.3"/>
  <rect x="453" y="382" width="19" height="8" fill="#4a3520" opacity="0.3"/>

  <!-- Schornstein mit Rauch -->
  <rect x="495" y="245" width="16" height="45" fill="#6b4423"/>
  <rect x="497" y="247" width="12" height="41" fill="#8b5433"/>
  <ellipse cx="503" cy="237" rx="8" ry="12" fill="#d0d0d0" opacity="0.65"/>
  <ellipse cx="506" cy="220" rx="10" ry="14" fill="#d0d0d0" opacity="0.5"/>
  <ellipse cx="510" cy="200" rx="12" ry="16" fill="#d0d0d0" opacity="0.35"/>
  <ellipse cx="514" cy="175" rx="14" ry="18" fill="#d0d0d0" opacity="0.2"/>

  <!-- Kleines Holzhaus links hinten -->
  <rect x="40" y="330" width="75" height="65" fill="#8b6f47"/>
  <rect x="45" y="335" width="65" height="55" fill="#9b7f57"/>
  <polygon points="77,295 30,330 124,330" fill="#654321"/>
  <polygon points="77,295 38,325 116,325" fill="#7b5423"/>

  <!-- Schnee auf kleinem Haus -->
  <path d="M 30,330 Q 54,320 77,317 Q 100,320 124,330" fill="#ffffff" opacity="0.95"/>

  <!-- Kleines Fenster -->
  <rect x="60" y="350" width="16" height="18" fill="#4a5a6a"/>

  <!-- Kleine Tür -->
  <rect x="85" y="360" width="18" height="25" fill="#4a3020"/>

  <!-- Winterbäume (kahl) mit Details -->
  <g>
    <!-- Baum 1 -->
    <rect x="595" y="335" width="10" height="75" fill="#4a3520"/>
    <line x1="600" y1="355" x2="585" y2="340" stroke="#4a3520" stroke-width="3.5"/>
    <line x1="600" y1="355" x2="615" y2="345" stroke="#4a3520" stroke-width="3.5"/>
    <line x1="600" y1="375" x2="588" y2="365" stroke="#4a3520" stroke-width="2.5"/>
    <line x1="600" y1="375" x2="612" y2="368" stroke="#4a3520" stroke-width="2.5"/>
    <line x1="600" y1="390" x2="590" y2="383" stroke="#4a3520" stroke-width="2"/>
    <line x1="600" y1="390" x2="610" y2="385" stroke="#4a3520" stroke-width="2"/>

    <!-- Kleinere Äste -->
    <line x1="585" y1="340" x2="578" y2="333" stroke="#4a3520" stroke-width="1.5"/>
    <line x1="615" y1="345" x2="622" y2="338" stroke="#4a3520" stroke-width="1.5"/>
  </g>

  <g>
    <!-- Baum 2 -->
    <rect x="675" y="345" width="8" height="65" fill="#4a3520"/>
    <line x1="679" y1="363" x2="668" y2="350" stroke="#4a3520" stroke-width="3"/>
    <line x1="679" y1="363" x2="690" y2="353" stroke="#4a3520" stroke-width="3"/>
    <line x1="679" y1="378" x2="670" y2="370" stroke="#4a3520" stroke-width="2"/>
    <line x1="679" y1="378" x2="688" y2="372" stroke="#4a3520" stroke-width="2"/>
    <line x1="679" y1="395" x2="672" y2="388" stroke="#4a3520" stroke-width="1.5"/>
    <line x1="679" y1="395" x2="686" y2="390" stroke="#4a3520" stroke-width="1.5"/>
  </g>

  <!-- Schneeflocken fallen -->
  <g opacity="0.9">
    <circle cx="130" cy="150" r="3" fill="#ffffff"/>
    <line x1="130" y1="145" x2="130" y2="155" stroke="#ffffff" stroke-width="0.5"/>
    <line x1="125" y1="150" x2="135" y2="150" stroke="#ffffff" stroke-width="0.5"/>
    <line x1="127" y1="147" x2="133" y2="153" stroke="#ffffff" stroke-width="0.5"/>
    <line x1="127" y1="153" x2="133" y2="147" stroke="#ffffff" stroke-width="0.5"/>
  </g>
  <g opacity="0.8">
    <circle cx="290" cy="120" r="2.5" fill="#ffffff"/>
    <line x1="290" y1="116" x2="290" y2="124" stroke="#ffffff" stroke-width="0.4"/>
    <line x1="286" y1="120" x2="294" y2="120" stroke="#ffffff" stroke-width="0.4"/>
  </g>
  <g opacity="0.9">
    <circle cx="460" cy="170" r="3" fill="#ffffff"/>
    <line x1="460" y1="165" x2="460" y2="175" stroke="#ffffff" stroke-width="0.5"/>
    <line x1="455" y1="170" x2="465" y2="170" stroke="#ffffff" stroke-width="0.5"/>
    <line x1="457" y1="167" x2="463" y2="173" stroke="#ffffff" stroke-width="0.5"/>
    <line x1="457" y1="173" x2="463" y2="167" stroke="#ffffff" stroke-width="0.5"/>
  </g>
  <circle cx="590" cy="140" r="2" fill="#ffffff" opacity="0.8"/>
  <circle cx="710" cy="190" r="2.5" fill="#ffffff" opacity="0.7"/>
  <circle cx="350" cy="95" r="2" fill="#ffffff" opacity="0.9"/>
  <circle cx="520" cy="110" r="2.5" fill="#ffffff" opacity="0.8"/>

  <!-- Holzschlitten -->
  <g>
    <path d="M 310 520 L 355 520 L 355 515 L 310 515 Z" fill="#c1440e"/>
    <path d="M 312 517 L 353 517 L 353 522 L 312 522 Z" fill="#d8552a"/>
    <path d="M 305 520 Q 305 525 308 525 L 310 520" fill="#654321"/>
    <path d="M 355 520 Q 357 525 360 525 L 358 520" fill="#654321"/>

    <!-- Sitzbank -->
    <rect x="320" y="510" width="25" height="6" fill="#8b4513"/>

    <!-- Kufen Details -->
    <ellipse cx="307" cy="526" rx="4" ry="2" fill="#654321" opacity="0.6"/>
    <ellipse cx="359" cy="526" rx="4" ry="2" fill="#654321" opacity="0.6"/>
  </g>

  <!-- Vogelschwarm -->
  <path d="M 60 200 Q 70 195 80 200" stroke="#2a2a2a" stroke-width="1.5" fill="none"/>
  <path d="M 95 215 Q 105 210 115 215" stroke="#2a2a2a" stroke-width="1.5" fill="none"/>
  <path d="M 78 207 Q 88 202 98 207" stroke="#2a2a2a" stroke-width="1.5" fill="none"/>
  <path d="M 110 195 Q 120 190 130 195" stroke="#2a2a2a" stroke-width="1.5" fill="none"/>

  <!-- Kirchenmauer/Friedhofsmauer -->
  <g>
    <rect x="120" y="390" width="160" height="8" fill="#a8a0a0"/>
    <rect x="122" y="392" width="156" height="4" fill="#b8b0b0"/>

    <!-- Mauersteine -->
    <line x1="145" y1="390" x2="145" y2="398" stroke="#908880" stroke-width="1"/>
    <line x1="170" y1="390" x2="170" y2="398" stroke="#908880" stroke-width="1"/>
    <line x1="195" y1="390" x2="195" y2="398" stroke="#908880" stroke-width="1"/>
    <line x1="220" y1="390" x2="220" y2="398" stroke="#908880" stroke-width="1"/>
    <line x1="245" y1="390" x2="245" y2="398" stroke="#908880" stroke-width="1"/>
  </g>

  <!-- Fußspuren im Schnee -->
  <g opacity="0.35">
    <ellipse cx="260" cy="500" rx="6" ry="10" fill="#c8d8e8" transform="rotate(-15 260 500)"/>
    <ellipse cx="275" cy="505" rx="6" ry="10" fill="#c8d8e8" transform="rotate(15 275 505)"/>
    <ellipse cx="290" cy="510" rx="6" ry="10" fill="#c8d8e8" transform="rotate(-15 290 510)"/>
    <ellipse cx="380" cy="515" rx="6" ry="10" fill="#c8d8e8" transform="rotate(-20 380 515)"/>
    <ellipse cx="395" cy="520" rx="6" ry="10" fill="#c8d8e8" transform="rotate(20 395 520)"/>
  </g>

  <!-- Kleine Wolken -->
  <ellipse cx="550" cy="100" rx="45" ry="25" fill="#e8f0f8" opacity="0.6"/>
  <ellipse cx="580" cy="100" rx="35" ry="20" fill="#e8f0f8" opacity="0.6"/>
  <ellipse cx="530" cy="108" rx="30" ry="18" fill="#e8f0f8" opacity="0.6"/>

  <!-- Emoji-Dekoration: Februar = Winter & Valentinstag -->
  <!-- Schneeflocken ❄️ -->
  <text x="85" y="260" font-size="22" opacity="0.7">❄️</text>
  <text x="660" y="290" font-size="20" opacity="0.65">❄️</text>
  <text x="550" y="480" font-size="18" opacity="0.7">❄️</text>
  <text x="30" y="420" font-size="20" opacity="0.6">❄️</text>

  <!-- Herzen ❤️💕 (Valentinstag-Theme) -->
  <text x="320" y="170" font-size="22" opacity="0.75">💕</text>
  <text x="240" y="210" font-size="18" opacity="0.65">❤️</text>
  <text x="730" y="260" font-size="20" opacity="0.7">💕</text>
  <text x="400" y="145" font-size="16" opacity="0.6">❤️</text>

  <!-- Kirche ⛪ -->
  <text x="145" y="220" font-size="20" opacity="0.3">⛪</text>

  <!-- Vögel 🐦 -->
  <text x="45" y="230" font-size="16" opacity="0.5">🐦</text>
  <text x="100" y="245" font-size="14" opacity="0.5">🐦</text>
</svg>
