<svg xmlns="http://www.w3.org/2000/svg" viewBox="0 0 800 600" role="img" aria-label="Januar Dorfszene - Winterlandschaft">
  <defs>
    <linearGradient id="januarySky" x1="0%" y1="0%" x2="0%" y2="100%">
      <stop offset="0%" style="stop-color:#2a4a6a;stop-opacity:1" />
      <stop offset="50%" style="stop-color:#4a6a8a;stop-opacity:1" />
      <stop offset="100%" style="stop-color:#6a8aaa;stop-opacity:1" />
    </linearGradient>
    <radialGradient id="moonGlow" cx="50%" cy="50%" r="50%">
      <stop offset="0%" style="stop-color:#ffffcc;stop-opacity:1" />
      <stop offset="100%" style="stop-color:#ffff99;stop-opacity:0.3" />
    </radialGradient>
  </defs>

  <!-- Nachthimmel -->
  <rect width="800" height="600" fill="url(#januarySky)"/>

  <!-- Vollmond -->
  <circle cx="680" cy="100" r="45" fill="url(#moonGlow)"/>
  <circle cx="680" cy="100" r="40" fill="#ffffee"/>
  <circle cx="670" cy="95" r="6" fill="#f0f0d0" opacity="0.5"/>
  <circle cx="690" cy="105" r="4" fill="#f0f0d0" opacity="0.5"/>
  <circle cx="675" cy="110" r="3" fill="#f0f0d0" opacity="0.5"/>

  <!-- Sterne -->
  <circle cx="100" cy="80" r="2.5" fill="#ffffff"/>
  <circle cx="150" cy="60" r="2" fill="#ffffcc"/>
  <circle cx="200" cy="100" r="2.5" fill="#ffffff"/>
  <circle cx="280" cy="70" r="2" fill="#ffffcc"/>
  <circle cx="350" cy="90" r="2.5" fill="#ffffff"/>
  <circle cx="450" cy="65" r="2" fill="#ffffcc"/>
  <circle cx="520" cy="85" r="2.5" fill="#ffffff"/>
  <circle cx="600" cy="55" r="2" fill="#ffffcc"/>
  <circle cx="750" cy="75" r="2.5" fill="#ffffff"/>
  <circle cx="120" cy="140" r="2" fill="#ffffcc"/>
  <circle cx="380" cy="120" r="2.5" fill="#ffffff"/>

  <!-- Schneehügel im Hintergrund -->
  <ellipse cx="200" cy="420" rx="280" ry="110" fill="#e8f0f8"/>
  <ellipse cx="500" cy="440" rx="320" ry="95" fill="#dce8f0"/>
  <ellipse cx="700" cy="430" rx="250" ry="100" fill="#d0e0e8"/>

  <!-- Schneebedeckter Boden vorne -->
  <rect x="0" y="400" width="800" height="200" fill="#f0f8ff"/>

  <!-- Schneeverwehungen -->
  <ellipse cx="150" cy="480" rx="80" ry="25" fill="#e8f4fc"/>
  <ellipse cx="400" cy="490" rx="100" ry="30" fill="#e8f4fc"/>
  <ellipse cx="650" cy="485" rx="90" ry="28" fill="#e8f4fc"/>

  <!-- Verschneite Tannen Hintergrund -->
  <g opacity="0.8">
    <polygon points="680,280 640,360 720,360" fill="#1a3a1a"/>
    <polygon points="680,300 650,360 710,360" fill="#2a4a2a"/>
    <polygon points="680,320 655,360 705,360" fill="#2a5a2a"/>
    <rect x="675" y="360" width="10" height="50" fill="#4a3520"/>
    <ellipse cx="680" cy="285" rx="25" ry="8" fill="#ffffff" opacity="0.9"/>
    <ellipse cx="680" cy="305" rx="20" ry="7" fill="#ffffff" opacity="0.9"/>
    <ellipse cx="680" cy="325" rx="18" ry="6" fill="#ffffff" opacity="0.9"/>
  </g>

  <g opacity="0.8">
    <polygon points="730,300 695,370 765,370" fill="#1a3a1a"/>
    <polygon points="730,320 705,370 755,370" fill="#2a4a2a"/>
    <rect x="725" y="370" width="10" height="40" fill="#4a3520"/>
    <ellipse cx="730" cy="305" rx="22" ry="7" fill="#ffffff" opacity="0.9"/>
    <ellipse cx="730" cy="323" rx="18" ry="6" fill="#ffffff" opacity="0.9"/>
  </g>

  <!-- Haupthaus (Bauernhaus) -->
  <rect x="250" y="260" width="140" height="120" fill="#a84532"/>
  <rect x="255" y="265" width="130" height="110" fill="#c85542"/>
  <polygon points="320,200 230,260 410,260" fill="#6b4423"/>
  <polygon points="320,200 240,255 400,255" fill="#8b5433"/>
  <path d="M 230,260 Q 280,245 320,240 Q 360,245 410,260" fill="#ffffff" opacity="0.95"/>

  <!-- Fachwerkbalken -->
  <rect x="270" y="280" width="5" height="90" fill="#4a3020"/>
  <rect x="310" y="280" width="5" height="90" fill="#4a3020"/>
  <rect x="350" y="280" width="5" height="90" fill="#4a3020"/>
  <rect x="260" y="310" width="120" height="4" fill="#4a3020"/>
  <rect x="260" y="340" width="120" height="4" fill="#4a3020"/>

  <!-- Fenster mit warmem Licht -->
  <rect x="275" y="290" width="30" height="35" fill="#ffd98e"/>
  <rect x="289" y="290" width="2" height="35" fill="#6b4423"/>
  <rect x="275" y="306" width="30" height="2" fill="#6b4423"/>
  <line x1="275" y1="290" x2="305" y2="325" stroke="#6b4423" stroke-width="1" opacity="0.3"/>

  <rect x="325" y="290" width="30" height="35" fill="#ffd98e"/>
  <rect x="339" y="290" width="2" height="35" fill="#6b4423"/>
  <rect x="325" y="306" width="30" height="2" fill="#6b4423"/>

  <!-- Fenster im Dachgeschoss -->
  <circle cx="320" cy="230" r="12" fill="#ffc87e"/>
  <line x1="320" y1="218" x2="320" y2="242" stroke="#6b4423" stroke-width="1.5"/>
  <line x1="308" y1="230" x2="332" y2="230" stroke="#6b4423" stroke-width="1.5"/>

  <!-- Tür -->
  <rect x="295" y="335" width="40" height="45" fill="#5a3a20"/>
  <rect x="300" y="340" width="30" height="38" fill="#6a4a30"/>
  <circle cx="325" cy="358" r="2.5" fill="#d4a020"/>
  <rect x="303" y="343" width="24" height="15" fill="#5a3a20" opacity="0.3"/>
  <rect x="303" y="360" width="24" height="15" fill="#5a3a20" opacity="0.3"/>

  <!-- Schornstein mit Rauch -->
  <rect x="355" y="215" width="18" height="45" fill="#8b4433"/>
  <rect x="357" y="217" width="14" height="41" fill="#a85543"/>
  <ellipse cx="364" cy="207" rx="9" ry="13" fill="#d8d8d8" opacity="0.7"/>
  <ellipse cx="367" cy="190" rx="11" ry="15" fill="#d8d8d8" opacity="0.5"/>
  <ellipse cx="371" cy="168" rx="13" ry="18" fill="#d8d8d8" opacity="0.3"/>
  <ellipse cx="375" cy="142" rx="15" ry="20" fill="#d8d8d8" opacity="0.2"/>

  <!-- Fensterläden -->
  <rect x="268" y="290" width="6" height="35" fill="#5a3a20"/>
  <rect x="306" y="290" width="6" height="35" fill="#5a3a20"/>
  <rect x="318" y="290" width="6" height="35" fill="#5a3a20"/>
  <rect x="356" y="290" width="6" height="35" fill="#5a3a20"/>

  <!-- Scheune rechts -->
  <rect x="450" y="300" width="100" height="90" fill="#8b6a47"/>
  <rect x="455" y="305" width="90" height="80" fill="#9b7a57"/>
  <polygon points="500,255 440,300 560,300" fill="#5a4020"/>
  <polygon points="500,255 448,295 552,295" fill="#6a5030"/>
  <path d="M 440,300 Q 470,290 500,287 Q 530,290 560,300" fill="#ffffff" opacity="0.95"/>

  <!-- Scheunentor -->
  <rect x="475" y="335" width="45" height="55" fill="#4a3020"/>
  <line x1="480" y1="335" x2="480" y2="390" stroke="#3a2010" stroke-width="2"/>
  <line x1="490" y1="335" x2="490" y2="390" stroke="#3a2010" stroke-width="2"/>
  <line x1="500" y1="335" x2="500" y2="390" stroke="#3a2010" stroke-width="2"/>
  <line x1="510" y1="335" x2="510" y2="390" stroke="#3a2010" stroke-width="2"/>
  <rect x="475" y="355" width="45" height="3" fill="#3a2010"/>
  <rect x="475" y="375" width="45" height="3" fill="#3a2010"/>

  <!-- Kleines Fenster Scheune -->
  <rect x="465" y="320" width="18" height="15" fill="#3a4a5a"/>

  <!-- Holzstapel -->
  <g>
    <rect x="560" y="360" width="8" height="30" fill="#6a4a30"/>
    <rect x="570" y="360" width="8" height="30" fill="#7a5a40"/>
    <rect x="580" y="360" width="8" height="30" fill="#6a4a30"/>
    <rect x="590" y="360" width="8" height="30" fill="#7a5a40"/>
    <rect x="560" y="340" width="8" height="18" fill="#7a5a40"/>
    <rect x="570" y="340" width="8" height="18" fill="#6a4a30"/>
    <rect x="580" y="340" width="8" height="18" fill="#7a5a40"/>
    <rect x="560" y="340" width="38" height="3" fill="#ffffff" opacity="0.9"/>
  </g>

  <!-- Kleines Gartenhaus links -->
  <rect x="80" y="340" width="65" height="60" fill="#a07050"/>
  <polygon points="112,310 70,340 154,340" fill="#6a4a30"/>
  <rect x="95" y="360" width="20" height="25" fill="#4a3020"/>
  <path d="M 70,340 Q 92,333 112,330 Q 132,333 154,340" fill="#ffffff" opacity="0.95"/>

  <!-- Holzzaun vorne -->
  <g>
    <rect x="150" y="450" width="5" height="45" fill="#6a4a30"/>
    <rect x="170" y="450" width="5" height="45" fill="#6a4a30"/>
    <rect x="190" y="450" width="5" height="45" fill="#6a4a30"/>
    <rect x="210" y="450" width="5" height="45" fill="#6a4a30"/>
    <rect x="230" y="450" width="5" height="45" fill="#6a4a30"/>
    <rect x="145" y="465" width="95" height="4" fill="#6a4a30"/>
    <rect x="145" y="480" width="95" height="4" fill="#6a4a30"/>
    <rect x="148" y="448" width="3" height="4" fill="#ffffff"/>
    <rect x="168" y="448" width="3" height="4" fill="#ffffff"/>
    <rect x="188" y="448" width="3" height="4" fill="#ffffff"/>
    <rect x="208" y="448" width="3" height="4" fill="#ffffff"/>
    <rect x="228" y="448" width="3" height="4" fill="#ffffff"/>
  </g>

  <!-- Schneemann -->
  <g>
    <circle cx="620" cy="465" r="22" fill="#ffffff"/>
    <circle cx="620" cy="435" r="17" fill="#ffffff"/>
    <circle cx="620" cy="412" r="13" fill="#ffffff"/>
    <circle cx="614" cy="409" r="2" fill="#000000"/>
    <circle cx="626" cy="409" r="2" fill="#000000"/>
    <polygon points="620,412 615,414 620,416" fill="#ff6600"/>
    <circle cx="616" cy="418" r="1" fill="#000000"/>
    <circle cx="620" cy="419" r="1" fill="#000000"/>
    <circle cx="624" cy="418" r="1" fill="#000000"/>
    <circle cx="620" cy="430" r="1.5" fill="#000000"/>
    <circle cx="620" cy="438" r="1.5" fill="#000000"/>
    <circle cx="620" cy="446" r="1.5" fill="#000000"/>
    <line x1="607" y1="430" x2="595" y2="420" stroke="#4a3020" stroke-width="2"/>
    <line x1="633" y1="430" x2="645" y2="420" stroke="#4a3020" stroke-width="2"/>
    <rect x="613" y="398" width="14" height="5" fill="#000000"/>
    <rect x="615" y="393" width="10" height="5" fill="#000000"/>
    <ellipse cx="620" cy="420" rx="15" ry="4" fill="#cc3333"/>
    <rect x="627" y="418" width="8" height="10" fill="#cc3333"/>
  </g>

  <!-- Schneeflocken fallen -->
  <g opacity="0.9">
    <circle cx="110" cy="180" r="3" fill="#ffffff"/>
    <line x1="110" y1="175" x2="110" y2="185" stroke="#ffffff" stroke-width="0.5"/>
    <line x1="105" y1="180" x2="115" y2="180" stroke="#ffffff" stroke-width="0.5"/>
    <line x1="107" y1="177" x2="113" y2="183" stroke="#ffffff" stroke-width="0.5"/>
    <line x1="107" y1="183" x2="113" y2="177" stroke="#ffffff" stroke-width="0.5"/>
  </g>
  <g opacity="0.8">
    <circle cx="260" cy="140" r="2.5" fill="#ffffff"/>
    <line x1="260" y1="136" x2="260" y2="144" stroke="#ffffff" stroke-width="0.4"/>
    <line x1="256" y1="140" x2="264" y2="140" stroke="#ffffff" stroke-width="0.4"/>
  </g>
  <g opacity="0.9">
    <circle cx="420" cy="200" r="3" fill="#ffffff"/>
    <line x1="420" y1="195" x2="420" y2="205" stroke="#ffffff" stroke-width="0.5"/>
    <line x1="415" y1="200" x2="425" y2="200" stroke="#ffffff" stroke-width="0.5"/>
    <line x1="417" y1="197" x2="423" y2="203" stroke="#ffffff" stroke-width="0.5"/>
    <line x1="417" y1="203" x2="423" y2="197" stroke="#ffffff" stroke-width="0.5"/>
  </g>
  <circle cx="550" cy="160" r="2" fill="#ffffff" opacity="0.8"/>
  <circle cx="180" cy="250" r="2.5" fill="#ffffff" opacity="0.9"/>
  <circle cx="650" cy="220" r="2" fill="#ffffff" opacity="0.7"/>
  <circle cx="320" cy="280" r="2.5" fill="#ffffff" opacity="0.8"/>
  <circle cx="480" cy="170" r="2" fill="#ffffff" opacity="0.9"/>

  <!-- Laternenweg -->
  <g>
    <rect x="365" y="420" width="4" height="45" fill="#3a2a1a"/>
    <rect x="363" y="418" width="8" height="4" fill="#3a2a1a"/>
    <rect x="360" y="408" width="14" height="12" fill="#1a1a1a" opacity="0.8"/>
    <rect x="362" y="410" width="10" height="8" fill="#ffd700" opacity="0.9"/>
    <ellipse cx="367" cy="414" rx="20" ry="15" fill="#ffeb99" opacity="0.3"/>
  </g>

  <!-- Fußspuren im Schnee -->
  <g opacity="0.4">
    <ellipse cx="200" cy="510" rx="6" ry="10" fill="#c8d8e8" transform="rotate(-20 200 510)"/>
    <ellipse cx="215" cy="515" rx="6" ry="10" fill="#c8d8e8" transform="rotate(15 215 515)"/>
    <ellipse cx="230" cy="520" rx="6" ry="10" fill="#c8d8e8" transform="rotate(-20 230 520)"/>
    <ellipse cx="245" cy="525" rx="6" ry="10" fill="#c8d8e8" transform="rotate(15 245 525)"/>
  </g>

  <!-- Vögel am Himmel -->
  <path d="M 50 190 Q 60 185 70 190" stroke="#2a2a2a" stroke-width="1.5" fill="none"/>
  <path d="M 90 210 Q 100 205 110 210" stroke="#2a2a2a" stroke-width="1.5" fill="none"/>
  <path d="M 75 200 Q 85 195 95 200" stroke="#2a2a2a" stroke-width="1.5" fill="none"/>

  <!-- Emoji-Dekoration: Winter-Theme -->
  <!-- Schneeflocken ❄️ -->
  <text x="50" y="350" font-size="24" opacity="0.8">❄️</text>
  <text x="720" y="480" font-size="20" opacity="0.7">❄️</text>
  <text x="580" y="280" font-size="18" opacity="0.6">❄️</text>
  <text x="140" y="520" font-size="22" opacity="0.75">❄️</text>
  <text x="750" y="350" font-size="20" opacity="0.65">❄️</text>

  <!-- Funkelnde Sterne ✨ -->
  <text x="420" y="140" font-size="20" opacity="0.85">✨</text>
  <text x="580" y="110" font-size="18" opacity="0.75">✨</text>
  <text x="210" y="130" font-size="16" opacity="0.7">✨</text>

  <!-- Mond 🌙 -->
  <text x="650" y="90" font-size="28" opacity="0.4">🌙</text>

  <!-- Schneemann ⛄ (beim existierenden Schneemann) -->
  <text x="555" y="425" font-size="18" opacity="0.3">⛄</text>
</svg>
