<svg xmlns="http://www.w3.org/2000/svg" viewBox="0 0 800 600">
  <!-- Juni: Sommerbeginn / Dorfszene am See -->
  <defs>
    <linearGradient id="juneSky" x1="0%" y1="0%" x2="0%" y2="100%">
      <stop offset="0%" style="stop-color:#38bdf8;stop-opacity:1" />
      <stop offset="50%" style="stop-color:#0ea5e9;stop-opacity:1" />
      <stop offset="100%" style="stop-color:#0284c7;stop-opacity:1" />
    </linearGradient>
    <linearGradient id="lakeWater" x1="0%" y1="0%" x2="0%" y2="100%">
      <stop offset="0%" style="stop-color:#06b6d4;stop-opacity:0.7" />
      <stop offset="100%" style="stop-color:#0891b2;stop-opacity:0.9" />
    </linearGradient>
  </defs>

  <!-- Himmel -->
  <rect width="800" height="600" fill="url(#juneSky)"/>

  <!-- Sonne (strahlend) -->
  <circle cx="150" cy="100" r="75" fill="#fde047" opacity="0.4"/>
  <circle cx="150" cy="100" r="60" fill="#fde047" opacity="0.7"/>
  <circle cx="150" cy="100" r="45" fill="#fef08a"/>

  <!-- Sonnenstrahlen -->
  <line x1="150" y1="15" x2="150" y2="-5" stroke="#fbbf24" stroke-width="6" opacity="0.8"/>
  <line x1="230" y1="100" x2="250" y2="100" stroke="#fbbf24" stroke-width="6" opacity="0.8"/>
  <line x1="150" y1="185" x2="150" y2="205" stroke="#fbbf24" stroke-width="6" opacity="0.8"/>
  <line x1="70" y1="100" x2="50" y2="100" stroke="#fbbf24" stroke-width="6" opacity="0.8"/>
  <line x1="212" y1="38" x2="230" y2="20" stroke="#fbbf24" stroke-width="5" opacity="0.8"/>
  <line x1="212" y1="162" x2="230" y2="180" stroke="#fbbf24" stroke-width="5" opacity="0.8"/>
  <line x1="88" y1="162" x2="70" y2="180" stroke="#fbbf24" stroke-width="5" opacity="0.8"/>
  <line x1="88" y1="38" x2="70" y2="20" stroke="#fbbf24" stroke-width="5" opacity="0.8"/>

  <!-- Wolken (klein und flauschig) -->
  <ellipse cx="500" cy="80" rx="55" ry="32" fill="#ffffff" opacity="0.9"/>
  <ellipse cx="540" cy="85" rx="45" ry="28" fill="#ffffff" opacity="0.9"/>
  <ellipse cx="465" cy="90" rx="40" ry="25" fill="#ffffff" opacity="0.9"/>

  <ellipse cx="680" cy="120" rx="50" ry="30" fill="#ffffff" opacity="0.85"/>
  <ellipse cx="715" cy="125" rx="42" ry="26" fill="#ffffff" opacity="0.85"/>

  <!-- Hügel im Hintergrund -->
  <ellipse cx="250" cy="360" rx="280" ry="65" fill="#4ade80" opacity="0.7"/>
  <ellipse cx="600" cy="380" rx="320" ry="75" fill="#22c55e" opacity="0.7"/>

  <!-- See/Wasser -->
  <ellipse cx="400" cy="480" rx="400" ry="90" fill="url(#lakeWater)"/>
  <ellipse cx="350" cy="470" rx="350" ry="70" fill="#06b6d4" opacity="0.3"/>

  <!-- Wellenmuster im Wasser -->
  <path d="M 50 460 Q 100 455 150 460 Q 200 465 250 460" stroke="#ffffff" stroke-width="2" fill="none" opacity="0.4"/>
  <path d="M 300 470 Q 350 465 400 470 Q 450 475 500 470" stroke="#ffffff" stroke-width="2" fill="none" opacity="0.4"/>
  <path d="M 550 480 Q 600 475 650 480 Q 700 485 750 480" stroke="#ffffff" stroke-width="2" fill="none" opacity="0.4"/>

  <!-- Ufer/Wiese -->
  <ellipse cx="400" cy="530" rx="420" ry="85" fill="#22c55e"/>
  <rect y="520" width="800" height="80" fill="#16a34a" opacity="0.4"/>

  <!-- Bootshaus links am Ufer -->
  <rect x="80" y="400" width="100" height="80" fill="#fef3c7"/>
  <path d="M 70 400 L 130 355 L 190 400 Z" fill="#dc2626"/>

  <!-- Fenster Bootshaus -->
  <rect x="100" y="420" width="28" height="32" fill="#93c5fd"/>
  <line x1="114" y1="420" x2="114" y2="452" stroke="#475569" stroke-width="2"/>
  <line x1="100" y1="436" x2="128" y2="436" stroke="#475569" stroke-width="2"/>

  <rect x="142" y="420" width="28" height="32" fill="#93c5fd"/>
  <line x1="156" y1="420" x2="156" y2="452" stroke="#475569" stroke-width="2"/>
  <line x1="142" y1="436" x2="170" y2="436" stroke="#475569" stroke-width="2"/>

  <!-- Bootssteg -->
  <rect x="120" y="475" width="12" height="60" fill="#92400e"/>
  <rect x="140" y="480" width="12" height="55" fill="#92400e"/>
  <rect x="160" y="485" width="12" height="50" fill="#92400e"/>
  <rect x="115" y="490" width="65" height="8" fill="#78350f"/>
  <rect x="115" y="505" width="65" height="8" fill="#78350f"/>
  <rect x="115" y="520" width="65" height="8" fill="#78350f"/>

  <!-- Kleines Ruderboot am Steg -->
  <ellipse cx="200" cy="510" rx="35" ry="15" fill="#78350f"/>
  <ellipse cx="200" cy="507" rx="32" ry="12" fill="#92400e"/>
  <line x1="190" y1="510" x2="210" y2="510" stroke="#a16207" stroke-width="3"/>
  <!-- Ruder -->
  <rect x="195" y="500" width="3" height="25" fill="#d97706"/>
  <ellipse cx="196.5" cy="498" rx="8" ry="4" fill="#d97706"/>

  <!-- Dorfkirche rechts -->
  <rect x="620" y="340" width="100" height="100" fill="#fed7aa"/>
  <path d="M 610 340 L 670 285 L 730 340 Z" fill="#7c2d12"/>

  <!-- Kirchturm -->
  <rect x="655" y="265" width="30" height="75" fill="#fef3c7"/>
  <path d="M 650 265 L 670 235 L 690 265 Z" fill="#7c2d12"/>
  <line x1="670" y1="235" x2="670" y2="215" stroke="#78350f" stroke-width="3"/>
  <path d="M 665 215 L 670 205 L 675 215 Z" fill="#fbbf24"/>

  <!-- Kirchenfenster -->
  <circle cx="670" cy="290" r="10" fill="#93c5fd"/>
  <rect x="645" y="360" width="20" height="30" fill="#60a5fa"/>
  <path d="M 645 360 Q 655 355 665 360" stroke="#475569" stroke-width="2" fill="none"/>

  <rect x="675" y="360" width="20" height="30" fill="#60a5fa"/>
  <path d="M 675 360 Q 685 355 695 360" stroke="#475569" stroke-width="2" fill="none"/>

  <!-- Kirchentür -->
  <rect x="657" y="400" width="26" height="40" fill="#92400e"/>
  <path d="M 657 400 Q 670 395 683 400" stroke="#78350f" stroke-width="2" fill="none"/>

  <!-- Großer Baum in der Mitte -->
  <rect x="375" y="360" width="45" height="160" fill="#78350f"/>
  <circle cx="397.5" cy="330" r="85" fill="#22c55e" opacity="0.85"/>
  <circle cx="360" cy="295" r="65" fill="#16a34a" opacity="0.85"/>
  <circle cx="435" cy="290" r="70" fill="#4ade80" opacity="0.85"/>
  <circle cx="350" cy="350" r="55" fill="#22c55e" opacity="0.8"/>
  <circle cx="445" cy="345" r="60" fill="#16a34a" opacity="0.8"/>

  <!-- Blätter-Details -->
  <circle cx="380" cy="310" r="8" fill="#15803d"/>
  <circle cx="410" cy="300" r="7" fill="#15803d"/>
  <circle cx="395" cy="340" r="9" fill="#15803d"/>

  <!-- Schaukel am Baum -->
  <line x1="360" y1="340" x2="360" y2="420" stroke="#78350f" stroke-width="3"/>
  <line x1="385" y1="340" x2="385" y2="420" stroke="#78350f" stroke-width="3"/>
  <rect x="355" y="420" width="35" height="8" fill="#92400e"/>

  <!-- Wiese mit Sommerblumen -->
  <!-- Margeriten -->
  <g>
    <circle cx="250" cy="525" r="10" fill="#ffffff"/>
    <circle cx="244" cy="521" r="3" fill="#fef3c7"/>
    <circle cx="256" cy="521" r="3" fill="#fef3c7"/>
    <circle cx="244" cy="529" r="3" fill="#fef3c7"/>
    <circle cx="256" cy="529" r="3" fill="#fef3c7"/>
    <circle cx="250" cy="525" r="4" fill="#fde047"/>
    <rect x="248" y="530" width="4" height="40" fill="#22c55e"/>

    <circle cx="480" cy="535" r="9" fill="#ffffff"/>
    <circle cx="475" cy="532" r="2.5" fill="#fef3c7"/>
    <circle cx="485" cy="532" r="2.5" fill="#fef3c7"/>
    <circle cx="480" cy="535" r="3.5" fill="#fde047"/>
    <rect x="478" y="540" width="4" height="35" fill="#16a34a"/>

    <circle cx="540" cy="540" r="10" fill="#ffffff"/>
    <circle cx="534" cy="536" r="3" fill="#fef3c7"/>
    <circle cx="546" cy="536" r="3" fill="#fef3c7"/>
    <circle cx="540" cy="540" r="4" fill="#fde047"/>
    <rect x="538" y="545" width="4" height="38" fill="#22c55e"/>
  </g>

  <!-- Klatschmohn -->
  <g>
    <circle cx="300" cy="540" r="11" fill="#ef4444"/>
    <circle cx="296" cy="537" r="3.5" fill="#7c2d12" opacity="0.6"/>
    <rect x="298" y="545" width="4" height="45" fill="#22c55e"/>

    <circle cx="510" cy="550" r="10" fill="#dc2626"/>
    <circle cx="506" cy="547" r="3" fill="#7c2d12" opacity="0.6"/>
    <rect x="508" y="555" width="4" height="40" fill="#16a34a"/>
  </g>

  <!-- Kornblumen -->
  <g>
    <circle cx="330" cy="550" r="7" fill="#3b82f6"/>
    <circle cx="327" cy="548" r="2" fill="#ffffff" opacity="0.5"/>
    <rect x="328" y="555" width="4" height="38" fill="#15803d"/>

    <circle cx="450" cy="555" r="8" fill="#2563eb"/>
    <circle cx="446" cy="553" r="2.2" fill="#ffffff" opacity="0.5"/>
    <rect x="448" y="560" width="4" height="35" fill="#15803d"/>
  </g>

  <!-- Libellen über dem Wasser -->
  <g transform="translate(280, 450)">
    <ellipse cx="0" cy="0" rx="12" ry="4" fill="#06b6d4" opacity="0.6"/>
    <ellipse cx="0" cy="0" rx="3" ry="12" fill="#0891b2" opacity="0.7"/>
    <rect x="-1.5" y="-18" width="3" height="18" fill="#0e7490"/>
    <circle cx="0" cy="-20" r="3" fill="#164e63"/>
    <ellipse cx="-8" cy="-5" rx="10" ry="3" fill="#bae6fd" opacity="0.5"/>
    <ellipse cx="8" cy="-5" rx="10" ry="3" fill="#bae6fd" opacity="0.5"/>
  </g>

  <g transform="translate(520, 465)">
    <ellipse cx="0" cy="0" rx="10" ry="3.5" fill="#06b6d4" opacity="0.6"/>
    <ellipse cx="0" cy="0" rx="2.5" ry="10" fill="#0891b2" opacity="0.7"/>
    <rect x="-1.2" y="-15" width="2.5" height="15" fill="#0e7490"/>
    <circle cx="0" cy="-17" r="2.5" fill="#164e63"/>
    <ellipse cx="-7" cy="-4" rx="8" ry="2.5" fill="#bae6fd" opacity="0.5"/>
    <ellipse cx="7" cy="-4" rx="8" ry="2.5" fill="#bae6fd" opacity="0.5"/>
  </g>

  <!-- Enten/Schwäne auf dem Wasser -->
  <g transform="translate(600, 490)">
    <ellipse cx="0" cy="0" rx="25" ry="12" fill="#ffffff"/>
    <!-- Körper -->
    <ellipse cx="-8" cy="-2" rx="15" ry="10" fill="#f0f9ff"/>
    <!-- Hals -->
    <path d="M -18 -5 Q -25 -12 -22 -18" stroke="#ffffff" stroke-width="8" fill="none"/>
    <!-- Kopf -->
    <circle cx="-22" cy="-20" r="6" fill="#ffffff"/>
    <!-- Schnabel -->
    <ellipse cx="-26" cy="-20" rx="4" ry="2.5" fill="#f97316"/>
    <!-- Auge -->
    <circle cx="-23" cy="-21" r="1.5" fill="#1e293b"/>
  </g>

  <g transform="translate(320, 500)">
    <ellipse cx="0" cy="0" rx="20" ry="10" fill="#ffffff"/>
    <ellipse cx="-6" cy="-1" rx="12" ry="8" fill="#f0f9ff"/>
    <path d="M -14 -4 Q -20 -10 -17 -15" stroke="#ffffff" stroke-width="6" fill="none"/>
    <circle cx="-17" cy="-16" r="5" fill="#ffffff"/>
    <ellipse cx="-20" cy="-16" rx="3" ry="2" fill="#f97316"/>
    <circle cx="-18" cy="-17" r="1.2" fill="#1e293b"/>
  </g>

  <!-- Vögel am Himmel -->
  <path d="M 350 140 Q 365 135 380 140" stroke="#1e293b" stroke-width="2.5" fill="none"/>
  <path d="M 400 160 Q 415 155 430 160" stroke="#1e293b" stroke-width="2.5" fill="none"/>
  <path d="M 370 120 Q 385 115 400 120" stroke="#1e293b" stroke-width="2.5" fill="none"/>

  <!-- Schmetterlinge -->
  <g transform="translate(430, 480) rotate(15)">
    <ellipse cx="-8" cy="0" rx="10" ry="13" fill="#fbbf24" opacity="0.85"/>
    <ellipse cx="8" cy="0" rx="10" ry="13" fill="#fde047" opacity="0.85"/>
    <ellipse cx="-8" cy="0" rx="3" ry="5" fill="#ef4444" opacity="0.6"/>
    <ellipse cx="8" cy="0" rx="3" ry="5" fill="#ef4444" opacity="0.6"/>
    <line x1="-9" y1="-8" x2="9" y2="-8" stroke="#1e293b" stroke-width="1.8"/>
    <circle cx="0" cy="-8" r="2.5" fill="#374151"/>
    <line x1="-2.5" y1="-9" x2="-5" y2="-13" stroke="#1e293b" stroke-width="1.2"/>
    <line x1="2.5" y1="-9" x2="5" y2="-13" stroke="#1e293b" stroke-width="1.2"/>
  </g>

  <!-- Emoji-Dekoration: Sommerbeginn am See -->
  <!-- Sonne ☀️ -->
  <text x="115" y="105" font-size="36" opacity="0.4">☀️</text>

  <!-- Blumen 🌼🌸 -->
  <text x="225" y="545" font-size="24" opacity="0.8">🌼</text>
  <text x="460" y="560" font-size="22" opacity="0.75">🌸</text>
  <text x="520" y="575" font-size="20" opacity="0.7">🌼</text>

  <!-- Enten/Schwäne 🦆 -->
  <text x="560" y="485" font-size="28" opacity="0.75">🦆</text>
  <text x="280" y="495" font-size="26" opacity="0.7">🦆</text>

  <!-- Libellen (über Wasser) -->
  <text x="250" y="440" font-size="20" opacity="0.65">🦋</text>
  <text x="490" y="455" font-size="18" opacity="0.6">🦋</text>

  <!-- Schmetterlinge 🦋 -->
  <text x="400" y="470" font-size="22" opacity="0.8">🦋</text>

  <!-- Wolken ☁️ -->
  <text x="470" y="85" font-size="26" opacity="0.35">☁️</text>
  <text x="660" y="125" font-size="24" opacity="0.35">☁️</text>

  <!-- Vögel 🐦 -->
  <text x="340" y="150" font-size="16" opacity="0.5">🐦</text>
  <text x="390" y="170" font-size="14" opacity="0.5">🐦</text>

  <!-- Baum 🌳 -->
  <text x="355" y="350" font-size="24" opacity="0.3">🌳</text>
</svg>
