<svg xmlns="http://www.w3.org/2000/svg" viewBox="0 0 800 600">
  <!-- Mai: Blühende Wiese / Maifest im Dorf -->
  <defs>
    <linearGradient id="maySky" x1="0%" y1="0%" x2="0%" y2="100%">
      <stop offset="0%" style="stop-color:#7dd3fc;stop-opacity:1" />
      <stop offset="50%" style="stop-color:#38bdf8;stop-opacity:1" />
      <stop offset="100%" style="stop-color:#0ea5e9;stop-opacity:1" />
    </linearGradient>
  </defs>

  <!-- Himmel (strahlend blau) -->
  <rect width="800" height="600" fill="url(#maySky)"/>

  <!-- Sonne -->
  <circle cx="650" cy="120" r="70" fill="#fde047" opacity="0.4"/>
  <circle cx="650" cy="120" r="55" fill="#fde047" opacity="0.7"/>
  <circle cx="650" cy="120" r="40" fill="#fef08a"/>

  <!-- Sonnenstrahlen -->
  <line x1="650" y1="40" x2="650" y2="15" stroke="#fbbf24" stroke-width="5" opacity="0.8"/>
  <line x1="730" y1="120" x2="755" y2="120" stroke="#fbbf24" stroke-width="5" opacity="0.8"/>
  <line x1="650" y1="200" x2="650" y2="225" stroke="#fbbf24" stroke-width="5" opacity="0.8"/>
  <line x1="570" y1="120" x2="545" y2="120" stroke="#fbbf24" stroke-width="5" opacity="0.8"/>
  <line x1="707" y1="63" x2="727" y2="43" stroke="#fbbf24" stroke-width="4" opacity="0.8"/>
  <line x1="707" y1="177" x2="727" y2="197" stroke="#fbbf24" stroke-width="4" opacity="0.8"/>
  <line x1="593" y1="177" x2="573" y2="197" stroke="#fbbf24" stroke-width="4" opacity="0.8"/>
  <line x1="593" y1="63" x2="573" y2="43" stroke="#fbbf24" stroke-width="4" opacity="0.8"/>

  <!-- Weiße Wolken -->
  <ellipse cx="120" cy="90" rx="55" ry="32" fill="#ffffff" opacity="0.9"/>
  <ellipse cx="160" cy="95" rx="45" ry="28" fill="#ffffff" opacity="0.9"/>
  <ellipse cx="90" cy="100" rx="40" ry="25" fill="#ffffff" opacity="0.9"/>

  <ellipse cx="450" cy="70" rx="60" ry="35" fill="#ffffff" opacity="0.85"/>
  <ellipse cx="495" cy="75" rx="50" ry="30" fill="#ffffff" opacity="0.85"/>

  <!-- Hügel (grün und saftig) -->
  <ellipse cx="200" cy="400" rx="270" ry="75" fill="#4ade80" opacity="0.7"/>
  <ellipse cx="500" cy="420" rx="320" ry="85" fill="#22c55e" opacity="0.8"/>
  <ellipse cx="700" cy="440" rx="280" ry="70" fill="#16a34a" opacity="0.75"/>

  <!-- Wiese im Vordergrund -->
  <rect y="410" width="800" height="190" fill="#22c55e"/>
  <rect y="440" width="800" height="160" fill="#16a34a" opacity="0.3"/>

  <!-- Großer Maibaum in der Mitte -->
  <rect x="385" y="280" width="30" height="250" fill="#78350f"/>
  <rect x="383" y="275" width="34" height="10" fill="#92400e"/>

  <!-- Maibaum-Bänder (bunte spiralförmige Bänder) -->
  <path d="M 400 280 Q 430 300 420 330" stroke="#ef4444" stroke-width="6" fill="none"/>
  <path d="M 400 280 Q 460 310 440 350" stroke="#3b82f6" stroke-width="6" fill="none"/>
  <path d="M 400 280 Q 370 300 380 330" stroke="#fbbf24" stroke-width="6" fill="none"/>
  <path d="M 400 280 Q 340 310 360 350" stroke="#22c55e" stroke-width="6" fill="none"/>
  <path d="M 400 280 Q 450 320 430 365" stroke="#ec4899" stroke-width="6" fill="none"/>
  <path d="M 400 280 Q 350 320 370 365" stroke="#a855f7" stroke-width="6" fill="none"/>

  <!-- Maibaum-Spitze -->
  <path d="M 400 260 L 390 280 L 410 280 Z" fill="#fde047"/>
  <circle cx="400" cy="265" r="8" fill="#fbbf24"/>

  <!-- Blühender Baum links -->
  <rect x="100" y="310" width="38" height="180" fill="#92400e"/>
  <circle cx="119" cy="280" r="75" fill="#fecdd3" opacity="0.9"/>
  <circle cx="90" cy="250" r="58" fill="#fda4af" opacity="0.9"/>
  <circle cx="148" cy="245" r="62" fill="#fb7185" opacity="0.85"/>
  <circle cx="75" cy="295" r="50" fill="#fecdd3" opacity="0.85"/>
  <circle cx="163" cy="290" r="55" fill="#fda4af" opacity="0.85"/>

  <!-- Blüten am Baum (einzelne Details) -->
  <circle cx="95" cy="260" r="6" fill="#ffffff"/>
  <circle cx="130" cy="250" r="5" fill="#ffffff"/>
  <circle cx="155" cy="270" r="6" fill="#ffffff"/>
  <circle cx="110" cy="290" r="5" fill="#ffffff"/>

  <!-- Kleines Dorfhaus rechts -->
  <rect x="600" y="360" width="120" height="110" fill="#fef3c7"/>

  <!-- Fachwerk -->
  <line x1="620" y1="360" x2="620" y2="470" stroke="#78350f" stroke-width="5"/>
  <line x1="680" y1="360" x2="680" y2="470" stroke="#78350f" stroke-width="5"/>
  <line x1="600" y1="405" x2="720" y2="405" stroke="#78350f" stroke-width="5"/>
  <line x1="620" y1="405" x2="680" y2="360" stroke="#78350f" stroke-width="4"/>
  <line x1="680" y1="405" x2="620" y2="360" stroke="#78350f" stroke-width="4"/>

  <!-- Dach -->
  <path d="M 590 360 L 660 305 L 730 360 Z" fill="#dc2626"/>
  <path d="M 595 360 L 660 310 L 725 360 Z" fill="#b91c1c"/>

  <!-- Fenster -->
  <rect x="625" y="375" width="32" height="38" fill="#93c5fd"/>
  <line x1="641" y1="375" x2="641" y2="413" stroke="#475569" stroke-width="2"/>
  <line x1="625" y1="394" x2="657" y2="394" stroke="#475569" stroke-width="2"/>

  <rect x="668" y="375" width="32" height="38" fill="#93c5fd"/>
  <line x1="684" y1="375" x2="684" y2="413" stroke="#475569" stroke-width="2"/>
  <line x1="668" y1="394" x2="700" y2="394" stroke="#475569" stroke-width="2"/>

  <!-- Tür -->
  <rect x="640" y="425" width="32" height="45" fill="#92400e"/>
  <circle cx="665" cy="447" r="2.5" fill="#fbbf24"/>

  <!-- Wiese voller Blumen -->
  <!-- Mohnblumen (rot) -->
  <g>
    <circle cx="220" cy="475" r="12" fill="#ef4444"/>
    <circle cx="215" cy="472" r="4" fill="#7c2d12" opacity="0.6"/>
    <rect x="218" y="480" width="4" height="55" fill="#22c55e"/>

    <circle cx="280" cy="485" r="11" fill="#dc2626"/>
    <circle cx="276" cy="482" r="3.5" fill="#7c2d12" opacity="0.6"/>
    <rect x="278" y="490" width="4" height="50" fill="#16a34a"/>

    <circle cx="340" cy="490" r="13" fill="#ef4444"/>
    <circle cx="335" cy="487" r="4.5" fill="#7c2d12" opacity="0.6"/>
    <rect x="338" y="495" width="4" height="52" fill="#22c55e"/>

    <circle cx="520" cy="480" r="12" fill="#dc2626"/>
    <circle cx="516" cy="477" r="4" fill="#7c2d12" opacity="0.6"/>
    <rect x="518" y="485" width="4" height="53" fill="#16a34a"/>

    <circle cx="580" cy="495" r="11" fill="#ef4444"/>
    <circle cx="576" cy="492" r="3.5" fill="#7c2d12" opacity="0.6"/>
    <rect x="578" y="500" width="4" height="48" fill="#22c55e"/>
  </g>

  <!-- Kornblumen (blau) -->
  <g>
    <circle cx="250" cy="490" r="8" fill="#3b82f6"/>
    <circle cx="246" cy="488" r="2" fill="#ffffff" opacity="0.5"/>
    <circle cx="254" cy="488" r="2" fill="#ffffff" opacity="0.5"/>
    <rect x="248" y="495" width="4" height="48" fill="#15803d"/>

    <circle cx="310" cy="500" r="7" fill="#2563eb"/>
    <circle cx="307" cy="498" r="1.8" fill="#ffffff" opacity="0.5"/>
    <rect x="308" y="504" width="4" height="45" fill="#15803d"/>

    <circle cx="480" cy="505" r="8" fill="#3b82f6"/>
    <circle cx="476" cy="503" r="2" fill="#ffffff" opacity="0.5"/>
    <rect x="478" y="510" width="4" height="47" fill="#15803d"/>

    <circle cx="550" cy="510" r="7" fill="#2563eb"/>
    <rect x="548" y="514" width="4" height="43" fill="#15803d"/>
  </g>

  <!-- Löwenzahn (gelb) -->
  <g>
    <circle cx="270" cy="515" r="10" fill="#fde047"/>
    <circle cx="264" cy="512" r="2.5" fill="#ffffff" opacity="0.4"/>
    <circle cx="270" cy="510" r="2.5" fill="#ffffff" opacity="0.4"/>
    <circle cx="276" cy="512" r="2.5" fill="#ffffff" opacity="0.4"/>
    <circle cx="267" cy="518" r="2.5" fill="#ffffff" opacity="0.4"/>
    <circle cx="273" cy="518" r="2.5" fill="#ffffff" opacity="0.4"/>
    <rect x="268" y="520" width="4" height="42" fill="#22c55e"/>

    <circle cx="380" cy="520" r="9" fill="#fbbf24"/>
    <circle cx="375" cy="518" r="2" fill="#ffffff" opacity="0.4"/>
    <circle cx="385" cy="518" r="2" fill="#ffffff" opacity="0.4"/>
    <rect x="378" y="525" width="4" height="40" fill="#16a34a"/>

    <circle cx="500" cy="530" r="10" fill="#fde047"/>
    <circle cx="495" cy="527" r="2.5" fill="#ffffff" opacity="0.4"/>
    <circle cx="505" cy="527" r="2.5" fill="#ffffff" opacity="0.4"/>
    <rect x="498" y="535" width="4" height="38" fill="#22c55e"/>
  </g>

  <!-- Gänseblümchen (weiß) -->
  <g>
    <circle cx="230" cy="505" r="7" fill="#fef3c7"/>
    <circle cx="224" cy="502" r="2.5" fill="#ffffff"/>
    <circle cx="236" cy="502" r="2.5" fill="#ffffff"/>
    <circle cx="224" cy="508" r="2.5" fill="#ffffff"/>
    <circle cx="236" cy="508" r="2.5" fill="#ffffff"/>
    <rect x="228" y="510" width="4" height="45" fill="#22c55e"/>

    <circle cx="330" cy="520" r="6" fill="#fef3c7"/>
    <circle cx="325" cy="518" r="2" fill="#ffffff"/>
    <circle cx="335" cy="518" r="2" fill="#ffffff"/>
    <rect x="328" y="524" width="4" height="40" fill="#16a34a"/>

    <circle cx="460" cy="525" r="7" fill="#fef3c7"/>
    <circle cx="454" cy="522" r="2.5" fill="#ffffff"/>
    <circle cx="466" cy="522" r="2.5" fill="#ffffff"/>
    <circle cx="454" cy="528" r="2.5" fill="#ffffff"/>
    <circle cx="466" cy="528" r="2.5" fill="#ffffff"/>
    <rect x="458" y="530" width="4" height="43" fill="#22c55e"/>
  </g>

  <!-- Margeriten (größere weiße Blumen) -->
  <g>
    <circle cx="420" cy="490" r="14" fill="#fef3c7"/>
    <circle cx="410" cy="485" r="4" fill="#ffffff"/>
    <circle cx="430" cy="485" r="4" fill="#ffffff"/>
    <circle cx="410" cy="495" r="4" fill="#ffffff"/>
    <circle cx="430" cy="495" r="4" fill="#ffffff"/>
    <circle cx="420" cy="480" r="4" fill="#ffffff"/>
    <circle cx="420" cy="500" r="4" fill="#ffffff"/>
    <circle cx="420" cy="490" r="6" fill="#fbbf24"/>
    <rect x="418" y="498" width="4" height="50" fill="#22c55e"/>

    <circle cx="450" cy="500" r="12" fill="#ffffff"/>
    <circle cx="442" cy="496" r="3.5" fill="#fef3c7"/>
    <circle cx="458" cy="496" r="3.5" fill="#fef3c7"/>
    <circle cx="442" cy="504" r="3.5" fill="#fef3c7"/>
    <circle cx="458" cy="504" r="3.5" fill="#fef3c7"/>
    <circle cx="450" cy="500" r="5" fill="#fde047"/>
    <rect x="448" y="507" width="4" height="48" fill="#16a34a"/>
  </g>

  <!-- Schmetterlinge (mehrere, verschiedene Positionen) -->
  <g transform="translate(360, 410) rotate(20)">
    <ellipse cx="-9" cy="0" rx="11" ry="15" fill="#fde047" opacity="0.85"/>
    <ellipse cx="9" cy="0" rx="11" ry="15" fill="#fbbf24" opacity="0.85"/>
    <ellipse cx="-9" cy="0" rx="4" ry="6" fill="#ef4444" opacity="0.6"/>
    <ellipse cx="9" cy="0" rx="4" ry="6" fill="#ef4444" opacity="0.6"/>
    <line x1="-11" y1="-9" x2="11" y2="-9" stroke="#1e293b" stroke-width="2"/>
    <circle cx="0" cy="-9" r="3" fill="#374151"/>
    <line x1="-3" y1="-11" x2="-7" y2="-15" stroke="#1e293b" stroke-width="1.5"/>
    <line x1="3" y1="-11" x2="7" y2="-15" stroke="#1e293b" stroke-width="1.5"/>
  </g>

  <g transform="translate(240, 440) rotate(-15)">
    <ellipse cx="-8" cy="0" rx="10" ry="13" fill="#3b82f6" opacity="0.85"/>
    <ellipse cx="8" cy="0" rx="10" ry="13" fill="#60a5fa" opacity="0.85"/>
    <ellipse cx="-8" cy="0" rx="3" ry="5" fill="#ffffff" opacity="0.5"/>
    <ellipse cx="8" cy="0" rx="3" ry="5" fill="#ffffff" opacity="0.5"/>
    <line x1="-9" y1="-8" x2="9" y2="-8" stroke="#1e293b" stroke-width="1.8"/>
    <circle cx="0" cy="-8" r="2.5" fill="#374151"/>
    <line x1="-2.5" y1="-9" x2="-5" y2="-13" stroke="#1e293b" stroke-width="1.2"/>
    <line x1="2.5" y1="-9" x2="5" y2="-13" stroke="#1e293b" stroke-width="1.2"/>
  </g>

  <g transform="translate(530, 450) rotate(10)">
    <ellipse cx="-8" cy="0" rx="10" ry="13" fill="#ec4899" opacity="0.85"/>
    <ellipse cx="8" cy="0" rx="10" ry="13" fill="#f472b6" opacity="0.85"/>
    <ellipse cx="-8" cy="0" rx="3" ry="5" fill="#fbbf24" opacity="0.6"/>
    <ellipse cx="8" cy="0" rx="3" ry="5" fill="#fbbf24" opacity="0.6"/>
    <line x1="-9" y1="-8" x2="9" y2="-8" stroke="#1e293b" stroke-width="1.8"/>
    <circle cx="0" cy="-8" r="2.5" fill="#374151"/>
    <line x1="-2.5" y1="-9" x2="-5" y2="-13" stroke="#1e293b" stroke-width="1.2"/>
    <line x1="2.5" y1="-9" x2="5" y2="-13" stroke="#1e293b" stroke-width="1.2"/>
  </g>

  <!-- Bienen (fliegend über Blumen) -->
  <g transform="translate(295, 460)">
    <ellipse cx="0" cy="0" rx="6" ry="9" fill="#fbbf24"/>
    <line x1="0" y1="-3" x2="0" y2="3" stroke="#78350f" stroke-width="2"/>
    <line x1="0" y1="1" x2="0" y2="7" stroke="#78350f" stroke-width="2"/>
    <ellipse cx="-7" cy="-3" rx="5" ry="2.5" fill="#cbd5e1" opacity="0.6" transform="rotate(-35 -7 -3)"/>
    <ellipse cx="7" cy="-3" rx="5" ry="2.5" fill="#cbd5e1" opacity="0.6" transform="rotate(35 7 -3)"/>
  </g>

  <g transform="translate(510, 475)">
    <ellipse cx="0" cy="0" rx="5" ry="8" fill="#fbbf24"/>
    <line x1="0" y1="-2.5" x2="0" y2="2.5" stroke="#78350f" stroke-width="1.8"/>
    <line x1="0" y1="0.5" x2="0" y2="6" stroke="#78350f" stroke-width="1.8"/>
    <ellipse cx="-6" cy="-2.5" rx="4" ry="2" fill="#cbd5e1" opacity="0.6" transform="rotate(-35 -6 -2.5)"/>
    <ellipse cx="6" cy="-2.5" rx="4" ry="2" fill="#cbd5e1" opacity="0.6" transform="rotate(35 6 -2.5)"/>
  </g>

  <!-- Vögel am Himmel -->
  <path d="M 300 150 Q 315 145 330 150" stroke="#1e293b" stroke-width="2.5" fill="none"/>
  <path d="M 350 170 Q 365 165 380 170" stroke="#1e293b" stroke-width="2.5" fill="none"/>
  <path d="M 320 130 Q 335 125 350 130" stroke="#1e293b" stroke-width="2.5" fill="none"/>

  <!-- Emoji-Dekoration: Maifest & blühende Wiesen -->
  <!-- Blumen 🌸🌺🌼🌻 -->
  <text x="195" y="495" font-size="26" opacity="0.8">🌺</text>
  <text x="255" y="510" font-size="24" opacity="0.75">🌼</text>
  <text x="315" y="520" font-size="26" opacity="0.8">🌸</text>
  <text x="395" y="540" font-size="28" opacity="0.85">🌻</text>
  <text x="495" y="550" font-size="24" opacity="0.75">🌺</text>
  <text x="565" y="515" font-size="22" opacity="0.7">🌼</text>

  <!-- Schmetterlinge 🦋 -->
  <text x="330" y="400" font-size="24" opacity="0.85">🦋</text>
  <text x="210" y="430" font-size="22" opacity="0.8">🦋</text>
  <text x="500" y="440" font-size="20" opacity="0.75">🦋</text>

  <!-- Bienen 🐝 -->
  <text x="265" y="450" font-size="18" opacity="0.8">🐝</text>
  <text x="480" y="465" font-size="16" opacity="0.75">🐝</text>

  <!-- Sonne ☀️ -->
  <text x="615" y="120" font-size="34" opacity="0.4">☀️</text>

  <!-- Maibaum (dekorativ) 🎏 -->
  <text x="360" y="310" font-size="20" opacity="0.35">🎏</text>

  <!-- Vögel 🐦 -->
  <text x="290" y="160" font-size="16" opacity="0.5">🐦</text>
  <text x="340" y="180" font-size="14" opacity="0.5">🐦</text>
</svg>
