<svg xmlns="http://www.w3.org/2000/svg" viewBox="0 0 800 600">
  <!-- November: Nebel, Wind und kahle Bäume / Stürmische Dorfszene -->
  <defs>
    <linearGradient id="novemberSky" x1="0%" y1="0%" x2="0%" y2="100%">
      <stop offset="0%" style="stop-color:#64748b;stop-opacity:1" />
      <stop offset="50%" style="stop-color:#94a3b8;stop-opacity:1" />
      <stop offset="100%" style="stop-color:#cbd5e1;stop-opacity:1" />
    </linearGradient>
  </defs>

  <!-- Himmel (grau und trüb) -->
  <rect width="800" height="600" fill="url(#novemberSky)"/>

  <!-- Diffuse Sonne hinter Wolken -->
  <circle cx="600" cy="140" r="65" fill="#e2e8f0" opacity="0.6"/>
  <circle cx="600" cy="140" r="50" fill="#f1f5f9" opacity="0.5"/>

  <!-- Dichte Wolken (vom Wind getrieben, schräg) -->
  <ellipse cx="200" cy="100" rx="90" ry="50" fill="#94a3b8" opacity="0.7" transform="rotate(-8 200 100)"/>
  <ellipse cx="270" cy="105" rx="75" ry="45" fill="#94a3b8" opacity="0.7" transform="rotate(-8 270 105)"/>
  <ellipse cx="150" cy="115" rx="70" ry="42" fill="#94a3b8" opacity="0.7" transform="rotate(-8 150 115)"/>
  <ellipse cx="230" cy="90" rx="60" ry="38" fill="#cbd5e1" opacity="0.6" transform="rotate(-8 230 90)"/>

  <ellipse cx="450" cy="120" rx="95" ry="52" fill="#94a3b8" opacity="0.75" transform="rotate(-10 450 120)"/>
  <ellipse cx="525" cy="125" rx="80" ry="48" fill="#94a3b8" opacity="0.75" transform="rotate(-10 525 125)"/>
  <ellipse cx="395" cy="130" rx="75" ry="45" fill="#94a3b8" opacity="0.75" transform="rotate(-10 395 130)"/>
  <ellipse cx="475" cy="110" rx="65" ry="40" fill="#cbd5e1" opacity="0.65" transform="rotate(-10 475 110)"/>

  <ellipse cx="650" cy="90" rx="85" ry="48" fill="#94a3b8" opacity="0.7" transform="rotate(-12 650 90)"/>
  <ellipse cx="710" cy="95" rx="70" ry="43" fill="#94a3b8" opacity="0.7" transform="rotate(-12 710 95)"/>
  <ellipse cx="600" cy="100" rx="65" ry="40" fill="#cbd5e1" opacity="0.6" transform="rotate(-12 600 100)"/>

  <!-- Hügel (verblasst im Nebel) -->
  <ellipse cx="300" cy="400" rx="320" ry="75" fill="#78350f" opacity="0.3"/>
  <ellipse cx="600" cy="420" rx="350" ry="85" fill="#92400e" opacity="0.3"/>

  <!-- Nebel-Schichten (dicht, vom Wind bewegt) -->
  <ellipse cx="400" cy="430" rx="550" ry="110" fill="#e2e8f0" opacity="0.5"/>
  <ellipse cx="280" cy="470" rx="480" ry="95" fill="#e2e8f0" opacity="0.6" transform="rotate(-3 280 470)"/>
  <ellipse cx="520" cy="490" rx="520" ry="100" fill="#e2e8f0" opacity="0.4" transform="rotate(2 520 490)"/>
  <ellipse cx="330" cy="520" rx="450" ry="85" fill="#e2e8f0" opacity="0.55" transform="rotate(-2 330 520)"/>
  <ellipse cx="570" cy="540" rx="480" ry="90" fill="#e2e8f0" opacity="0.45" transform="rotate(3 570 540)"/>

  <!-- Wiese/Boden (neblig) -->
  <rect y="430" width="800" height="170" fill="#65a30d"/>
  <rect y="460" width="800" height="140" fill="#78350f" opacity="0.2"/>

  <!-- Windlinien (sichtbarer Wind) -->
  <path d="M 50 250 Q 150 245 250 250" stroke="#cbd5e1" stroke-width="2" fill="none" opacity="0.4"/>
  <path d="M 100 280 Q 200 275 300 280" stroke="#cbd5e1" stroke-width="2" fill="none" opacity="0.35"/>
  <path d="M 450 220 Q 550 215 650 220" stroke="#cbd5e1" stroke-width="2" fill="none" opacity="0.4"/>
  <path d="M 500 260 Q 600 255 700 260" stroke="#cbd5e1" stroke-width="2" fill="none" opacity="0.35"/>
  <path d="M 200 320 Q 300 315 400 320" stroke="#cbd5e1" stroke-width="2" fill="none" opacity="0.3"/>
  <path d="M 550 300 Q 650 295 750 300" stroke="#cbd5e1" stroke-width="2" fill="none" opacity="0.3"/>

  <!-- Kahler Baum links (groß, vom Wind gebogen) -->
  <path d="M 150 520 Q 145 420 140 310" stroke="#475569" stroke-width="14" fill="none"/>
  <path d="M 148 520 Q 143 420 138 312" stroke="#64748b" stroke-width="10" fill="none"/>

  <!-- Hauptäste (alle nach rechts gebogen durch Wind) -->
  <path d="M 140 350 Q 125 325 110 295" stroke="#475569" stroke-width="9" fill="none"/>
  <path d="M 140 350 Q 170 320 200 300" stroke="#475569" stroke-width="9" fill="none"/>
  <path d="M 142 390 Q 130 365 120 345" stroke="#475569" stroke-width="8" fill="none"/>
  <path d="M 142 390 Q 175 365 195 350" stroke="#475569" stroke-width="8" fill="none"/>
  <path d="M 145 430 Q 135 410 130 395" stroke="#475569" stroke-width="7" fill="none"/>
  <path d="M 145 430 Q 170 415 185 400" stroke="#475569" stroke-width="7" fill="none"/>

  <!-- Feinere Zweige (stark gebogen) -->
  <path d="M 110 295 Q 95 280 90 265" stroke="#475569" stroke-width="5" fill="none"/>
  <path d="M 110 295 Q 125 280 125 270" stroke="#475569" stroke-width="5" fill="none"/>
  <path d="M 200 300 Q 220 285 225 275" stroke="#475569" stroke-width="5" fill="none"/>
  <path d="M 200 300 Q 210 280 210 265" stroke="#475569" stroke-width="5" fill="none"/>

  <path d="M 120 345 Q 105 330 100 320" stroke="#475569" stroke-width="4" fill="none"/>
  <path d="M 120 345 Q 130 325 130 315" stroke="#475569" stroke-width="4" fill="none"/>
  <path d="M 195 350 Q 215 335 215 325" stroke="#475569" stroke-width="4" fill="none"/>
  <path d="M 195 350 Q 205 330 205 320" stroke="#475569" stroke-width="4" fill="none"/>

  <!-- Dünne Zweige (sehr stark gebogen) -->
  <path d="M 90 265 Q 78 255 75 245" stroke="#475569" stroke-width="2.5" fill="none"/>
  <path d="M 90 265 Q 98 255 97 248" stroke="#475569" stroke-width="2.5" fill="none"/>
  <path d="M 225 275 Q 240 265 240 255" stroke="#475569" stroke-width="2.5" fill="none"/>
  <path d="M 225 275 Q 233 265 233 260" stroke="#475569" stroke-width="2.5" fill="none"/>

  <!-- Kahler Baum Mitte (mittelgroß, stark gebogen) -->
  <path d="M 400 540 Q 395 445 390 340" stroke="#475569" stroke-width="12" fill="none"/>
  <path d="M 398 540 Q 393 445 388 342" stroke="#64748b" stroke-width="8" fill="none"/>

  <!-- Hauptäste (gebogen) -->
  <path d="M 390 375 Q 370 350 365 325" stroke="#475569" stroke-width="8" fill="none"/>
  <path d="M 390 375 Q 425 345 445 330" stroke="#475569" stroke-width="8" fill="none"/>
  <path d="M 392 415 Q 378 395 375 375" stroke="#475569" stroke-width="7" fill="none"/>
  <path d="M 392 415 Q 420 395 440 380" stroke="#475569" stroke-width="7" fill="none"/>
  <path d="M 395 460 Q 385 440 385 425" stroke="#475569" stroke-width="6" fill="none"/>
  <path d="M 395 460 Q 415 445 430 430" stroke="#475569" stroke-width="6" fill="none"/>

  <!-- Feinere Zweige -->
  <path d="M 365 325 Q 345 310 340 295" stroke="#475569" stroke-width="4.5" fill="none"/>
  <path d="M 365 325 Q 375 305 375 295" stroke="#475569" stroke-width="4.5" fill="none"/>
  <path d="M 445 330 Q 465 315 470 305" stroke="#475569" stroke-width="4.5" fill="none"/>
  <path d="M 445 330 Q 455 310 455 300" stroke="#475569" stroke-width="4.5" fill="none"/>

  <path d="M 375 375 Q 360 360 355 350" stroke="#475569" stroke-width="3.5" fill="none"/>
  <path d="M 375 375 Q 383 355 383 345" stroke="#475569" stroke-width="3.5" fill="none"/>
  <path d="M 440 380 Q 460 365 460 355" stroke="#475569" stroke-width="3.5" fill="none"/>

  <!-- Dünne Zweige -->
  <path d="M 340 295 Q 328 285 325 275" stroke="#475569" stroke-width="2" fill="none"/>
  <path d="M 470 305 Q 485 295 485 285" stroke="#475569" stroke-width="2" fill="none"/>

  <!-- Kahler Baum rechts (groß, gebogen) -->
  <path d="M 650 530 Q 645 430 640 320" stroke="#475569" stroke-width="13" fill="none"/>
  <path d="M 648 530 Q 643 430 638 322" stroke="#64748b" stroke-width="9" fill="none"/>

  <!-- Hauptäste (gebogen) -->
  <path d="M 640 360 Q 620 335 615 310" stroke="#475569" stroke-width="8.5" fill="none"/>
  <path d="M 640 360 Q 675 335 695 315" stroke="#475569" stroke-width="8.5" fill="none"/>
  <path d="M 642 400 Q 628 380 625 360" stroke="#475569" stroke-width="7.5" fill="none"/>
  <path d="M 642 400 Q 670 380 690 365" stroke="#475569" stroke-width="7.5" fill="none"/>
  <path d="M 645 445 Q 635 425 635 410" stroke="#475569" stroke-width="6.5" fill="none"/>
  <path d="M 645 445 Q 670 430 680 415" stroke="#475569" stroke-width="6.5" fill="none"/>

  <!-- Feinere Zweige -->
  <path d="M 615 310 Q 595 295 590 280" stroke="#475569" stroke-width="5" fill="none"/>
  <path d="M 615 310 Q 625 290 625 280" stroke="#475569" stroke-width="5" fill="none"/>
  <path d="M 695 315 Q 720 300 720 290" stroke="#475569" stroke-width="5" fill="none"/>
  <path d="M 695 315 Q 705 295 705 285" stroke="#475569" stroke-width="5" fill="none"/>

  <path d="M 625 360 Q 610 345 605 335" stroke="#475569" stroke-width="4" fill="none"/>
  <path d="M 625 360 Q 633 340 633 330" stroke="#475569" stroke-width="4" fill="none"/>
  <path d="M 690 365 Q 710 350 710 340" stroke="#475569" stroke-width="4" fill="none"/>
  <path d="M 690 365 Q 698 345 698 335" stroke="#475569" stroke-width="4" fill="none"/>

  <!-- Dünne Zweige -->
  <path d="M 590 280 Q 578 270 575 260" stroke="#475569" stroke-width="2.5" fill="none"/>
  <path d="M 590 280 Q 598 270 597 265" stroke="#475569" stroke-width="2.5" fill="none"/>
  <path d="M 720 290 Q 735 280 735 270" stroke="#475569" stroke-width="2.5" fill="none"/>
  <path d="M 720 290 Q 727 280 727 275" stroke="#475569" stroke-width="2.5" fill="none"/>

  <!-- Kleine kahle Bäume im Hintergrund (gebogen) -->
  <path d="M 250 480 Q 248 445 245 400" stroke="#64748b" stroke-width="6" fill="none" opacity="0.6"/>
  <path d="M 245 425 Q 235 410 230 395" stroke="#64748b" stroke-width="3.5" fill="none" opacity="0.6"/>
  <path d="M 245 425 Q 265 410 275 400" stroke="#64748b" stroke-width="3.5" fill="none" opacity="0.6"/>

  <path d="M 550 490 Q 548 455 545 415" stroke="#64748b" stroke-width="6" fill="none" opacity="0.6"/>
  <path d="M 545 440 Q 535 425 530 410" stroke="#64748b" stroke-width="3.5" fill="none" opacity="0.6"/>
  <path d="M 545 440 Q 565 425 575 415" stroke="#64748b" stroke-width="3.5" fill="none" opacity="0.6"/>

  <!-- Altes Steinhaus (schattenhaft im Nebel) -->
  <rect x="300" y="400" width="120" height="95" fill="#475569" opacity="0.6"/>
  <rect x="302" y="402" width="116" height="91" fill="#64748b" opacity="0.5"/>

  <!-- Dach -->
  <path d="M 290 400 L 360 355 L 430 400 Z" fill="#334155" opacity="0.6"/>

  <!-- Fenster (dunkel) -->
  <rect x="320" y="420" width="28" height="32" fill="#1e293b" opacity="0.7"/>
  <rect x="365" y="420" width="28" height="32" fill="#1e293b" opacity="0.7"/>

  <!-- Tür -->
  <rect x="335" y="460" width="30" height="35" fill="#1e293b" opacity="0.7"/>

  <!-- Schornstein -->
  <rect x="380" y="365" width="18" height="35" fill="#334155" opacity="0.6"/>

  <!-- Rauch vom Schornstein (stark vom Wind getrieben) -->
  <ellipse cx="389" cy="355" rx="12" ry="7" fill="#cbd5e1" opacity="0.5" transform="rotate(-25 389 355)"/>
  <ellipse cx="405" cy="348" rx="15" ry="8" fill="#cbd5e1" opacity="0.4" transform="rotate(-30 405 348)"/>
  <ellipse cx="425" cy="340" rx="18" ry="9" fill="#cbd5e1" opacity="0.3" transform="rotate(-35 425 340)"/>
  <ellipse cx="450" cy="330" rx="20" ry="10" fill="#cbd5e1" opacity="0.2" transform="rotate(-40 450 330)"/>

  <!-- Vögel (vom Wind getrieben, schräg fliegend) -->
  <path d="M 480 200 Q 500 195 520 200" stroke="#475569" stroke-width="2" fill="none" opacity="0.5" transform="rotate(-15 500 200)"/>
  <path d="M 530 220 Q 550 215 570 220" stroke="#475569" stroke-width="2" fill="none" opacity="0.5" transform="rotate(-15 550 220)"/>
  <path d="M 500 180 Q 520 175 540 180" stroke="#475569" stroke-width="2" fill="none" opacity="0.5" transform="rotate(-15 520 180)"/>
  <path d="M 560 240 Q 580 235 600 240" stroke="#475569" stroke-width="2" fill="none" opacity="0.5" transform="rotate(-15 580 240)"/>

  <!-- Viele fliegende Blätter (vom Wind getrieben) -->
  <g>
    <!-- Blatt 1 - braun, fliegend nach rechts -->
    <ellipse cx="180" cy="280" rx="10" ry="16" fill="#92400e" opacity="0.7" transform="rotate(45 180 280)"/>
    <line x1="180" y1="280" x2="183" y2="291" stroke="#78350f" stroke-width="1.5"/>

    <!-- Blatt 2 - dunkelbraun -->
    <ellipse cx="320" cy="240" rx="9" ry="15" fill="#78350f" opacity="0.7" transform="rotate(60 320 240)"/>
    <line x1="320" y1="240" x2="324" y2="250" stroke="#92400e" stroke-width="1.5"/>

    <!-- Blatt 3 - rostbraun -->
    <ellipse cx="450" cy="310" rx="11" ry="17" fill="#b45309" opacity="0.7" transform="rotate(30 450 310)"/>
    <line x1="450" y1="310" x2="453" y2="322" stroke="#92400e" stroke-width="1.5"/>

    <!-- Blatt 4 -->
    <ellipse cx="580" cy="270" rx="10" ry="16" fill="#92400e" opacity="0.7" transform="rotate(50 580 270)"/>
    <line x1="580" y1="270" x2="584" y2="282" stroke="#78350f" stroke-width="1.5"/>

    <!-- Blatt 5 -->
    <ellipse cx="220" cy="350" rx="9" ry="14" fill="#78350f" opacity="0.7" transform="rotate(70 220 350)"/>
    <line x1="220" y1="350" x2="224" y2="360" stroke="#92400e" stroke-width="1.5"/>

    <!-- Blatt 6 -->
    <ellipse cx="390" cy="330" rx="10" ry="15" fill="#b45309" opacity="0.7" transform="rotate(40 390 330)"/>
    <line x1="390" y1="330" x2="393" y2="341" stroke="#92400e" stroke-width="1.5"/>

    <!-- Blatt 7 -->
    <ellipse cx="520" cy="360" rx="11" ry="16" fill="#92400e" opacity="0.7" transform="rotate(55 520 360)"/>
    <line x1="520" y1="360" x2="524" y2="372" stroke="#78350f" stroke-width="1.5"/>

    <!-- Blatt 8 -->
    <ellipse cx="670" cy="320" rx="9" ry="15" fill="#78350f" opacity="0.7" transform="rotate(65 670 320)"/>
    <line x1="670" y1="320" x2="673" y2="331" stroke="#92400e" stroke-width="1.5"/>

    <!-- Blatt 9 - höher fliegend -->
    <ellipse cx="260" cy="200" rx="8" ry="13" fill="#92400e" opacity="0.6" transform="rotate(80 260 200)"/>
    <line x1="260" y1="200" x2="263" y2="209" stroke="#78350f" stroke-width="1.3"/>

    <!-- Blatt 10 -->
    <ellipse cx="410" cy="220" rx="9" ry="14" fill="#b45309" opacity="0.6" transform="rotate(75 410 220)"/>
    <line x1="410" y1="220" x2="413" y2="230" stroke="#92400e" stroke-width="1.3"/>

    <!-- Blatt 11 -->
    <ellipse cx="600" cy="190" rx="8" ry="13" fill="#78350f" opacity="0.6" transform="rotate(85 600 190)"/>
    <line x1="600" y1="190" x2="603" y2="199" stroke="#92400e" stroke-width="1.3"/>

    <!-- Blatt 12 - weit fliegend -->
    <ellipse cx="350" cy="170" rx="7" ry="12" fill="#92400e" opacity="0.5" transform="rotate(90 350 170)"/>

    <!-- Blatt 13 -->
    <ellipse cx="550" cy="150" rx="8" ry="13" fill="#b45309" opacity="0.5" transform="rotate(95 550 150)"/>

    <!-- Blatt 14 -->
    <ellipse cx="700" cy="210" rx="9" ry="14" fill="#78350f" opacity="0.6" transform="rotate(70 700 210)"/>
  </g>

  <!-- Letzte Blätter am Boden (vom Wind bewegt) -->
  <ellipse cx="170" cy="545" rx="22" ry="9" fill="#92400e" opacity="0.6" transform="rotate(-15 170 545)"/>
  <ellipse cx="430" cy="560" rx="20" ry="8" fill="#78350f" opacity="0.6" transform="rotate(10 430 560)"/>
  <ellipse cx="640" cy="550" rx="24" ry="10" fill="#92400e" opacity="0.6" transform="rotate(-12 640 550)"/>

  <!-- Zusätzliche Nebelschwaden (Vordergrund, vom Wind bewegt) -->
  <ellipse cx="180" cy="560" rx="150" ry="38" fill="#f1f5f9" opacity="0.5" transform="rotate(-2 180 560)"/>
  <ellipse cx="520" cy="570" rx="170" ry="40" fill="#f1f5f9" opacity="0.5" transform="rotate(3 520 570)"/>
  <ellipse cx="710" cy="565" rx="140" ry="35" fill="#f1f5f9" opacity="0.5" transform="rotate(-3 710 565)"/>

  <!-- Emoji-Dekoration: November = Nebel, Wind, kahle Bäume -->
  <!-- Wind 💨 -->
  <text x="30" y="270" font-size="28" opacity="0.6">💨</text>
  <text x="430" y="235" font-size="26" opacity="0.6">💨</text>
  <text x="530" y="315" font-size="24" opacity="0.55">💨</text>

  <!-- Fliegende Herbstblätter 🍂🍁 (vom Wind getrieben) -->
  <text x="155" y="290" font-size="22" opacity="0.75">🍂</text>
  <text x="295" y="250" font-size="20" opacity="0.7">🍁</text>
  <text x="425" y="320" font-size="24" opacity="0.75">🍂</text>
  <text x="555" y="280" font-size="22" opacity="0.7">🍁</text>
  <text x="195" y="360" font-size="20" opacity="0.65">🍂</text>
  <text x="365" y="340" font-size="22" opacity="0.7">🍁</text>
  <text x="495" y="370" font-size="20" opacity="0.65">🍂</text>
  <text x="645" y="330" font-size="24" opacity="0.7">🍁</text>

  <!-- Wolken ☁️ (dicht, bewegt) -->
  <text x="170" y="110" font-size="32" opacity="0.4">☁️</text>
  <text x="420" y="125" font-size="34" opacity="0.45">☁️</text>
  <text x="630" y="95" font-size="30" opacity="0.4">☁️</text>

  <!-- Nebel 🌫️ -->
  <text x="250" y="485" font-size="28" opacity="0.35">🌫️</text>
  <text x="500" y="505" font-size="30" opacity="0.35">🌫️</text>

  <!-- Kahle Bäume 🌳 -->
  <text x="120" y="350" font-size="26" opacity="0.3">🌳</text>
  <text x="370" y="380" font-size="24" opacity="0.3">🌳</text>
  <text x="620" y="365" font-size="26" opacity="0.3">🌳</text>

  <!-- Vögel 🐦 (vom Wind getrieben) -->
  <text x="470" y="210" font-size="16" opacity="0.4">🐦</text>
  <text x="520" y="230" font-size="14" opacity="0.4">🐦</text>
</svg>
