<svg xmlns="http://www.w3.org/2000/svg" viewBox="0 0 800 600">
  <!-- Oktober: Goldener Oktober / Weinlese im Weinberg -->
  <defs>
    <linearGradient id="octoberSky" x1="0%" y1="0%" x2="0%" y2="100%">
      <stop offset="0%" style="stop-color:#fef3c7;stop-opacity:1" />
      <stop offset="40%" style="stop-color:#fde68a;stop-opacity:1" />
      <stop offset="100%" style="stop-color:#fbbf24;stop-opacity:1" />
    </linearGradient>
  </defs>

  <!-- Goldener Himmel -->
  <rect width="800" height="600" fill="url(#octoberSky)"/>

  <!-- Sonne (warm und tief stehend) -->
  <circle cx="120" cy="140" r="85" fill="#fde047" opacity="0.4"/>
  <circle cx="120" cy="140" r="65" fill="#fde047" opacity="0.6"/>
  <circle cx="120" cy="140" r="50" fill="#fef08a"/>

  <!-- Sonnenstrahlen -->
  <line x1="120" y1="60" x2="120" y2="30" stroke="#fbbf24" stroke-width="6" opacity="0.6"/>
  <line x1="205" y1="140" x2="235" y2="140" stroke="#fbbf24" stroke-width="6" opacity="0.6"/>
  <line x1="182" y1="82" x2="204" y2="60" stroke="#fbbf24" stroke-width="5" opacity="0.6"/>
  <line x1="182" y1="198" x2="204" y2="220" stroke="#fbbf24" stroke-width="5" opacity="0.6"/>
  <line x1="58" y1="82" x2="36" y2="60" stroke="#fbbf24" stroke-width="5" opacity="0.6"/>
  <line x1="58" y1="198" x2="36" y2="220" stroke="#fbbf24" stroke-width="5" opacity="0.6"/>

  <!-- Hügel im Hintergrund -->
  <ellipse cx="250" cy="380" rx="280" ry="65" fill="#a16207" opacity="0.5"/>
  <ellipse cx="550" cy="400" rx="300" ry="75" fill="#92400e" opacity="0.5"/>

  <!-- Weinberg-Hügel (Vordergrund) -->
  <rect y="380" width="800" height="220" fill="#854d0e"/>
  <rect y="410" width="800" height="190" fill="#713f12" opacity="0.5"/>

  <!-- Weinreben-Reihen (perspektivisch) -->
  <!-- Reihe 1 (hinten) -->
  <g>
    <line x1="100" y1="400" x2="700" y2="400" stroke="#422006" stroke-width="3"/>
    <rect x="100" y="390" width="8" height="30" fill="#422006"/>
    <rect x="200" y="390" width="8" height="30" fill="#422006"/>
    <rect x="300" y="390" width="8" height="30" fill="#422006"/>
    <rect x="400" y="390" width="8" height="30" fill="#422006"/>
    <rect x="500" y="390" width="8" height="30" fill="#422006"/>
    <rect x="600" y="390" width="8" height="30" fill="#422006"/>
    <rect x="700" y="390" width="8" height="30" fill="#422006"/>
    <!-- Weinblätter (klein, hinten) -->
    <circle cx="104" cy="385" r="8" fill="#a16207" opacity="0.8"/>
    <circle cx="204" cy="385" r="8" fill="#ca8a04" opacity="0.8"/>
    <circle cx="304" cy="385" r="8" fill="#d97706" opacity="0.8"/>
    <circle cx="404" cy="385" r="8" fill="#a16207" opacity="0.8"/>
    <circle cx="504" cy="385" r="8" fill="#ca8a04" opacity="0.8"/>
    <circle cx="604" cy="385" r="8" fill="#d97706" opacity="0.8"/>
    <circle cx="704" cy="385" r="8" fill="#a16207" opacity="0.8"/>
  </g>

  <!-- Reihe 2 (Mitte) -->
  <g>
    <line x1="80" y1="450" x2="720" y2="450" stroke="#422006" stroke-width="4"/>
    <rect x="80" y="435" width="10" height="40" fill="#422006"/>
    <rect x="190" y="435" width="10" height="40" fill="#422006"/>
    <rect x="300" y="435" width="10" height="40" fill="#422006"/>
    <rect x="410" y="435" width="10" height="40" fill="#422006"/>
    <rect x="520" y="435" width="10" height="40" fill="#422006"/>
    <rect x="630" y="435" width="10" height="40" fill="#422006"/>
    <rect x="720" y="435" width="10" height="40" fill="#422006"/>
    <!-- Weinblätter (mittel) -->
    <circle cx="85" cy="425" r="12" fill="#ca8a04" opacity="0.85"/>
    <circle cx="92" cy="428" r="10" fill="#d97706" opacity="0.85"/>
    <circle cx="195" cy="425" r="12" fill="#a16207" opacity="0.85"/>
    <circle cx="202" cy="428" r="10" fill="#ca8a04" opacity="0.85"/>
    <circle cx="305" cy="425" r="12" fill="#d97706" opacity="0.85"/>
    <circle cx="312" cy="428" r="10" fill="#ea580c" opacity="0.85"/>
    <circle cx="415" cy="425" r="12" fill="#ca8a04" opacity="0.85"/>
    <circle cx="422" cy="428" r="10" fill="#d97706" opacity="0.85"/>
    <circle cx="525" cy="425" r="12" fill="#a16207" opacity="0.85"/>
    <circle cx="532" cy="428" r="10" fill="#ca8a04" opacity="0.85"/>
    <circle cx="635" cy="425" r="12" fill="#d97706" opacity="0.85"/>
    <circle cx="642" cy="428" r="10" fill="#ea580c" opacity="0.85"/>
  </g>

  <!-- Reihe 3 (vorne) -->
  <g>
    <line x1="60" y1="510" x2="740" y2="510" stroke="#422006" stroke-width="5"/>
    <rect x="60" y="490" width="12" height="50" fill="#422006"/>
    <rect x="180" y="490" width="12" height="50" fill="#422006"/>
    <rect x="300" y="490" width="12" height="50" fill="#422006"/>
    <rect x="420" y="490" width="12" height="50" fill="#422006"/>
    <rect x="540" y="490" width="12" height="50" fill="#422006"/>
    <rect x="660" y="490" width="12" height="50" fill="#422006"/>
    <rect x="740" y="490" width="12" height="50" fill="#422006"/>
    <!-- Weinblätter (groß, vorne) -->
    <circle cx="66" cy="478" r="16" fill="#d97706" opacity="0.9"/>
    <circle cx="75" cy="482" r="14" fill="#ea580c" opacity="0.9"/>
    <circle cx="62" cy="488" r="12" fill="#ca8a04" opacity="0.9"/>
    <circle cx="186" cy="478" r="16" fill="#ca8a04" opacity="0.9"/>
    <circle cx="195" cy="482" r="14" fill="#d97706" opacity="0.9"/>
    <circle cx="182" cy="488" r="12" fill="#a16207" opacity="0.9"/>
    <circle cx="306" cy="478" r="16" fill="#ea580c" opacity="0.9"/>
    <circle cx="315" cy="482" r="14" fill="#dc2626" opacity="0.9"/>
    <circle cx="302" cy="488" r="12" fill="#d97706" opacity="0.9"/>
    <circle cx="426" cy="478" r="16" fill="#d97706" opacity="0.9"/>
    <circle cx="435" cy="482" r="14" fill="#ea580c" opacity="0.9"/>
    <circle cx="422" cy="488" r="12" fill="#ca8a04" opacity="0.9"/>
    <circle cx="546" cy="478" r="16" fill="#ca8a04" opacity="0.9"/>
    <circle cx="555" cy="482" r="14" fill="#d97706" opacity="0.9"/>
    <circle cx="542" cy="488" r="12" fill="#a16207" opacity="0.9"/>
    <circle cx="666" cy="478" r="16" fill="#ea580c" opacity="0.9"/>
    <circle cx="675" cy="482" r="14" fill="#dc2626" opacity="0.9"/>
    <circle cx="662" cy="488" r="12" fill="#d97706" opacity="0.9"/>
  </g>

  <!-- Großer goldener Baum links -->
  <rect x="520" y="280" width="55" height="240" fill="#78350f"/>
  <rect x="522" y="282" width="51" height="236" fill="#92400e"/>

  <!-- Baumkrone (golden) -->
  <circle cx="547.5" cy="250" r="105" fill="#fbbf24" opacity="0.9"/>
  <circle cx="500" cy="210" r="80" fill="#fde047" opacity="0.9"/>
  <circle cx="595" cy="205" r="85" fill="#f59e0b" opacity="0.9"/>
  <circle cx="485" cy="275" r="70" fill="#fbbf24" opacity="0.85"/>
  <circle cx="610" cy="270" r="75" fill="#fb923c" opacity="0.85"/>
  <circle cx="547.5" cy="310" r="65" fill="#fde047" opacity="0.8"/>

  <!-- Blätter-Details (golden) -->
  <circle cx="515" cy="230" r="12" fill="#fef08a"/>
  <circle cx="560" cy="220" r="14" fill="#fde047"/>
  <circle cx="580" cy="255" r="11" fill="#fb923c"/>
  <circle cx="530" cy="285" r="13" fill="#fbbf24"/>
  <circle cx="570" cy="295" r="10" fill="#f59e0b"/>

  <!-- Mittlerer Baum rechts (orange/rot) -->
  <rect x="680" y="310" width="45" height="210" fill="#78350f"/>
  <rect x="682" y="312" width="41" height="206" fill="#92400e"/>

  <!-- Baumkrone -->
  <circle cx="702.5" cy="285" r="85" fill="#fb923c" opacity="0.9"/>
  <circle cx="670" cy="255" r="65" fill="#f97316" opacity="0.9"/>
  <circle cx="735" cy="250" r="70" fill="#ea580c" opacity="0.9"/>
  <circle cx="665" cy="300" r="58" fill="#fb923c" opacity="0.85"/>
  <circle cx="740" cy="295" r="62" fill="#dc2626" opacity="0.85"/>

  <!-- Blätter-Details -->
  <circle cx="685" cy="270" r="10" fill="#f97316"/>
  <circle cx="710" cy="265" r="11" fill="#ea580c"/>
  <circle cx="720" cy="285" r="9" fill="#dc2626"/>

  <!-- Weinlese-Szene: Weinbauer mit Korb -->
  <g transform="translate(380, 480)">
    <!-- Korb mit Trauben -->
    <ellipse cx="0" cy="20" rx="25" ry="18" fill="#78350f"/>
    <rect x="-25" y="10" width="50" height="25" fill="#92400e"/>
    <path d="M -25 10 L -20 0 L 20 0 L 25 10" fill="#a16207"/>
    <!-- Trauben im Korb -->
    <circle cx="-8" cy="5" r="5" fill="#7c3aed"/>
    <circle cx="0" cy="3" r="5" fill="#6d28d9"/>
    <circle cx="8" cy="5" r="5" fill="#7c3aed"/>
    <circle cx="-12" cy="10" r="5" fill="#6d28d9"/>
    <circle cx="-4" cy="11" r="5" fill="#7c3aed"/>
    <circle cx="4" cy="11" r="5" fill="#6d28d9"/>
    <circle cx="12" cy="10" r="5" fill="#7c3aed"/>

    <!-- Person (vereinfacht) -->
    <circle cx="-50" cy="-20" r="12" fill="#fef3c7"/>
    <rect x="-60" y="-8" width="20" height="35" fill="#dc2626"/>
    <line x1="-50" y1="0" x2="-30" y2="15" stroke="#fef3c7" stroke-width="5"/>
    <line x1="-50" y1="0" x2="-65" y2="10" stroke="#fef3c7" stroke-width="5"/>
    <line x1="-50" y1="27" x2="-60" y2="45" stroke="#1e3a8a" stroke-width="6"/>
    <line x1="-50" y1="27" x2="-40" y2="45" stroke="#1e3a8a" stroke-width="6"/>
    <!-- Hut -->
    <ellipse cx="-50" cy="-25" rx="14" ry="5" fill="#78350f"/>
    <rect x="-56" y="-35" width="12" height="12" fill="#92400e"/>
  </g>

  <!-- Weintrauben an Reben (Details) -->
  <!-- Trauben links vorne -->
  <g>
    <circle cx="180" cy="505" r="6" fill="#7c3aed" opacity="0.9"/>
    <circle cx="188" cy="507" r="6" fill="#6d28d9" opacity="0.9"/>
    <circle cx="184" cy="512" r="6" fill="#7c3aed" opacity="0.9"/>
    <circle cx="176" cy="510" r="5" fill="#6d28d9" opacity="0.9"/>
    <circle cx="192" cy="512" r="5" fill="#7c3aed" opacity="0.9"/>
  </g>

  <!-- Trauben Mitte vorne -->
  <g>
    <circle cx="420" cy="503" r="6" fill="#6d28d9" opacity="0.9"/>
    <circle cx="428" cy="505" r="6" fill="#7c3aed" opacity="0.9"/>
    <circle cx="424" cy="510" r="6" fill="#6d28d9" opacity="0.9"/>
    <circle cx="416" cy="508" r="5" fill="#7c3aed" opacity="0.9"/>
    <circle cx="432" cy="510" r="5" fill="#6d28d9" opacity="0.9"/>
  </g>

  <!-- Trauben rechts vorne -->
  <g>
    <circle cx="660" cy="506" r="6" fill="#7c3aed" opacity="0.9"/>
    <circle cx="668" cy="508" r="6" fill="#6d28d9" opacity="0.9"/>
    <circle cx="664" cy="513" r="6" fill="#7c3aed" opacity="0.9"/>
    <circle cx="656" cy="511" r="5" fill="#6d28d9" opacity="0.9"/>
    <circle cx="672" cy="513" r="5" fill="#7c3aed" opacity="0.9"/>
  </g>

  <!-- Herbstblätter in der Luft (fallend) -->
  <g>
    <!-- Blatt 1 -->
    <ellipse cx="250" cy="150" rx="13" ry="18" fill="#fbbf24" transform="rotate(25 250 150)"/>
    <line x1="250" y1="150" x2="255" y2="163" stroke="#f59e0b" stroke-width="2"/>

    <!-- Blatt 2 -->
    <ellipse cx="450" cy="200" rx="12" ry="17" fill="#fb923c" transform="rotate(-20 450 200)"/>
    <line x1="450" y1="200" x2="455" y2="212" stroke="#f97316" stroke-width="1.8"/>

    <!-- Blatt 3 -->
    <ellipse cx="350" cy="250" rx="14" ry="19" fill="#f59e0b" transform="rotate(35 350 250)"/>
    <line x1="350" y1="250" x2="345" y2="264" stroke="#d97706" stroke-width="2"/>

    <!-- Blatt 4 -->
    <ellipse cx="600" cy="180" rx="13" ry="18" fill="#ea580c" transform="rotate(-15 600 180)"/>
    <line x1="600" y1="180" x2="605" y2="193" stroke="#c2410c" stroke-width="1.8"/>

    <!-- Blatt 5 -->
    <ellipse cx="180" cy="280" rx="12" ry="17" fill="#fde047" transform="rotate(40 180 280)"/>
    <line x1="180" y1="280" x2="175" y2="292" stroke="#fbbf24" stroke-width="1.8"/>

    <!-- Blatt 6 -->
    <ellipse cx="720" cy="220" rx="13" ry="18" fill="#dc2626" transform="rotate(-25 720 220)"/>
    <line x1="720" y1="220" x2="725" y2="233" stroke="#b91c1c" stroke-width="2"/>

    <!-- Blatt 7 -->
    <ellipse cx="280" cy="320" rx="11" ry="16" fill="#fb923c" transform="rotate(15 280 320)"/>
    <line x1="280" y1="320" x2="285" y2="331" stroke="#f97316" stroke-width="1.5"/>

    <!-- Blatt 8 -->
    <ellipse cx="550" cy="300" rx="12" ry="17" fill="#fbbf24" transform="rotate(-30 550 300)"/>
    <line x1="550" y1="300" x2="555" y2="312" stroke="#f59e0b" stroke-width="1.8"/>
  </g>

  <!-- Vögel (ziehend) -->
  <path d="M 320 120 Q 335 115 350 120" stroke="#78350f" stroke-width="2.5" fill="none"/>
  <path d="M 340 140 Q 355 135 370 140" stroke="#78350f" stroke-width="2.5" fill="none"/>
  <path d="M 360 100 Q 375 95 390 100" stroke="#78350f" stroke-width="2.5" fill="none"/>
  <path d="M 380 125 Q 395 120 410 125" stroke="#78350f" stroke-width="2.5" fill="none"/>

  <!-- Lichtstrahlen (golden hour) -->
  <path d="M 100 180 L 300 450" stroke="#fef08a" stroke-width="3" opacity="0.15"/>
  <path d="M 120 200 L 350 470" stroke="#fef08a" stroke-width="4" opacity="0.15"/>
  <path d="M 80 220 L 280 500" stroke="#fef08a" stroke-width="3" opacity="0.15"/>
  <path d="M 140 160 L 400 440" stroke="#fef08a" stroke-width="3" opacity="0.15"/>

  <!-- Emoji-Dekoration: Goldener Oktober / Weinlese -->
  <!-- Weintrauben 🍇 -->
  <text x="155" y="525" font-size="24" opacity="0.85">🍇</text>
  <text x="395" y="525" font-size="24" opacity="0.85">🍇</text>
  <text x="635" y="530" font-size="24" opacity="0.85">🍇</text>
  <text x="360" y="515" font-size="20" opacity="0.75">🍇</text>

  <!-- Herbstblätter 🍂🍁 (fallend) -->
  <text x="225" y="160" font-size="24" opacity="0.85">🍁</text>
  <text x="425" y="210" font-size="22" opacity="0.8">🍂</text>
  <text x="325" y="260" font-size="26" opacity="0.85">🍁</text>
  <text x="575" y="190" font-size="24" opacity="0.8">🍂</text>
  <text x="155" y="290" font-size="20" opacity="0.75">🍁</text>
  <text x="695" y="230" font-size="24" opacity="0.8">🍂</text>
  <text x="255" y="330" font-size="22" opacity="0.75">🍁</text>
  <text x="525" y="310" font-size="20" opacity="0.7">🍂</text>

  <!-- Goldene Bäume 🌳 -->
  <text x="510" y="275" font-size="30" opacity="0.35">🌳</text>
  <text x="665" y="315" font-size="26" opacity="0.35">🌳</text>

  <!-- Sonne 🌤️ -->
  <text x="85" y="145" font-size="36" opacity="0.4">🌤️</text>

  <!-- Vögel 🐦 (ziehend) -->
  <text x="310" y="130" font-size="16" opacity="0.5">🐦</text>
  <text x="360" y="150" font-size="14" opacity="0.5">🐦</text>
  <text x="380" y="135" font-size="14" opacity="0.5">🐦</text>
</svg>
