<svg xmlns="http://www.w3.org/2000/svg" viewBox="0 0 800 600">
  <!-- September: Herbstbeginn / Dorf mit bunten Bäumen -->
  <defs>
    <linearGradient id="septemberSky" x1="0%" y1="0%" x2="0%" y2="100%">
      <stop offset="0%" style="stop-color:#fed7aa;stop-opacity:1" />
      <stop offset="50%" style="stop-color:#fdba74;stop-opacity:1" />
      <stop offset="100%" style="stop-color:#fb923c;stop-opacity:1" />
    </linearGradient>
  </defs>

  <!-- Himmel (herbstlich golden) -->
  <rect width="800" height="600" fill="url(#septemberSky)"/>

  <!-- Sonne (tief stehend) -->
  <circle cx="650" cy="180" r="70" fill="#fde047" opacity="0.5"/>
  <circle cx="650" cy="180" r="55" fill="#fde047" opacity="0.75"/>
  <circle cx="650" cy="180" r="40" fill="#fef08a"/>

  <!-- Sonnenstrahlen -->
  <line x1="650" y1="100" x2="650" y2="75" stroke="#fb923c" stroke-width="5" opacity="0.7"/>
  <line x1="730" y1="180" x2="755" y2="180" stroke="#fb923c" stroke-width="5" opacity="0.7"/>
  <line x1="718" y1="128" x2="735" y2="111" stroke="#fb923c" stroke-width="4" opacity="0.7"/>
  <line x1="718" y1="232" x2="735" y2="249" stroke="#fb923c" stroke-width="4" opacity="0.7"/>

  <!-- Wolken (leichte Herbstwolken) -->
  <ellipse cx="200" cy="100" rx="60" ry="35" fill="#ffffff" opacity="0.7"/>
  <ellipse cx="245" cy="105" rx="50" ry="30" fill="#ffffff" opacity="0.7"/>
  <ellipse cx="165" cy="110" rx="45" ry="28" fill="#ffffff" opacity="0.7"/>

  <ellipse cx="450" cy="130" rx="55" ry="32" fill="#ffffff" opacity="0.65"/>
  <ellipse cx="490" cy="135" rx="48" ry="29" fill="#ffffff" opacity="0.65"/>

  <!-- Hügel im Hintergrund -->
  <ellipse cx="300" cy="400" rx="300" ry="70" fill="#78350f" opacity="0.4"/>
  <ellipse cx="600" cy="420" rx="320" ry="80" fill="#92400e" opacity="0.4"/>

  <!-- Wiese -->
  <rect y="410" width="800" height="190" fill="#84cc16"/>
  <rect y="440" width="800" height="160" fill="#65a30d" opacity="0.4"/>

  <!-- Großer Herbstbaum links (orange/rot) -->
  <rect x="100" y="300" width="50" height="220" fill="#78350f"/>
  <rect x="102" y="302" width="46" height="216" fill="#92400e"/>

  <!-- Baumkrone (mehrfarbig Herbst) -->
  <circle cx="125" cy="270" r="95" fill="#f97316" opacity="0.85"/>
  <circle cx="85" cy="235" r="72" fill="#fb923c" opacity="0.85"/>
  <circle cx="165" cy="230" r="78" fill="#ea580c" opacity="0.85"/>
  <circle cx="70" cy="290" r="60" fill="#f97316" opacity="0.8"/>
  <circle cx="180" cy="285" r="65" fill="#dc2626" opacity="0.8"/>
  <circle cx="125" cy="320" r="55" fill="#fb923c" opacity="0.75"/>

  <!-- Blätter-Details -->
  <circle cx="95" cy="255" r="10" fill="#dc2626"/>
  <circle cx="140" cy="245" r="9" fill="#ea580c"/>
  <circle cx="155" cy="275" r="11" fill="#f97316"/>
  <circle cx="110" cy="300" r="8" fill="#fb923c"/>

  <!-- Mittlerer Herbstbaum (gelb/orange) -->
  <rect x="360" y="320" width="45" height="200" fill="#78350f"/>
  <rect x="362" y="322" width="41" height="196" fill="#92400e"/>

  <!-- Baumkrone -->
  <circle cx="382.5" cy="290" r="85" fill="#fbbf24" opacity="0.85"/>
  <circle cx="345" cy="260" r="65" fill="#fde047" opacity="0.85"/>
  <circle cx="420" cy="255" r="70" fill="#f59e0b" opacity="0.85"/>
  <circle cx="335" cy="305" r="55" fill="#fbbf24" opacity="0.8"/>
  <circle cx="430" cy="300" r="60" fill="#fb923c" opacity="0.8"/>

  <!-- Blätter-Details -->
  <circle cx="365" cy="275" r="9" fill="#f59e0b"/>
  <circle cx="400" cy="268" r="10" fill="#fde047"/>
  <circle cx="385" cy="310" r="8" fill="#fb923c"/>

  <!-- Kleiner Herbstbaum rechts (rot) -->
  <rect x="620" y="350" width="35" height="170" fill="#78350f"/>
  <rect x="622" y="352" width="31" height="166" fill="#92400e"/>

  <!-- Baumkrone -->
  <circle cx="637.5" cy="330" r="65" fill="#dc2626" opacity="0.85"/>
  <circle cx="610" cy="305" r="50" fill="#ef4444" opacity="0.85"/>
  <circle cx="665" cy="300" r="55" fill="#b91c1c" opacity="0.85"/>
  <circle cx="605" cy="345" r="45" fill="#f87171" opacity="0.8"/>
  <circle cx="670" cy="340" r="48" fill="#dc2626" opacity="0.8"/>

  <!-- Blätter-Details -->
  <circle cx="625" cy="315" r="8" fill="#ef4444"/>
  <circle cx="650" cy="325" r="7" fill="#b91c1c"/>

  <!-- Bauernhaus in der Mitte -->
  <rect x="250" y="380" width="140" height="110" fill="#fef3c7"/>

  <!-- Fachwerk -->
  <line x1="270" y1="380" x2="270" y2="490" stroke="#78350f" stroke-width="5"/>
  <line x1="330" y1="380" x2="330" y2="490" stroke="#78350f" stroke-width="5"/>
  <line x1="250" y1="425" x2="390" y2="425" stroke="#78350f" stroke-width="5"/>
  <line x1="270" y1="425" x2="330" y2="380" stroke="#78350f" stroke-width="4"/>
  <line x1="330" y1="425" x2="270" y2="380" stroke="#78350f" stroke-width="4"/>

  <!-- Dach -->
  <path d="M 240 380 L 320 320 L 400 380 Z" fill="#7c2d12"/>
  <path d="M 245 380 L 320 325 L 395 380 Z" fill="#92400e"/>

  <!-- Schornstein mit Rauch -->
  <rect x="345" y="335" width="20" height="45" fill="#7c2d12"/>
  <rect x="343" y="330" width="24" height="8" fill="#78350f"/>
  <ellipse cx="355" cy="320" rx="9" ry="7" fill="#cbd5e1" opacity="0.6"/>
  <ellipse cx="353" cy="308" rx="11" ry="8" fill="#cbd5e1" opacity="0.5"/>
  <ellipse cx="356" cy="295" rx="13" ry="9" fill="#cbd5e1" opacity="0.4"/>

  <!-- Fenster -->
  <rect x="275" y="400" width="35" height="40" fill="#93c5fd"/>
  <line x1="292.5" y1="400" x2="292.5" y2="440" stroke="#475569" stroke-width="2"/>
  <line x1="275" y1="420" x2="310" y2="420" stroke="#475569" stroke-width="2"/>

  <rect x="330" y="400" width="35" height="40" fill="#93c5fd"/>
  <line x1="347.5" y1="400" x2="347.5" y2="440" stroke="#475569" stroke-width="2"/>
  <line x1="330" y1="420" x2="365" y2="420" stroke="#475569" stroke-width="2"/>

  <!-- Tür -->
  <rect x="290" y="450" width="35" height="40" fill="#92400e"/>
  <circle cx="318" cy="470" r="2.5" fill="#fbbf24"/>

  <!-- Fallende Herbstblätter (viele!) -->
  <g>
    <!-- Blatt 1 - rot -->
    <ellipse cx="200" cy="320" rx="14" ry="20" fill="#ef4444" transform="rotate(25 200 320)"/>
    <line x1="200" y1="320" x2="205" y2="335" stroke="#b91c1c" stroke-width="2"/>

    <!-- Blatt 2 - orange -->
    <ellipse cx="480" cy="280" rx="12" ry="18" fill="#f97316" transform="rotate(-15 480 280)"/>
    <line x1="480" y1="280" x2="485" y2="293" stroke="#c2410c" stroke-width="1.8"/>

    <!-- Blatt 3 - gelb -->
    <ellipse cx="580" cy="370" rx="15" ry="21" fill="#fbbf24" transform="rotate(45 580 370)"/>
    <line x1="580" y1="370" x2="575" y2="385" stroke="#d97706" stroke-width="2"/>

    <!-- Blatt 4 - dunkelorange -->
    <ellipse cx="150" cy="430" rx="13" ry="19" fill="#fb923c" transform="rotate(-30 150 430)"/>
    <line x1="150" y1="430" x2="155" y2="445" stroke="#c2410c" stroke-width="1.8"/>

    <!-- Blatt 5 - rot -->
    <ellipse cx="650" cy="240" rx="14" ry="20" fill="#dc2626" transform="rotate(10 650 240)"/>
    <line x1="650" y1="240" x2="645" y2="255" stroke="#991b1b" stroke-width="2"/>

    <!-- Blatt 6 - orange -->
    <ellipse cx="300" cy="360" rx="12" ry="17" fill="#ea580c" transform="rotate(-40 300 360)"/>
    <line x1="300" y1="360" x2="305" y2="373" stroke="#c2410c" stroke-width="1.8"/>

    <!-- Blatt 7 - gelb -->
    <ellipse cx="540" cy="410" rx="13" ry="18" fill="#fde047" transform="rotate(20 540 410)"/>
    <line x1="540" y1="410" x2="535" y2="423" stroke="#f59e0b" stroke-width="1.8"/>

    <!-- Blatt 8 - dunkelrot -->
    <ellipse cx="420" cy="350" rx="11" ry="16" fill="#b91c1c" transform="rotate(-25 420 350)"/>
    <line x1="420" y1="350" x2="425" y2="362" stroke="#7f1d1d" stroke-width="1.5"/>

    <!-- Blatt 9 - orange -->
    <ellipse cx="250" cy="500" rx="14" ry="19" fill="#f97316" transform="rotate(35 250 500)"/>
    <line x1="250" y1="500" x2="245" y2="514" stroke="#c2410c" stroke-width="2"/>

    <!-- Blatt 10 - gelb -->
    <ellipse cx="690" cy="420" rx="12" ry="18" fill="#fbbf24" transform="rotate(-20 690 420)"/>
    <line x1="690" y1="420" x2="695" y2="433" stroke="#d97706" stroke-width="1.8"/>

    <!-- Blatt 11 - rot -->
    <ellipse cx="380" cy="470" rx="13" ry="19" fill="#ef4444" transform="rotate(15 380 470)"/>
    <line x1="380" y1="470" x2="375" y2="484" stroke="#b91c1c" stroke-width="1.8"/>

    <!-- Blatt 12 - dunkelorange -->
    <ellipse cx="520" cy="320" rx="11" ry="16" fill="#ea580c" transform="rotate(-35 520 320)"/>
    <line x1="520" y1="320" x2="525" y2="332" stroke="#c2410c" stroke-width="1.5"/>
  </g>

  <!-- Blätterhaufen am Boden -->
  <ellipse cx="180" cy="555" rx="45" ry="18" fill="#f97316" opacity="0.7"/>
  <ellipse cx="185" cy="550" rx="35" ry="14" fill="#fb923c" opacity="0.8"/>
  <ellipse cx="175" cy="558" rx="30" ry="12" fill="#ea580c" opacity="0.7"/>

  <ellipse cx="500" cy="560" rx="50" ry="20" fill="#fbbf24" opacity="0.7"/>
  <ellipse cx="505" cy="555" rx="38" ry="15" fill="#fde047" opacity="0.8"/>
  <ellipse cx="495" cy="563" rx="35" ry="13" fill="#f59e0b" opacity="0.7"/>

  <!-- Vogelschwarm (Zugvögel) -->
  <path d="M 100 160 Q 115 155 130 160" stroke="#1e293b" stroke-width="2.5" fill="none"/>
  <path d="M 150 180 Q 165 175 180 180" stroke="#1e293b" stroke-width="2.5" fill="none"/>
  <path d="M 120 140 Q 135 135 150 140" stroke="#1e293b" stroke-width="2.5" fill="none"/>
  <path d="M 170 200 Q 185 195 200 200" stroke="#1e293b" stroke-width="2.5" fill="none"/>
  <path d="M 90 175 Q 105 170 120 175" stroke="#1e293b" stroke-width="2.5" fill="none"/>
  <path d="M 190 160 Q 205 155 220 160" stroke="#1e293b" stroke-width="2.5" fill="none"/>
  <path d="M 210 185 Q 225 180 240 185" stroke="#1e293b" stroke-width="2.5" fill="none"/>
  <path d="M 140 195 Q 155 190 170 195" stroke="#1e293b" stroke-width="2.5" fill="none"/>

  <!-- Emoji-Dekoration: Herbstbeginn / bunte Bäume -->
  <!-- Herbstblätter 🍂🍁 (fallend) -->
  <text x="175" y="330" font-size="24" opacity="0.85">🍁</text>
  <text x="455" y="290" font-size="22" opacity="0.8">🍂</text>
  <text x="555" y="380" font-size="26" opacity="0.85">🍁</text>
  <text x="125" y="440" font-size="20" opacity="0.75">🍂</text>
  <text x="625" y="250" font-size="24" opacity="0.8">🍁</text>
  <text x="275" y="370" font-size="22" opacity="0.75">🍂</text>
  <text x="515" y="420" font-size="20" opacity="0.7">🍁</text>
  <text x="395" y="360" font-size="18" opacity="0.65">🍂</text>
  <text x="225" y="510" font-size="24" opacity="0.8">🍁</text>
  <text x="665" y="430" font-size="22" opacity="0.75">🍂</text>
  <text x="355" y="480" font-size="20" opacity="0.7">🍁</text>

  <!-- Herbstbäume 🌳 -->
  <text x="85" y="320" font-size="28" opacity="0.35">🌳</text>
  <text x="345" y="345" font-size="26" opacity="0.35">🌳</text>
  <text x="605" y="370" font-size="24" opacity="0.35">🌳</text>

  <!-- Sonne 🌤️ -->
  <text x="615" y="185" font-size="32" opacity="0.4">🌤️</text>

  <!-- Zugvögel 🐦 -->
  <text x="90" y="170" font-size="16" opacity="0.5">🐦</text>
  <text x="140" y="190" font-size="14" opacity="0.5">🐦</text>
  <text x="180" y="210" font-size="14" opacity="0.5">🐦</text>
  <text x="110" y="150" font-size="14" opacity="0.5">🐦</text>

  <!-- Blätterhaufen 🍂 (am Boden) -->
  <text x="155" y="570" font-size="20" opacity="0.6">🍂</text>
  <text x="475" y="575" font-size="20" opacity="0.6">🍂</text>
</svg>
