<svg xmlns="http://www.w3.org/2000/svg" viewBox="0 0 600 800" role="img" aria-label="April - Aprilwetter Portrait">
  <defs>
    <linearGradient id="aprilPortraitSky" x1="0%" y1="0%" x2="0%" y2="100%">
      <stop offset="0%" style="stop-color:#94a3b8;stop-opacity:1" />
      <stop offset="50%" style="stop-color:#cbd5e1;stop-opacity:1" />
      <stop offset="100%" style="stop-color:#e2e8f0;stop-opacity:1" />
    </linearGradient>
  </defs>

  <rect width="600" height="800" fill="url(#aprilPortraitSky)"/>

  <!-- Sonne oben links mit Sonnenstrahlen -->
  <g id="sunLeft">
    <!-- Sonnenstrahlen -->
    <line x1="80" y1="35" x2="80" y2="15" stroke="#fbbf24" stroke-width="3" stroke-linecap="round"/>
    <line x1="108" y1="47" x2="120" y2="35" stroke="#fbbf24" stroke-width="3" stroke-linecap="round"/>
    <line x1="120" y1="75" x2="140" y2="75" stroke="#fbbf24" stroke-width="3" stroke-linecap="round"/>
    <line x1="108" y1="103" x2="120" y2="115" stroke="#fbbf24" stroke-width="3" stroke-linecap="round"/>
    <line x1="80" y1="115" x2="80" y2="135" stroke="#fbbf24" stroke-width="3" stroke-linecap="round"/>
    <line x1="52" y1="103" x2="40" y2="115" stroke="#fbbf24" stroke-width="3" stroke-linecap="round"/>
    <line x1="40" y1="75" x2="20" y2="75" stroke="#fbbf24" stroke-width="3" stroke-linecap="round"/>
    <line x1="52" y1="47" x2="40" y2="35" stroke="#fbbf24" stroke-width="3" stroke-linecap="round"/>

    <!-- Sonnenkern -->
    <circle cx="80" cy="75" r="30" fill="#fef08a" opacity="0.7"/>
    <circle cx="80" cy="75" r="24" fill="#fde047" opacity="0.8"/>
  </g>

  <!-- Regenwolken -->
  <ellipse cx="200" cy="120" rx="110" ry="65" fill="#9ca3af" opacity="0.85"/>
  <ellipse cx="280" cy="130" rx="95" ry="58" fill="#94a3b8" opacity="0.85"/>
  <ellipse cx="150" cy="135" rx="88" ry="55" fill="#9ca3af" opacity="0.85"/>
  <ellipse cx="450" cy="150" rx="105" ry="62" fill="#94a3b8" opacity="0.8"/>
  <ellipse cx="520" cy="145" rx="92" ry="56" fill="#9ca3af" opacity="0.8"/>

  <!-- Sonne durchbrechend -->
  <circle cx="520" cy="80" r="60" fill="#fef08a" opacity="0.6"/>
  <circle cx="520" cy="80" r="48" fill="#fde047" opacity="0.7"/>

  <!-- Regenbogen -->
  <path d="M 50 230 Q 300 120 550 230" stroke="#ef4444" stroke-width="15" fill="none" opacity="0.7"/>
  <path d="M 58 238 Q 300 135 542 238" stroke="#f97316" stroke-width="15" fill="none" opacity="0.7"/>
  <path d="M 66 246 Q 300 150 534 246" stroke="#fbbf24" stroke-width="15" fill="none" opacity="0.7"/>
  <path d="M 74 254 Q 300 165 526 254" stroke="#84cc16" stroke-width="15" fill="none" opacity="0.7"/>
  <path d="M 82 262 Q 300 180 518 262" stroke="#3b82f6" stroke-width="15" fill="none" opacity="0.7"/>
  <path d="M 90 270 Q 300 195 510 270" stroke="#8b5cf6" stroke-width="15" fill="none" opacity="0.7"/>

  <!-- Wiese -->
  <ellipse cx="300" cy="720" rx="450" ry="95" fill="#4ade80"/>
  <rect x="0" y="650" width="600" height="150" fill="#4ade80"/>

  <!-- Bauernhaus -->
  <rect x="230" y="480" width="140" height="120" fill="#c85542"/>
  <polygon points="300,420 215,480 385,480" fill="#8b5433"/>
  <path d="M 215,480 Q 270,460 300,456 Q 330,460 385,480" fill="#ffffff" opacity="0.4"/>
  <rect x="255" y="505" width="28" height="32" fill="#ffd98e"/>
  <rect x="268" y="505" width="2" height="32" fill="#6b4423"/>
  <rect x="255" y="520" width="28" height="2" fill="#6b4423"/>
  <rect x="297" y="505" width="28" height="32" fill="#ffd98e"/>
  <rect x="310" y="505" width="2" height="32" fill="#6b4423"/>
  <rect x="297" y="520" width="28" height="2" fill="#6b4423"/>
  <rect x="273" y="555" width="34" height="45" fill="#6a4a30"/>
  <circle cx="300" cy="578" r="2.5" fill="#d4a020"/>

  <!-- Schornstein -->
  <rect x="330" y="432" width="16" height="48" fill="#a85543"/>
  <ellipse cx="338" cy="423" rx="8" ry="11" fill="#d8d8d8" opacity="0.6"/>

  <!-- Regenlinien -->
  <g opacity="0.4">
    <line x1="120" y1="180" x2="115" y2="240" stroke="#64748b" stroke-width="2"/>
    <line x1="150" y1="190" x2="145" y2="250" stroke="#64748b" stroke-width="2"/>
    <line x1="180" y1="185" x2="175" y2="245" stroke="#64748b" stroke-width="2"/>
    <line x1="210" y1="195" x2="205" y2="255" stroke="#64748b" stroke-width="2"/>
    <line x1="240" y1="200" x2="235" y2="260" stroke="#64748b" stroke-width="2"/>
    <line x1="270" y1="205" x2="265" y2="265" stroke="#64748b" stroke-width="2"/>
    <line x1="300" y1="210" x2="295" y2="270" stroke="#64748b" stroke-width="2"/>
    <line x1="380" y1="215" x2="375" y2="275" stroke="#64748b" stroke-width="2"/>
    <line x1="420" y1="220" x2="415" y2="280" stroke="#64748b" stroke-width="2"/>
    <line x1="460" y1="215" x2="455" y2="275" stroke="#64748b" stroke-width="2"/>
  </g>

  <!-- Blumen (Frühling) -->
  <g>
    <ellipse cx="100" cy="690" rx="7" ry="13" fill="#fbbf24"/>
    <line x1="100" y1="703" x2="100" y2="725" stroke="#15803d" stroke-width="2.5"/>
    <ellipse cx="130" cy="695" rx="7" ry="13" fill="#f97316"/>
    <line x1="130" y1="708" x2="130" y2="730" stroke="#15803d" stroke-width="2.5"/>
    <ellipse cx="490" cy="685" rx="7" ry="13" fill="#ec4899"/>
    <line x1="490" y1="698" x2="490" y2="720" stroke="#15803d" stroke-width="2.5"/>
    <ellipse cx="520" cy="692" rx="7" ry="13" fill="#f43f5e"/>
    <line x1="520" y1="705" x2="520" y2="727" stroke="#15803d" stroke-width="2.5"/>
  </g>

  <!-- Baum -->
  <rect x="80" y="500" width="30" height="200" fill="#78350f"/>
  <circle cx="95" cy="475" r="75" fill="#22c55e" opacity="0.8"/>
  <circle cx="65" cy="455" r="60" fill="#4ade80" opacity="0.8"/>
  <circle cx="125" cy="460" r="65" fill="#22c55e" opacity="0.8"/>

  <!-- Pfütze -->
  <ellipse cx="350" cy="685" rx="60" ry="20" fill="#60a5fa" opacity="0.6"/>

  <!-- Emoji-Dekoration -->
  <text x="270" y="360" font-size="40" opacity="0.8">🌈</text>
  <text x="200" y="240" font-size="24" opacity="0.5">💧</text>
  <text x="390" y="260" font-size="24" opacity="0.5">💧</text>
  <text x="105" y="710" font-size="26" opacity="0.8">🌼</text>
  <text x="480" y="260" font-size="18" opacity="0.5">🐦</text>
</svg>
