<svg xmlns="http://www.w3.org/2000/svg" viewBox="0 0 600 800" role="img" aria-label="Dezember - Winterwunderland Portrait">
  <defs>
    <linearGradient id="decemberPortraitSky" x1="0%" y1="0%" x2="0%" y2="100%">
      <stop offset="0%" style="stop-color:#0c4a6e;stop-opacity:1" />
      <stop offset="50%" style="stop-color:#075985;stop-opacity:1" />
      <stop offset="100%" style="stop-color:#0369a1;stop-opacity:1" />
    </linearGradient>
    <radialGradient id="moonGlowDec" cx="50%" cy="50%" r="50%">
      <stop offset="0%" style="stop-color:#ffffcc;stop-opacity:1" />
      <stop offset="100%" style="stop-color:#ffff99;stop-opacity:0.3" />
    </radialGradient>
  </defs>

  <!-- Nachthimmel -->
  <rect width="600" height="800" fill="url(#decemberPortraitSky)"/>

  <!-- Vollmond -->
  <circle cx="100" cy="100" r="70" fill="url(#moonGlowDec)"/>
  <circle cx="100" cy="100" r="60" fill="#ffffee"/>
  <circle cx="90" cy="95" r="9" fill="#f0f0d0" opacity="0.5"/>
  <circle cx="110" cy="105" r="7" fill="#f0f0d0" opacity="0.5"/>

  <!-- Sterne -->
  <circle cx="480" cy="80" r="3" fill="#ffffff"/>
  <circle cx="320" cy="60" r="2.5" fill="#ffffcc"/>
  <circle cx="540" cy="110" r="3" fill="#ffffff"/>
  <circle cx="220" cy="90" r="2.5" fill="#ffffcc"/>
  <circle cx="450" cy="140" r="3" fill="#ffffff"/>
  <circle cx="280" cy="120" r="2.5" fill="#ffffcc"/>
  <circle cx="520" cy="180" r="3" fill="#ffffff"/>

  <!-- Funkelnde Sterne -->
  <g>
    <line x1="380" y1="95" x2="380" y2="107" stroke="#ffffcc" stroke-width="1.5"/>
    <line x1="374" y1="101" x2="386" y2="101" stroke="#ffffcc" stroke-width="1.5"/>
  </g>
  <g>
    <line x1="180" y1="140" x2="180" y2="150" stroke="#ffffff" stroke-width="1.2"/>
    <line x1="175" y1="145" x2="185" y2="145" stroke="#ffffff" stroke-width="1.2"/>
  </g>

  <!-- Schneehügel -->
  <ellipse cx="300" cy="570" rx="420" ry="105" fill="#e8f0f8"/>
  <ellipse cx="150" cy="590" rx="260" ry="82" fill="#dce8f0"/>
  <ellipse cx="450" cy="580" rx="240" ry="88" fill="#d0e0e8"/>

  <!-- Verschneiter Boden -->
  <rect x="0" y="540" width="600" height="260" fill="#f0f8ff"/>

  <!-- Schneeverwehungen -->
  <ellipse cx="200" cy="670" rx="110" ry="35" fill="#e8f4fc"/>
  <ellipse cx="430" cy="680" rx="130" ry="40" fill="#e8f4fc"/>
  <ellipse cx="320" cy="740" rx="160" ry="45" fill="#e8f4fc"/>

  <!-- Verschneite Kirche (zentral) -->
  <rect x="240" y="400" width="120" height="170" fill="#e8dcc0"/>
  <rect x="244" y="404" width="112" height="162" fill="#f5ecd8"/>
  <polygon points="300,330 230,400 370,400" fill="#8b4433"/>
  <polygon points="300,330 238,395 362,395" fill="#a85543"/>
  <path d="M 230,400 Q 275,377 300,374 Q 325,377 370,400" fill="#ffffff" opacity="0.95"/>

  <!-- Kirchturm -->
  <rect x="280" y="270" width="40" height="130" fill="#e8dcc0"/>
  <rect x="283" y="273" width="34" height="125" fill="#f5ecd8"/>
  <polygon points="300,210 270,270 330,270" fill="#8b4433"/>
  <polygon points="300,210 275,265 325,265" fill="#a85543"/>
  <rect x="297" y="185" width="6" height="30" fill="#6a4a30"/>
  <rect x="287" y="198" width="26" height="4" fill="#6a4a30"/>

  <!-- Kirchenfenster -->
  <path d="M 262 440 L 262 480 L 275 480 L 275 440 Q 268.5 432 262 440" fill="#ffd700" opacity="0.9"/>
  <path d="M 287 440 L 287 480 L 300 480 L 300 440 Q 293.5 432 287 440" fill="#ffd700" opacity="0.9"/>
  <path d="M 312 440 L 312 480 L 325 480 L 325 440 Q 318.5 432 312 440" fill="#ffd700" opacity="0.9"/>

  <!-- Kirchentür -->
  <rect x="287" y="535" width="26" height="35" fill="#6a4a30"/>
  <path d="M 287 535 L 287 565 L 313 565 L 313 535 Q 300 528 287 535" fill="#7a5a40"/>

  <!-- Verschneite Tannen links -->
  <g>
    <polygon points="110,540 80,610 140,610" fill="#1a3a1a"/>
    <polygon points="110,560 90,610 130,610" fill="#2a4a2a"/>
    <rect x="105" y="610" width="10" height="45" fill="#4a3520"/>
    <ellipse cx="110" cy="545" rx="28" ry="9" fill="#ffffff" opacity="0.95"/>
    <ellipse cx="110" cy="565" rx="24" ry="8" fill="#ffffff" opacity="0.95"/>
  </g>

  <!-- Verschneite Tannen rechts -->
  <g>
    <polygon points="500,560 470,630 530,630" fill="#1a3a1a"/>
    <polygon points="500,580 480,630 520,630" fill="#2a4a2a"/>
    <rect x="495" y="630" width="10" height="40" fill="#4a3520"/>
    <ellipse cx="500" cy="565" rx="26" ry="8" fill="#ffffff" opacity="0.95"/>
    <ellipse cx="500" cy="585" rx="22" ry="7" fill="#ffffff" opacity="0.95"/>
  </g>

  <!-- Schneemänner -->
  <g>
    <!-- Schneemann links -->
    <circle cx="180" cy="680" r="28" fill="#ffffff"/>
    <circle cx="180" cy="645" r="22" fill="#ffffff"/>
    <circle cx="180" cy="618" r="17" fill="#ffffff"/>
    <circle cx="173" cy="614" r="2.5" fill="#000000"/>
    <circle cx="187" cy="614" r="2.5" fill="#000000"/>
    <polygon points="180,618 175,620 180,622" fill="#ff6600"/>
    <circle cx="180" cy="638" r="2" fill="#000000"/>
    <circle cx="180" cy="648" r="2" fill="#000000"/>
    <circle cx="180" cy="670" r="2.5" fill="#000000"/>
    <line x1="164" y1="645" x2="145" y2="635" stroke="#4a3020" stroke-width="3.5"/>
    <line x1="196" y1="645" x2="215" y2="635" stroke="#4a3020" stroke-width="3.5"/>
    <rect x="173" cy="605" width="14" height="7" fill="#000000"/>
    <ellipse cx="180" cy="631" rx="20" ry="6" fill="#cc3333"/>

    <!-- Schneemann rechts -->
    <circle cx="420" cy="695" r="30" fill="#ffffff"/>
    <circle cx="420" cy="658" r="24" fill="#ffffff"/>
    <circle cx="420" cy="628" r="18" fill="#ffffff"/>
    <circle cx="412" cy="624" r="2.5" fill="#000000"/>
    <circle cx="428" cy="624" r="2.5" fill="#000000"/>
    <polygon points="420,628 415,630 420,632" fill="#ff6600"/>
    <circle cx="420" cy="650" r="2" fill="#000000"/>
    <circle cx="420" cy="660" r="2" fill="#000000"/>
    <circle cx="420" cy="683" r="2.5" fill="#000000"/>
    <line x1="403" y1="658" x2="382" y2="648" stroke="#4a3020" stroke-width="3.5"/>
    <line x1="437" y1="658" x2="458" y2="648" stroke="#4a3020" stroke-width="3.5"/>
    <rect x="413" cy="615" width="14" height="7" fill="#000000"/>
    <ellipse cx="420" cy="642" rx="22" ry="6" fill="#3b82f6"/>
  </g>

  <!-- Schneeflocken fallen -->
  <g opacity="0.9">
    <g transform="translate(260, 340)">
      <circle cx="0" cy="0" r="4" fill="#ffffff"/>
      <line x1="-6" y1="0" x2="6" y2="0" stroke="#ffffff" stroke-width="1"/>
      <line x1="0" y1="-6" x2="0" y2="6" stroke="#ffffff" stroke-width="1"/>
      <line x1="-4" y1="-4" x2="4" y2="4" stroke="#ffffff" stroke-width="0.6"/>
      <line x1="4" y1="-4" x2="-4" y2="4" stroke="#ffffff" stroke-width="0.6"/>
    </g>
    <g transform="translate(450, 400)">
      <circle cx="0" cy="0" r="4" fill="#ffffff"/>
      <line x1="-6" y1="0" x2="6" y2="0" stroke="#ffffff" stroke-width="1"/>
      <line x1="0" y1="-6" x2="0" y2="6" stroke="#ffffff" stroke-width="1"/>
      <line x1="-4" y1="-4" x2="4" y2="4" stroke="#ffffff" stroke-width="0.6"/>
      <line x1="4" y1="-4" x2="-4" y2="4" stroke="#ffffff" stroke-width="0.6"/>
    </g>
    <circle cx="340" cy="460" r="3.5" fill="#ffffff"/>
    <circle cx="150" cy="520" r="3" fill="#ffffff"/>
    <circle cx="520" cy="490" r="3.5" fill="#ffffff"/>
    <circle cx="380" cy="560" r="3" fill="#ffffff"/>
  </g>

  <!-- Emoji-Dekoration -->
  <text x="60" y="110" font-size="34" opacity="0.5">🌙</text>
  <text x="350" y="110" font-size="24" opacity="0.75">✨</text>
  <text x="270" y="365" font-size="26" opacity="0.8">❄️</text>
  <text x="420" y="425" font-size="26" opacity="0.8">❄️</text>
  <text x="85" y="625" font-size="28" opacity="0.8">🎄</text>
  <text x="470" y="645" font-size="26" opacity="0.8">🎄</text>
  <text x="145" y="665" font-size="24" opacity="0.4">⛄</text>
  <text x="385" y="680" font-size="24" opacity="0.4">⛄</text>
</svg>
