<svg xmlns="http://www.w3.org/2000/svg" viewBox="0 0 600 800" role="img" aria-label="Februar - Winterdorf Portrait">
  <defs>
    <linearGradient id="februaryPortraitSky" x1="0%" y1="0%" x2="0%" y2="100%">
      <stop offset="0%" style="stop-color:#4a5f7f;stop-opacity:1" />
      <stop offset="50%" style="stop-color:#6a7f9f;stop-opacity:1" />
      <stop offset="100%" style="stop-color:#8a9fbf;stop-opacity:1" />
    </linearGradient>
  </defs>

  <!-- Winterhimmel -->
  <rect width="600" height="800" fill="url(#februaryPortraitSky)"/>

  <!-- Schneehügel im Hintergrund -->
  <ellipse cx="300" cy="600" rx="400" ry="120" fill="#e0e8f0"/>
  <ellipse cx="150" cy="620" rx="250" ry="95" fill="#d8e4f0"/>
  <ellipse cx="450" cy="610" rx="220" ry="100" fill="#dce8f0"/>

  <!-- Schneebedeckter Boden -->
  <rect x="0" y="580" width="600" height="220" fill="#f0f4f8"/>

  <!-- Verschneite Kirche (zentral) -->
  <rect x="230" y="380" width="140" height="200" fill="#e8dcc0"/>
  <rect x="235" y="385" width="130" height="190" fill="#f5ecd8"/>

  <!-- Kirchendach (steiler) -->
  <polygon points="300,300 210,380 390,380" fill="#8b4433"/>
  <polygon points="300,300 220,375 380,375" fill="#a85543"/>
  <path d="M 210,380 Q 260,355 300,350 Q 340,355 390,380" fill="#ffffff" opacity="0.95"/>

  <!-- Kirchturm -->
  <rect x="275" y="240" width="50" height="140" fill="#e8dcc0"/>
  <rect x="278" y="243" width="44" height="135" fill="#f5ecd8"/>
  <polygon points="300,180 260,240 340,240" fill="#8b4433"/>
  <polygon points="300,180 265,235 335,235" fill="#a85543"/>

  <!-- Turmspitze/Kreuz -->
  <rect x="297" y="150" width="6" height="35" fill="#6a4a30"/>
  <rect x="285" y="165" width="30" height="5" fill="#6a4a30"/>

  <!-- Kirchenfenster (gotisch) -->
  <path d="M 265 420 L 265 465 L 280 465 L 280 420 Q 272.5 410 265 420" fill="#4a6a9a"/>
  <path d="M 295 420 L 295 465 L 310 465 L 310 420 Q 302.5 410 295 420" fill="#4a6a9a"/>
  <path d="M 325 420 L 325 465 L 340 465 L 340 420 Q 332.5 410 325 420" fill="#4a6a9a"/>

  <!-- Turmuhr -->
  <circle cx="300" cy="290" r="18" fill="#fffef0"/>
  <circle cx="300" cy="290" r="16" fill="#faf8e8"/>
  <line x1="300" y1="290" x2="300" y2="280" stroke="#2a2a2a" stroke-width="2"/>
  <line x1="300" y1="290" x2="308" y2="290" stroke="#2a2a2a" stroke-width="1.5"/>

  <!-- Kirchentür -->
  <rect x="282" y="530" width="36" height="50" fill="#6a4a30"/>
  <path d="M 282 530 L 282 575 L 318 575 L 318 530 Q 300 520 282 530" fill="#7a5a40"/>
  <circle cx="310" cy="555" r="2.5" fill="#d4a020"/>

  <!-- Bauernhaus links -->
  <rect x="60" y="440" width="130" height="120" fill="#c85542"/>
  <polygon points="125,395 45,440 205,440" fill="#8b5433"/>
  <path d="M 45,440 Q 85,425 125,422 Q 165,425 205,440" fill="#ffffff" opacity="0.95"/>

  <!-- Fenster mit warmem Licht -->
  <rect x="75" y="460" width="28" height="32" fill="#ffd98e"/>
  <rect x="88" y="460" width="2" height="32" fill="#6b4423"/>
  <rect x="75" y="475" width="28" height="2" fill="#6b4423"/>

  <rect x="130" y="460" width="28" height="32" fill="#ffd98e"/>
  <rect x="143" y="460" width="2" height="32" fill="#6b4423"/>
  <rect x="130" y="475" width="28" height="2" fill="#6b4423"/>

  <!-- Tür -->
  <rect x="100" y="515" width="32" height="45" fill="#6a4a30"/>
  <circle cx="125" cy="538" r="2" fill="#d4a020"/>

  <!-- Schornstein mit Rauch -->
  <rect x="155" y="405" width="18" height="35" fill="#a85543"/>
  <ellipse cx="164" cy="395" rx="9" ry="12" fill="#d8d8d8" opacity="0.7"/>
  <ellipse cx="167" cy="380" rx="11" ry="15" fill="#d8d8d8" opacity="0.5"/>
  <ellipse cx="171" cy="362" rx="13" ry="18" fill="#d8d8d8" opacity="0.3"/>

  <!-- Bauernhaus rechts -->
  <rect x="410" y="460" width="120" height="110" fill="#a84532"/>
  <polygon points="470,415 395,460 545,460" fill="#6b4423"/>
  <path d="M 395,460 Q 435,445 470,442 Q 505,445 545,460" fill="#ffffff" opacity="0.95"/>

  <!-- Fenster -->
  <rect x="425" y="478" width="26" height="30" fill="#ffd98e"/>
  <rect x="437" y="478" width="2" height="30" fill="#6b4423"/>
  <rect x="425" y="492" width="26" height="2" fill="#6b4423"/>

  <rect x="475" y="478" width="26" height="30" fill="#ffd98e"/>
  <rect x="487" y="478" width="2" height="30" fill="#6b4423"/>
  <rect x="475" y="492" width="26" height="2" fill="#6b4423"/>

  <!-- Tür -->
  <rect x="448" y="525" width="30" height="45" fill="#5a3a20"/>

  <!-- Schornstein -->
  <rect x="495" y="425" width="16" height="35" fill="#8b4433"/>
  <ellipse cx="503" cy="416" rx="8" ry="11" fill="#d8d8d8" opacity="0.7"/>
  <ellipse cx="506" cy="402" rx="10" ry="14" fill="#d8d8d8" opacity="0.5"/>

  <!-- Verschneite Tannen vorne links -->
  <g>
    <polygon points="100,620 70,690 130,690" fill="#1a3a1a"/>
    <polygon points="100,640 80,690 120,690" fill="#2a4a2a"/>
    <rect x="95" y="690" width="10" height="40" fill="#4a3520"/>
    <ellipse cx="100" cy="625" rx="28" ry="9" fill="#ffffff" opacity="0.9"/>
    <ellipse cx="100" cy="645" rx="24" ry="8" fill="#ffffff" opacity="0.9"/>
  </g>

  <!-- Verschneite Tannen vorne rechts -->
  <g>
    <polygon points="510,640 480,710 540,710" fill="#1a3a1a"/>
    <polygon points="510,660 490,710 530,710" fill="#2a4a2a"/>
    <rect x="505" y="710" width="10" height="35" fill="#4a3520"/>
    <ellipse cx="510" cy="645" rx="26" ry="8" fill="#ffffff" opacity="0.9"/>
    <ellipse cx="510" cy="665" rx="22" ry="7" fill="#ffffff" opacity="0.9"/>
  </g>

  <!-- Schneebedeckter Weg zur Kirche -->
  <ellipse cx="300" cy="650" rx="180" ry="55" fill="#e8f0f8" opacity="0.8"/>

  <!-- Zaun -->
  <g opacity="0.8">
    <rect x="340" y="580" width="4" height="35" fill="#6a4a30"/>
    <rect x="355" y="580" width="4" height="35" fill="#6a4a30"/>
    <rect x="370" y="580" width="4" height="35" fill="#6a4a30"/>
    <rect x="335" y="595" width="45" height="3" fill="#6a4a30"/>
    <rect x="335" y="605" width="45" height="3" fill="#6a4a30"/>
  </g>

  <!-- Schneemann -->
  <g>
    <circle cx="180" cy="690" r="26" fill="#ffffff"/>
    <circle cx="180" cy="657" r="20" fill="#ffffff"/>
    <circle cx="180" cy="632" r="15" fill="#ffffff"/>

    <!-- Gesicht -->
    <circle cx="174" cy="629" r="2" fill="#000000"/>
    <circle cx="186" cy="629" r="2" fill="#000000"/>
    <polygon points="180,632 176,634 180,636" fill="#ff6600"/>

    <!-- Knöpfe -->
    <circle cx="180" cy="652" r="2" fill="#000000"/>
    <circle cx="180" cy="662" r="2" fill="#000000"/>
    <circle cx="180" cy="680" r="2.5" fill="#000000"/>

    <!-- Arme -->
    <line x1="165" y1="657" x2="148" y2="648" stroke="#4a3020" stroke-width="3"/>
    <line x1="195" y1="657" x2="212" y2="648" stroke="#4a3020" stroke-width="3"/>

    <!-- Hut -->
    <rect x="173" cy="619" width="14" height="6" fill="#000000"/>
    <rect x="169" cy="614" width="22" height="5" fill="#000000"/>

    <!-- Schal -->
    <ellipse cx="180" cy="644" rx="18" ry="5" fill="#cc3333"/>
  </g>

  <!-- Schneeflocken fallen -->
  <g opacity="0.85">
    <g transform="translate(150, 280)">
      <circle cx="0" cy="0" r="3.5" fill="#ffffff"/>
      <line x1="-5" y1="0" x2="5" y2="0" stroke="#ffffff" stroke-width="0.9"/>
      <line x1="0" y1="-5" x2="0" y2="5" stroke="#ffffff" stroke-width="0.9"/>
      <line x1="-3.5" y1="-3.5" x2="3.5" y2="3.5" stroke="#ffffff" stroke-width="0.5"/>
      <line x1="3.5" y1="-3.5" x2="-3.5" y2="3.5" stroke="#ffffff" stroke-width="0.5"/>
    </g>

    <g transform="translate(420, 350)">
      <circle cx="0" cy="0" r="3.5" fill="#ffffff"/>
      <line x1="-5" y1="0" x2="5" y2="0" stroke="#ffffff" stroke-width="0.9"/>
      <line x1="0" y1="-5" x2="0" y2="5" stroke="#ffffff" stroke-width="0.9"/>
      <line x1="-3.5" y1="-3.5" x2="3.5" y2="3.5" stroke="#ffffff" stroke-width="0.5"/>
      <line x1="3.5" y1="-3.5" x2="-3.5" y2="3.5" stroke="#ffffff" stroke-width="0.5"/>
    </g>

    <circle cx="280" cy="420" r="3" fill="#ffffff"/>
    <circle cx="90" cy="520" r="3" fill="#ffffff"/>
    <circle cx="510" cy="490" r="3" fill="#ffffff"/>
    <circle cx="340" cy="550" r="3" fill="#ffffff"/>
  </g>

  <!-- Vögel am Himmel -->
  <path d="M 80 220 Q 95 215 110 220" stroke="#4a5a6a" stroke-width="2" fill="none"/>
  <path d="M 130 245 Q 145 240 160 245" stroke="#4a5a6a" stroke-width="2" fill="none"/>

  <!-- Emoji-Dekoration: Winter-Dorf -->
  <!-- Schneeflocken ❄️ -->
  <text x="70" y="480" font-size="26" opacity="0.75">❄️</text>
  <text x="530" y="550" font-size="24" opacity="0.7">❄️</text>
  <text x="200" y="350" font-size="22" opacity="0.65">❄️</text>
  <text x="440" y="420" font-size="24" opacity="0.7">❄️</text>

  <!-- Kirche ⛪ -->
  <text x="265" y="360" font-size="28" opacity="0.4">⛪</text>

  <!-- Herzen ❤️💕 (Valentinstag) -->
  <text x="320" y="190" font-size="26" opacity="0.75">💕</text>
  <text x="220" y="225" font-size="22" opacity="0.65">❤️</text>
  <text x="530" y="280" font-size="24" opacity="0.7">💕</text>
  <text x="380" y="165" font-size="20" opacity="0.6">❤️</text>

  <!-- Vögel 🐦 -->
  <text x="60" y="250" font-size="18" opacity="0.5">🐦</text>
  <text x="115" y="270" font-size="16" opacity="0.5">🐦</text>
</svg>
