<svg xmlns="http://www.w3.org/2000/svg" viewBox="0 0 600 800" role="img" aria-label="Januar - Winterlandschaft Portrait">
  <defs>
    <linearGradient id="januaryPortraitSky" x1="0%" y1="0%" x2="0%" y2="100%">
      <stop offset="0%" style="stop-color:#2a4a6a;stop-opacity:1" />
      <stop offset="50%" style="stop-color:#4a6a8a;stop-opacity:1" />
      <stop offset="100%" style="stop-color:#6a8aaa;stop-opacity:1" />
    </linearGradient>
    <radialGradient id="moonGlowPortraitJan" cx="50%" cy="50%" r="50%">
      <stop offset="0%" style="stop-color:#ffffcc;stop-opacity:1" />
      <stop offset="100%" style="stop-color:#ffff99;stop-opacity:0.3" />
    </radialGradient>
  </defs>

  <!-- Nachthimmel -->
  <rect width="600" height="800" fill="url(#januaryPortraitSky)"/>

  <!-- Vollmond (oben rechts) -->
  <circle cx="480" cy="110" r="65" fill="url(#moonGlowPortraitJan)"/>
  <circle cx="480" cy="110" r="56" fill="#ffffee"/>
  <circle cx="470" cy="105" r="8" fill="#f0f0d0" opacity="0.5"/>
  <circle cx="490" cy="115" r="6" fill="#f0f0d0" opacity="0.5"/>
  <circle cx="475" cy="120" r="5" fill="#f0f0d0" opacity="0.5"/>

  <!-- Sterne -->
  <circle cx="90" cy="70" r="3" fill="#ffffff"/>
  <circle cx="160" cy="90" r="2.5" fill="#ffffcc"/>
  <circle cx="240" cy="60" r="3" fill="#ffffff"/>
  <circle cx="320" cy="80" r="2.5" fill="#ffffcc"/>
  <circle cx="380" cy="50" r="3" fill="#ffffff"/>
  <circle cx="120" cy="150" r="2.5" fill="#ffffcc"/>
  <circle cx="280" cy="120" r="3" fill="#ffffff"/>
  <circle cx="540" cy="70" r="2.5" fill="#ffffcc"/>
  <circle cx="210" cy="180" r="3" fill="#ffffff"/>
  <circle cx="450" cy="160" r="2.5" fill="#ffffcc"/>

  <!-- Funkelnde Sterne -->
  <g>
    <line x1="350" y1="100" x2="350" y2="112" stroke="#ffffcc" stroke-width="1.5"/>
    <line x1="344" y1="106" x2="356" y2="106" stroke="#ffffcc" stroke-width="1.5"/>
  </g>
  <g>
    <line x1="140" y1="200" x2="140" y2="210" stroke="#ffffff" stroke-width="1.2"/>
    <line x1="135" y1="205" x2="145" y2="205" stroke="#ffffff" stroke-width="1.2"/>
  </g>

  <!-- Schneehügel im Hintergrund -->
  <ellipse cx="300" cy="540" rx="380" ry="95" fill="#e8f0f8"/>
  <ellipse cx="150" cy="520" rx="220" ry="70" fill="#dce8f0"/>
  <ellipse cx="450" cy="530" rx="200" ry="75" fill="#d0e0e8"/>

  <!-- Verschneiter Boden vorne -->
  <rect x="0" y="500" width="600" height="300" fill="#f0f8ff"/>

  <!-- Schneeverwehungen -->
  <ellipse cx="180" cy="630" rx="100" ry="32" fill="#e8f4fc"/>
  <ellipse cx="420" cy="640" rx="120" ry="38" fill="#e8f4fc"/>
  <ellipse cx="300" cy="720" rx="150" ry="40" fill="#e8f4fc"/>

  <!-- Haupthaus (Bauernhaus) - Mitte -->
  <rect x="240" y="360" width="170" height="150" fill="#a84532"/>
  <rect x="245" y="365" width="160" height="140" fill="#c85542"/>
  <polygon points="325,280 220,360 430,360" fill="#6b4423"/>
  <polygon points="325,280 230,355 420,355" fill="#8b5433"/>
  <path d="M 220,360 Q 280,335 325,330 Q 370,335 430,360" fill="#ffffff" opacity="0.95"/>

  <!-- Fachwerkbalken -->
  <rect x="265" y="385" width="6" height="115" fill="#4a3020"/>
  <rect x="315" y="385" width="6" height="115" fill="#4a3020"/>
  <rect x="365" y="385" width="6" height="115" fill="#4a3020"/>
  <rect x="250" y="425" width="150" height="5" fill="#4a3020"/>
  <rect x="250" y="465" width="150" height="5" fill="#4a3020"/>

  <!-- Fenster mit warmem Licht -->
  <rect x="270" y="395" width="38" height="45" fill="#ffd98e"/>
  <rect x="288" y="395" width="2.5" height="45" fill="#6b4423"/>
  <rect x="270" y="416" width="38" height="2.5" fill="#6b4423"/>

  <rect x="332" y="395" width="38" height="45" fill="#ffd98e"/>
  <rect x="350" y="395" width="2.5" height="45" fill="#6b4423"/>
  <rect x="332" y="416" width="38" height="2.5" fill="#6b4423"/>

  <!-- Fenster im Dachgeschoss -->
  <circle cx="325" cy="315" r="15" fill="#ffc87e"/>
  <line x1="325" y1="300" x2="325" y2="330" stroke="#6b4423" stroke-width="2"/>
  <line x1="310" y1="315" x2="340" y2="315" stroke="#6b4423" stroke-width="2"/>

  <!-- Tür -->
  <rect x="298" y="460" width="50" height="50" fill="#5a3a20"/>
  <rect x="303" y="465" width="40" height="43" fill="#6a4a30"/>
  <circle cx="335" cy="487" r="3" fill="#d4a020"/>

  <!-- Schornstein mit Rauch -->
  <rect x="370" y="290" width="22" height="70" fill="#8b4433"/>
  <rect x="372" y="292" width="18" height="66" fill="#a85543"/>
  <ellipse cx="381" cy="278" rx="11" ry="16" fill="#d8d8d8" opacity="0.7"/>
  <ellipse cx="385" cy="257" rx="13" ry="19" fill="#d8d8d8" opacity="0.5"/>
  <ellipse cx="390" cy="232" rx="15" ry="22" fill="#d8d8d8" opacity="0.3"/>
  <ellipse cx="395" cy="203" rx="17" ry="25" fill="#d8d8d8" opacity="0.2"/>

  <!-- Scheune rechts -->
  <rect x="480" y="410" width="100" height="100" fill="#8b6a47"/>
  <rect x="485" y="415" width="90" height="90" fill="#9b7a57"/>
  <polygon points="530,365 470,410 590,410" fill="#5a4020"/>
  <polygon points="530,365 478,405 582,405" fill="#6a5030"/>
  <path d="M 470,410 Q 500,395 530,392 Q 560,395 590,410" fill="#ffffff" opacity="0.95"/>

  <!-- Scheunentor -->
  <rect x="505" y="455" width="50" height="55" fill="#4a3020"/>
  <line x1="510" y1="455" x2="510" y2="510" stroke="#3a2010" stroke-width="2.5"/>
  <line x1="523" y1="455" x2="523" y2="510" stroke="#3a2010" stroke-width="2.5"/>
  <line x1="536" y1="455" x2="536" y2="510" stroke="#3a2010" stroke-width="2.5"/>
  <line x1="549" y1="455" x2="549" y2="510" stroke="#3a2010" stroke-width="2.5"/>

  <!-- Kleines Fenster Scheune -->
  <rect x="492" y="430" width="20" height="18" fill="#3a4a5a"/>

  <!-- Verschneite Tannen links -->
  <g>
    <polygon points="110,490 75,560 145,560" fill="#1a3a1a"/>
    <polygon points="110,510 85,560 135,560" fill="#2a4a2a"/>
    <polygon points="110,525 92,560 128,560" fill="#2a5a2a"/>
    <rect x="105" y="560" width="10" height="45" fill="#4a3520"/>
    <ellipse cx="110" cy="495" rx="30" ry="10" fill="#ffffff" opacity="0.9"/>
    <ellipse cx="110" cy="515" rx="26" ry="9" fill="#ffffff" opacity="0.9"/>
    <ellipse cx="110" cy="530" rx="22" ry="8" fill="#ffffff" opacity="0.9"/>
  </g>

  <!-- Verschneite Tannen rechts vorne -->
  <g>
    <polygon points="520,520 490,590 550,590" fill="#1a3a1a"/>
    <polygon points="520,540 500,590 540,590" fill="#2a4a2a"/>
    <rect x="515" y="590" width="10" height="40" fill="#4a3520"/>
    <ellipse cx="520" cy="525" rx="26" ry="9" fill="#ffffff" opacity="0.9"/>
    <ellipse cx="520" cy="545" rx="22" ry="8" fill="#ffffff" opacity="0.9"/>
  </g>

  <!-- Holzzaun vorne -->
  <g>
    <rect x="160" y="650" width="6" height="55" fill="#6a4a30"/>
    <rect x="185" y="650" width="6" height="55" fill="#6a4a30"/>
    <rect x="210" y="650" width="6" height="55" fill="#6a4a30"/>
    <rect x="235" y="650" width="6" height="55" fill="#6a4a30"/>
    <rect x="260" y="650" width="6" height="55" fill="#6a4a30"/>
    <rect x="155" y="670" width="115" height="5" fill="#6a4a30"/>
    <rect x="155" y="690" width="115" height="5" fill="#6a4a30"/>
    <rect x="158" y="648" width="4" height="5" fill="#ffffff"/>
    <rect x="183" y="648" width="4" height="5" fill="#ffffff"/>
    <rect x="208" y="648" width="4" height="5" fill="#ffffff"/>
    <rect x="233" y="648" width="4" height="5" fill="#ffffff"/>
    <rect x="258" y="648" width="4" height="5" fill="#ffffff"/>
  </g>

  <!-- Schneemann (detailliert) -->
  <g>
    <circle cx="410" cy="680" r="32" fill="#ffffff"/>
    <circle cx="410" cy="640" r="25" fill="#ffffff"/>
    <circle cx="410" cy="610" r="19" fill="#ffffff"/>

    <!-- Gesicht -->
    <circle cx="402" cy="606" r="3" fill="#000000"/>
    <circle cx="418" cy="606" r="3" fill="#000000"/>
    <polygon points="410,610 405,612 410,614" fill="#ff6600"/>

    <!-- Mund -->
    <circle cx="404" cy="617" r="1.5" fill="#000000"/>
    <circle cx="410" cy="618" r="1.5" fill="#000000"/>
    <circle cx="416" cy="617" r="1.5" fill="#000000"/>

    <!-- Knöpfe -->
    <circle cx="410" cy="633" r="2.5" fill="#000000"/>
    <circle cx="410" cy="645" r="2.5" fill="#000000"/>
    <circle cx="410" cy="665" r="3" fill="#000000"/>
    <circle cx="410" cy="678" r="3" fill="#000000"/>

    <!-- Arme -->
    <line x1="392" y1="640" x2="370" y2="628" stroke="#4a3020" stroke-width="4"/>
    <line x1="428" y1="640" x2="450" y2="628" stroke="#4a3020" stroke-width="4"/>

    <!-- Hut -->
    <rect x="401" cy="592" width="18" height="8" fill="#000000"/>
    <rect x="396" cy="586" width="28" height="6" fill="#000000"/>

    <!-- Schal -->
    <ellipse cx="410" cy="623" rx="22" ry="7" fill="#cc3333"/>
    <rect x="388" cy="620" width="8" height="18" fill="#cc3333"/>
  </g>

  <!-- Laternenweg -->
  <g>
    <rect x="348" y="590" width="5" height="55" fill="#3a2a1a"/>
    <rect x="346" y="588" width="9" height="5" fill="#3a2a1a"/>
    <rect x="342" y="576" width="17" height="14" fill="#1a1a1a" opacity="0.8"/>
    <rect x="344" y="578" width="13" height="10" fill="#ffd700" opacity="0.9"/>
    <ellipse cx="350.5" cy="583" rx="24" ry="18" fill="#ffeb99" opacity="0.3"/>
  </g>

  <!-- Schneeflocken fallen -->
  <g opacity="0.9">
    <g transform="translate(130, 250)">
      <circle cx="0" cy="0" r="4" fill="#ffffff"/>
      <line x1="-6" y1="0" x2="6" y2="0" stroke="#ffffff" stroke-width="1"/>
      <line x1="0" y1="-6" x2="0" y2="6" stroke="#ffffff" stroke-width="1"/>
      <line x1="-4" y1="-4" x2="4" y2="4" stroke="#ffffff" stroke-width="0.6"/>
      <line x1="4" y1="-4" x2="-4" y2="4" stroke="#ffffff" stroke-width="0.6"/>
    </g>

    <g transform="translate(420, 320)">
      <circle cx="0" cy="0" r="4" fill="#ffffff"/>
      <line x1="-6" y1="0" x2="6" y2="0" stroke="#ffffff" stroke-width="1"/>
      <line x1="0" y1="-6" x2="0" y2="6" stroke="#ffffff" stroke-width="1"/>
      <line x1="-4" y1="-4" x2="4" y2="4" stroke="#ffffff" stroke-width="0.6"/>
      <line x1="4" y1="-4" x2="-4" y2="4" stroke="#ffffff" stroke-width="0.6"/>
    </g>

    <circle cx="280" cy="380" r="3.5" fill="#ffffff"/>
    <circle cx="520" cy="420" r="3" fill="#ffffff"/>
    <circle cx="190" cy="510" r="3.5" fill="#ffffff"/>
    <circle cx="550" cy="480" r="3" fill="#ffffff"/>
    <circle cx="100" cy="450" r="3.2" fill="#ffffff"/>
    <circle cx="360" cy="540" r="3" fill="#ffffff"/>
  </g>

  <!-- Fußspuren im Schnee -->
  <g opacity="0.35">
    <ellipse cx="250" cy="705" rx="8" ry="13" fill="#c8d8e8" transform="rotate(-15 250 705)"/>
    <ellipse cx="270" cy="710" rx="8" ry="13" fill="#c8d8e8" transform="rotate(12 270 710)"/>
    <ellipse cx="290" cy="715" rx="8" ry="13" fill="#c8d8e8" transform="rotate(-15 290 715)"/>
    <ellipse cx="310" cy="720" rx="8" ry="13" fill="#c8d8e8" transform="rotate(12 310 720)"/>
  </g>

  <!-- Vögel am Himmel -->
  <path d="M 60 230 Q 75 225 90 230" stroke="#2a2a2a" stroke-width="2" fill="none"/>
  <path d="M 110 255 Q 125 250 140 255" stroke="#2a2a2a" stroke-width="2" fill="none"/>
  <path d="M 85 245 Q 100 240 115 245" stroke="#2a2a2a" stroke-width="2" fill="none"/>

  <!-- Emoji-Dekoration: Winter-Theme -->
  <!-- Schneeflocken ❄️ -->
  <text x="60" y="410" font-size="28" opacity="0.8">❄️</text>
  <text x="540" y="640" font-size="24" opacity="0.7">❄️</text>
  <text x="480" y="330" font-size="22" opacity="0.6">❄️</text>
  <text x="150" y="680" font-size="26" opacity="0.75">❄️</text>
  <text x="560" y="400" font-size="24" opacity="0.65">❄️</text>

  <!-- Funkelnde Sterne ✨ -->
  <text x="320" y="130" font-size="24" opacity="0.85">✨</text>
  <text x="510" y="175" font-size="22" opacity="0.75">✨</text>
  <text x="170" y="125" font-size="20" opacity="0.7">✨</text>

  <!-- Mond 🌙 -->
  <text x="445" y="115" font-size="32" opacity="0.4">🌙</text>

  <!-- Schneemann ⛄ -->
  <text x="350" y="625" font-size="22" opacity="0.3">⛄</text>
</svg>
