<svg xmlns="http://www.w3.org/2000/svg" viewBox="0 0 600 800" role="img" aria-label="Juni - Sommerbeginn Portrait">
  <defs>
    <linearGradient id="junePortraitSky" x1="0%" y1="0%" x2="0%" y2="100%">
      <stop offset="0%" style="stop-color:#38bdf8;stop-opacity:1" />
      <stop offset="50%" style="stop-color:#0ea5e9;stop-opacity:1" />
      <stop offset="100%" style="stop-color:#0284c7;stop-opacity:1" />
    </linearGradient>
  </defs>

  <rect width="600" height="800" fill="url(#junePortraitSky)"/>

  <!-- Sonne -->
  <circle cx="480" cy="95" r="70" fill="#fef08a" opacity="0.6"/>
  <circle cx="480" cy="95" r="56" fill="#fde047"/>

  <!-- Hügel -->
  <ellipse cx="300" cy="530" rx="400" ry="75" fill="#22c55e"/>
  <ellipse cx="150" cy="550" rx="220" ry="58" fill="#16a34a"/>

  <!-- See -->
  <ellipse cx="300" cy="620" rx="380" ry="90" fill="#3b82f6" opacity="0.7"/>
  <rect x="0" y="600" width="600" height="120" fill="#3b82f6" opacity="0.7"/>
  <ellipse cx="200" cy="630" rx="150" ry="25" fill="#60a5fa" opacity="0.5"/>
  <ellipse cx="420" cy="640" rx="140" ry="22" fill="#60a5fa" opacity="0.5"/>

  <!-- Ufergras -->
  <rect x="0" y="680" width="600" height="120" fill="#16a34a"/>

  <!-- Bauernhaus am Ufer -->
  <rect x="420" y="470" width="140" height="130" fill="#c85542"/>
  <polygon points="490,415 405,470 575,470" fill="#8b5433"/>
  <path d="M 405,470 Q 455,452 490,449 Q 525,452 575,470" fill="#ffffff" opacity="0.3"/>
  <rect x="445" y="490" width="30" height="36" fill="#ffd98e"/>
  <rect x="459" y="490" width="2" height="36" fill="#6b4423"/>
  <rect x="445" y="507" width="30" height="2" fill="#6b4423"/>
  <rect x="495" y="490" width="30" height="36" fill="#ffd98e"/>
  <rect x="509" y="490" width="2" height="36" fill="#6b4423"/>
  <rect x="495" y="507" width="30" height="2" fill="#6b4423"/>
  <rect x="469" y="550" width="32" height="50" fill="#6a4a30"/>

  <!-- Steg -->
  <rect x="230" y="655" width="140" height="12" fill="#78350f"/>
  <rect x="235" y="625" width="8" height="45" fill="#6a4a30"/>
  <rect x="287" y="625" width="8" height="45" fill="#6a4a30"/>
  <rect x="339" y="625" width="8" height="45" fill="#6a4a30"/>
  <rect x="357" y="625" width="8" height="45" fill="#6a4a30"/>

  <!-- Boot am Steg -->
  <ellipse cx="320" cy="685" rx="45" ry="18" fill="#dc2626"/>
  <path d="M 275 685 Q 320 675 365 685" stroke="#b91c1c" stroke-width="3" fill="none"/>
  <rect x="315" y="670" width="4" height="18" fill="#78350f"/>

  <!-- Baum am Ufer -->
  <rect x="100" y="530" width="35" height="170" fill="#78350f"/>
  <circle cx="117" cy="500" r="85" fill="#22c55e" opacity="0.9"/>
  <circle cx="82" cy="470" r="68" fill="#4ade80" opacity="0.9"/>
  <circle cx="152" cy="475" r="72" fill="#22c55e" opacity="0.9"/>

  <!-- Blumen am Ufer -->
  <g>
    <ellipse cx="185" cy="705" rx="7" ry="12" fill="#fbbf24"/>
    <line x1="185" y1="717" x2="185" y2="738" stroke="#15803d" stroke-width="2.5"/>
    <ellipse cx="210" cy="710" rx="7" ry="12" fill="#fde047"/>
    <line x1="210" y1="722" x2="210" y2="743" stroke="#15803d" stroke-width="2.5"/>
  </g>

  <!-- Schmetterling -->
  <g transform="translate(260, 560)">
    <ellipse cx="-5" cy="0" rx="8" ry="12" fill="#fbbf24" transform="rotate(-22 -5 0)"/>
    <ellipse cx="5" cy="0" rx="8" ry="12" fill="#fbbf24" transform="rotate(22 5 0)"/>
    <ellipse cx="-5" cy="10" rx="6" ry="10" fill="#fb923c" transform="rotate(-18 -5 10)"/>
    <ellipse cx="5" cy="10" rx="6" ry="10" fill="#fb923c" transform="rotate(18 5 10)"/>
    <line x1="0" y1="-5" x2="0" y2="16" stroke="#000000" stroke-width="1.5"/>
  </g>

  <!-- Vögel am Himmel -->
  <path d="M 150 180 Q 165 175 180 180" stroke="#4a5a6a" stroke-width="2.5" fill="none"/>
  <path d="M 200 210 Q 215 205 230 210" stroke="#4a5a6a" stroke-width="2.5" fill="none"/>

  <!-- Emoji-Dekoration -->
  <text x="440" y="105" font-size="38" opacity="0.6">☀️</text>
  <text x="190" y="150" font-size="30" opacity="0.7">☁️</text>
  <text x="75" y="555" font-size="34" opacity="0.5">🌳</text>
  <text x="190" y="730" font-size="26" opacity="0.8">🌼</text>
  <text x="340" y="725" font-size="26" opacity="0.8">🌸</text>
  <text x="230" y="575" font-size="26" opacity="0.75">🦋</text>
  <text x="135" y="195" font-size="20" opacity="0.6">🐦</text>
  <text x="280" y="655" font-size="30" opacity="0.75">🦆</text>
</svg>
