<svg xmlns="http://www.w3.org/2000/svg" viewBox="0 0 600 800" role="img" aria-label="März - Frühlingserwachen Portrait">
  <defs>
    <linearGradient id="marchPortraitSky" x1="0%" y1="0%" x2="0%" y2="100%">
      <stop offset="0%" style="stop-color:#bae6fd;stop-opacity:1" />
      <stop offset="50%" style="stop-color:#7dd3fc;stop-opacity:1" />
      <stop offset="100%" style="stop-color:#38bdf8;stop-opacity:1" />
    </linearGradient>
  </defs>

  <!-- Frühlingshimmel -->
  <rect width="600" height="800" fill="url(#marchPortraitSky)"/>

  <!-- Sonne -->
  <circle cx="480" cy="120" r="75" fill="#fef08a" opacity="0.5"/>
  <circle cx="480" cy="120" r="60" fill="#fde047" opacity="0.7"/>
  <circle cx="480" cy="120" r="48" fill="#fef08a"/>

  <!-- Wiese (beginnend grün) -->
  <ellipse cx="300" cy="720" rx="450" ry="100" fill="#86efac"/>
  <rect x="0" y="650" width="600" height="150" fill="#86efac"/>
  <ellipse cx="200" cy="680" rx="200" ry="40" fill="#6ee7b7" opacity="0.8"/>
  <ellipse cx="400" cy="690" rx="180" ry="38" fill="#6ee7b7" opacity="0.8"/>

  <!-- Hügel im Hintergrund -->
  <ellipse cx="300" cy="550" rx="380" ry="85" fill="#d1fae5"/>
  <ellipse cx="150" cy="570" rx="220" ry="65" fill="#a7f3d0"/>

  <!-- Bauernhaus -->
  <rect x="220" y="400" width="160" height="140" fill="#c85542"/>
  <polygon points="300,330 200,400 400,400" fill="#8b5433"/>
  <path d="M 200,400 Q 260,380 300,375 Q 340,380 400,400" fill="#ffffff" opacity="0.3"/>

  <!-- Fenster -->
  <rect x="245" y="425" width="32" height="38" fill="#ffd98e"/>
  <rect x="260" y="425" width="2" height="38" fill="#6b4423"/>
  <rect x="245" y="443" width="32" height="2" fill="#6b4423"/>
  <rect x="303" y="425" width="32" height="38" fill="#ffd98e"/>
  <rect x="318" y="425" width="2" height="38" fill="#6b4423"/>
  <rect x="303" y="443" width="32" height="2" fill="#6b4423"/>

  <!-- Tür -->
  <rect x="280" y="495" width="40" height="45" fill="#6a4a30"/>
  <circle cx="312" cy="518" r="2.5" fill="#d4a020"/>

  <!-- Schornstein -->
  <rect x="340" y="345" width="18" height="55" fill="#a85543"/>
  <ellipse cx="349" cy="335" rx="9" ry="12" fill="#d8d8d8" opacity="0.6"/>
  <ellipse cx="352" cy="320" rx="11" ry="15" fill="#d8d8d8" opacity="0.4"/>

  <!-- Frühlingsblumen (Tulpen, Narzissen) -->
  <g>
    <!-- Tulpen rot -->
    <ellipse cx="120" cy="680" rx="8" ry="15" fill="#ef4444"/>
    <line x1="120" y1="695" x2="120" y2="720" stroke="#15803d" stroke-width="3"/>
    <ellipse cx="145" cy="685" rx="8" ry="15" fill="#dc2626"/>
    <line x1="145" y1="700" x2="145" y2="725" stroke="#15803d" stroke-width="3"/>
    <ellipse cx="165" cy="678" rx="8" ry="15" fill="#ef4444"/>
    <line x1="165" y1="693" x2="165" y2="718" stroke="#15803d" stroke-width="3"/>

    <!-- Narzissen gelb -->
    <circle cx="450" cy="690" r="10" fill="#fde047"/>
    <circle cx="450" cy="690" r="5" fill="#fb923c"/>
    <line x1="450" y1="700" x2="450" y2="730" stroke="#15803d" stroke-width="3"/>
    <circle cx="480" cy="695" r="10" fill="#fde047"/>
    <circle cx="480" cy="695" r="5" fill="#fb923c"/>
    <line x1="480" y1="705" x2="480" y2="735" stroke="#15803d" stroke-width="3"/>
    <circle cx="510" cy="688" r="10" fill="#fde047"/>
    <circle cx="510" cy="688" r="5" fill="#fb923c"/>
    <line x1="510" y1="698" x2="510" y2="728" stroke="#15803d" stroke-width="3"/>

    <!-- Krokusse violett -->
    <ellipse cx="80" cy="710" rx="6" ry="10" fill="#a855f7"/>
    <line x1="80" y1="720" x2="80" y2="740" stroke="#15803d" stroke-width="2"/>
    <ellipse cx="95" cy="715" rx="6" ry="10" fill="#9333ea"/>
    <line x1="95" y1="725" x2="95" y2="745" stroke="#15803d" stroke-width="2"/>
    <ellipse cx="110" cy="708" rx="6" ry="10" fill="#a855f7"/>
    <line x1="110" y1="718" x2="110" y2="738" stroke="#15803d" stroke-width="2"/>
  </g>

  <!-- Baum mit Knospen -->
  <rect x="500" y="450" width="35" height="250" fill="#78350f"/>
  <circle cx="517" cy="420" r="90" fill="#86efac" opacity="0.7"/>
  <circle cx="480" cy="390" r="70" fill="#6ee7b7" opacity="0.7"/>
  <circle cx="554" cy="395" r="75" fill="#86efac" opacity="0.7"/>
  <!-- Rosa Blüten -->
  <circle cx="495" cy="405" r="8" fill="#fbcfe8"/>
  <circle cx="520" cy="415" r="8" fill="#f9a8d4"/>
  <circle cx="540" cy="410" r="8" fill="#fbcfe8"/>
  <circle cx="510" cy="435" r="8" fill="#f9a8d4"/>

  <!-- Schmetterling -->
  <g transform="translate(280, 350)">
    <ellipse cx="-5" cy="0" rx="8" ry="12" fill="#fde047" transform="rotate(-20 -5 0)"/>
    <ellipse cx="5" cy="0" rx="8" ry="12" fill="#fde047" transform="rotate(20 5 0)"/>
    <ellipse cx="-5" cy="10" rx="6" ry="10" fill="#fb923c" transform="rotate(-15 -5 10)"/>
    <ellipse cx="5" cy="10" rx="6" ry="10" fill="#fb923c" transform="rotate(15 5 10)"/>
    <line x1="0" y1="-5" x2="0" y2="15" stroke="#000000" stroke-width="1.5"/>
  </g>

  <!-- Vogel -->
  <path d="M 120 250 Q 135 245 150 250" stroke="#4a5a6a" stroke-width="2" fill="none"/>
  <path d="M 160 270 Q 175 265 190 270" stroke="#4a5a6a" stroke-width="2" fill="none"/>

  <!-- Emoji-Dekoration: Frühling -->
  <text x="445" y="125" font-size="36" opacity="0.5">☀️</text>
  <text x="95" y="705" font-size="30" opacity="0.8">🌷</text>
  <text x="130" y="700" font-size="28" opacity="0.8">🌷</text>
  <text x="460" y="715" font-size="30" opacity="0.8">🌼</text>
  <text x="490" y="720" font-size="28" opacity="0.8">🌼</text>
  <text x="70" y="730" font-size="24" opacity="0.75">🌸</text>
  <text x="220" y="700" font-size="30" opacity="0.85">🌺</text>
  <text x="250" y="365" font-size="26" opacity="0.75">🦋</text>
  <text x="100" y="265" font-size="20" opacity="0.6">🐦</text>
  <text x="350" y="680" font-size="22" opacity="0.75">🐝</text>
  <text x="510" y="560" font-size="24" opacity="0.6">🍃</text>
</svg>
