<svg xmlns="http://www.w3.org/2000/svg" viewBox="0 0 600 800" role="img" aria-label="Oktober - Goldener Oktober Portrait">
  <defs>
    <linearGradient id="octoberPortraitSky" x1="0%" y1="0%" x2="0%" y2="100%">
      <stop offset="0%" style="stop-color:#fef3c7;stop-opacity:1" />
      <stop offset="40%" style="stop-color:#fde68a;stop-opacity:1" />
      <stop offset="100%" style="stop-color:#fbbf24;stop-opacity:1" />
    </linearGradient>
    <radialGradient id="sunGlowOct" cx="50%" cy="50%" r="50%">
      <stop offset="0%" style="stop-color:#fef08a;stop-opacity:1" />
      <stop offset="100%" style="stop-color:#fde047;stop-opacity:0.4" />
    </radialGradient>
  </defs>

  <!-- Goldener Himmel -->
  <rect width="600" height="800" fill="url(#octoberPortraitSky)"/>

  <!-- Sonne (warm und tief stehend) -->
  <circle cx="480" cy="130" r="95" fill="url(#sunGlowOct)" opacity="0.4"/>
  <circle cx="480" cy="130" r="75" fill="#fde047" opacity="0.6"/>
  <circle cx="480" cy="130" r="58" fill="#fef08a"/>

  <!-- Sonnenstrahlen -->
  <line x1="480" y1="40" x2="480" y2="10" stroke="#fbbf24" stroke-width="7" opacity="0.6"/>
  <line x1="575" y1="130" x2="605" y2="130" stroke="#fbbf24" stroke-width="7" opacity="0.6"/>
  <line x1="550" y1="68" x2="572" y2="46" stroke="#fbbf24" stroke-width="6" opacity="0.6"/>
  <line x1="550" y1="192" x2="572" y2="214" stroke="#fbbf24" stroke-width="6" opacity="0.6"/>
  <line x1="410" y1="68" x2="388" y2="46" stroke="#fbbf24" stroke-width="6" opacity="0.6"/>
  <line x1="410" y1="192" x2="388" y2="214" stroke="#fbbf24" stroke-width="6" opacity="0.6"/>

  <!-- Hügel im Hintergrund (herbstlich) -->
  <ellipse cx="300" cy="550" rx="400" ry="90" fill="#a16207" opacity="0.5"/>
  <ellipse cx="150" cy="570" rx="250" ry="75" fill="#92400e" opacity="0.5"/>
  <ellipse cx="450" cy="560" rx="280" ry="80" fill="#b8860b" opacity="0.5"/>

  <!-- Weinberg-Hügel (Vordergrund) -->
  <rect y="540" width="600" height="260" fill="#854d0e"/>
  <rect y="570" width="600" height="230" fill="#713f12" opacity="0.5"/>

  <!-- Großer goldener Baum links -->
  <rect x="60" y="380" width="65" height="280" fill="#78350f"/>
  <rect x="62" y="382" width="61" height="276" fill="#92400e"/>

  <!-- Baumkrone (golden) -->
  <circle cx="92.5" cy="345" r="125" fill="#fbbf24" opacity="0.9"/>
  <circle cx="40" cy="300" r="95" fill="#fde047" opacity="0.9"/>
  <circle cx="145" cy="295" r="100" fill="#f59e0b" opacity="0.9"/>
  <circle cx="30" cy="375" r="85" fill="#fbbf24" opacity="0.85"/>
  <circle cx="155" cy="370" r="90" fill="#fb923c" opacity="0.85"/>
  <circle cx="92.5" cy="415" r="80" fill="#fde047" opacity="0.8"/>

  <!-- Blätter-Details (golden) -->
  <circle cx="55" cy="320" r="14" fill="#fef08a"/>
  <circle cx="100" cy="310" r="16" fill="#fde047"/>
  <circle cx="130" cy="345" r="13" fill="#fb923c"/>
  <circle cx="70" cy="385" r="15" fill="#fbbf24"/>
  <circle cx="120" cy="395" r="12" fill="#f59e0b"/>

  <!-- Mittlerer Baum rechts (orange/rot) -->
  <rect x="480" y="420" width="55" height="260" fill="#78350f"/>
  <rect x="482" y="422" width="51" height="256" fill="#92400e"/>

  <!-- Baumkrone -->
  <circle cx="507.5" cy="390" r="100" fill="#fb923c" opacity="0.9"/>
  <circle cx="470" cy="355" r="80" fill="#f97316" opacity="0.9"/>
  <circle cx="545" cy="350" r="85" fill="#ea580c" opacity="0.9"/>
  <circle cx="465" cy="410" r="70" fill="#fb923c" opacity="0.85"/>
  <circle cx="550" cy="405" r="75" fill="#dc2626" opacity="0.85"/>

  <!-- Blätter-Details -->
  <circle cx="485" cy="370" r="12" fill="#f97316"/>
  <circle cx="510" cy="365" r="13" fill="#ea580c"/>
  <circle cx="530" cy="385" r="11" fill="#dc2626"/>

  <!-- Weinlese-Szene: Weinbauer mit Korb -->
  <g transform="translate(320, 640)">
    <!-- Korb mit Trauben -->
    <ellipse cx="0" cy="25" rx="30" ry="22" fill="#78350f"/>
    <rect x="-30" y="12" width="60" height="30" fill="#92400e"/>
    <path d="M -30 12 L -24 0 L 24 0 L 30 12" fill="#a16207"/>

    <!-- Trauben im Korb -->
    <circle cx="-10" cy="5" r="6" fill="#7c3aed"/>
    <circle cx="0" cy="3" r="6" fill="#6d28d9"/>
    <circle cx="10" cy="5" r="6" fill="#7c3aed"/>
    <circle cx="-15" cy="12" r="6" fill="#6d28d9"/>
    <circle cx="-5" cy="13" r="6" fill="#7c3aed"/>
    <circle cx="5" cy="13" r="6" fill="#6d28d9"/>
    <circle cx="15" cy="12" r="6" fill="#7c3aed"/>

    <!-- Person (vereinfacht) -->
    <circle cx="-60" cy="-25" r="14" fill="#fef3c7"/>
    <rect x="-72" y="-10" width="24" height="42" fill="#dc2626"/>
    <line x1="-60" y1="0" x2="-36" y2="18" stroke="#fef3c7" stroke-width="6"/>
    <line x1="-60" y1="0" x2="-78" y2="12" stroke="#fef3c7" stroke-width="6"/>
    <line x1="-60" y1="32" x2="-72" y2="54" stroke="#1e3a8a" stroke-width="7"/>
    <line x1="-60" y1="32" x2="-48" y2="54" stroke="#1e3a8a" stroke-width="7"/>

    <!-- Hut -->
    <ellipse cx="-60" cy="-30" rx="16" ry="6" fill="#78350f"/>
    <rect x="-67" y="-42" width="14" height="14" fill="#92400e"/>
  </g>

  <!-- Weinreben im Vordergrund -->
  <g>
    <line x1="80" y1="610" x2="520" y2="610" stroke="#422006" stroke-width="5"/>
    <rect x="80" y="590" width="12" height="50" fill="#422006"/>
    <rect x="200" y="590" width="12" height="50" fill="#422006"/>
    <rect x="320" y="590" width="12" height="50" fill="#422006"/>
    <rect x="440" y="590" width="12" height="50" fill="#422006"/>
    <rect x="520" y="590" width="12" height="50" fill="#422006"/>

    <!-- Weinblätter (groß, vorne) -->
    <circle cx="86" cy="578" r="18" fill="#d97706" opacity="0.9"/>
    <circle cx="96" cy="582" r="16" fill="#ea580c" opacity="0.9"/>
    <circle cx="82" cy="588" r="14" fill="#ca8a04" opacity="0.9"/>

    <circle cx="206" cy="578" r="18" fill="#ca8a04" opacity="0.9"/>
    <circle cx="216" cy="582" r="16" fill="#d97706" opacity="0.9"/>
    <circle cx="202" cy="588" r="14" fill="#a16207" opacity="0.9"/>

    <circle cx="326" cy="578" r="18" fill="#ea580c" opacity="0.9"/>
    <circle cx="336" cy="582" r="16" fill="#dc2626" opacity="0.9"/>
    <circle cx="322" cy="588" r="14" fill="#d97706" opacity="0.9"/>
  </g>

  <!-- Weintrauben an Reben (Details) -->
  <g>
    <circle cx="200" cy="605" r="7" fill="#7c3aed" opacity="0.9"/>
    <circle cx="209" cy="607" r="7" fill="#6d28d9" opacity="0.9"/>
    <circle cx="205" cy="613" r="7" fill="#7c3aed" opacity="0.9"/>
    <circle cx="196" cy="610" r="6" fill="#6d28d9" opacity="0.9"/>
    <circle cx="213" cy="613" r="6" fill="#7c3aed" opacity="0.9"/>
  </g>

  <g>
    <circle cx="440" cy="603" r="7" fill="#6d28d9" opacity="0.9"/>
    <circle cx="449" cy="605" r="7" fill="#7c3aed" opacity="0.9"/>
    <circle cx="445" cy="611" r="7" fill="#6d28d9" opacity="0.9"/>
    <circle cx="436" cy="608" r="6" fill="#7c3aed" opacity="0.9"/>
    <circle cx="453" cy="611" r="6" fill="#6d28d9" opacity="0.9"/>
  </g>

  <!-- Herbstblätter in der Luft (fallend) -->
  <g>
    <!-- Blatt 1 -->
    <ellipse cx="180" cy="180" rx="15" ry="21" fill="#fbbf24" transform="rotate(25 180 180)"/>
    <line x1="180" y1="180" x2="186" y2="195" stroke="#f59e0b" stroke-width="2.5"/>

    <!-- Blatt 2 -->
    <ellipse cx="350" cy="240" rx="14" ry="20" fill="#fb923c" transform="rotate(-20 350 240)"/>
    <line x1="350" y1="240" x2="356" y2="254" stroke="#f97316" stroke-width="2.2"/>

    <!-- Blatt 3 -->
    <ellipse cx="260" cy="320" rx="16" ry="22" fill="#f59e0b" transform="rotate(35 260 320)"/>
    <line x1="260" y1="320" x2="254" y2="336" stroke="#d97706" stroke-width="2.5"/>

    <!-- Blatt 4 -->
    <ellipse cx="480" cy="260" rx="15" ry="21" fill="#ea580c" transform="rotate(-15 480 260)"/>
    <line x1="480" y1="260" x2="486" y2="275" stroke="#c2410c" stroke-width="2.2"/>

    <!-- Blatt 5 -->
    <ellipse cx="140" cy="380" rx="14" ry="20" fill="#fde047" transform="rotate(40 140 380)"/>
    <line x1="140" y1="380" x2="134" y2="394" stroke="#fbbf24" stroke-width="2.2"/>

    <!-- Blatt 6 -->
    <ellipse cx="520" cy="320" rx="15" ry="21" fill="#dc2626" transform="rotate(-25 520 320)"/>
    <line x1="520" y1="320" x2="526" y2="335" stroke="#b91c1c" stroke-width="2.5"/>

    <!-- Blatt 7 -->
    <ellipse cx="220" cy="450" rx="13" ry="19" fill="#fb923c" transform="rotate(15 220 450)"/>
    <line x1="220" y1="450" x2="226" y2="463" stroke="#f97316" stroke-width="2"/>

    <!-- Blatt 8 -->
    <ellipse cx="420" cy="420" rx="14" ry="20" fill="#fbbf24" transform="rotate(-30 420 420)"/>
    <line x1="420" y1="420" x2="426" y2="434" stroke="#f59e0b" stroke-width="2.2"/>
  </g>

  <!-- Vögel (ziehend) -->
  <path d="M 200 140 Q 218 135 236 140" stroke="#78350f" stroke-width="3" fill="none"/>
  <path d="M 220 165 Q 238 160 256 165" stroke="#78350f" stroke-width="3" fill="none"/>
  <path d="M 240 115 Q 258 110 276 115" stroke="#78350f" stroke-width="3" fill="none"/>

  <!-- Lichtstrahlen (golden hour) -->
  <path d="M 470 170 L 240 620" stroke="#fef08a" stroke-width="4" opacity="0.15"/>
  <path d="M 490 190 L 280 640" stroke="#fef08a" stroke-width="5" opacity="0.15"/>
  <path d="M 450 210 L 220 660" stroke="#fef08a" stroke-width="4" opacity="0.15"/>
  <path d="M 510 150 L 320 600" stroke="#fef08a" stroke-width="4" opacity="0.15"/>

  <!-- Emoji-Dekoration: Goldener Oktober / Weinlese -->
  <!-- Weintrauben 🍇 -->
  <text x="175" y="625" font-size="28" opacity="0.85">🍇</text>
  <text x="415" y="630" font-size="28" opacity="0.85">🍇</text>
  <text x="295" y="620" font-size="24" opacity="0.75">🍇</text>

  <!-- Herbstblätter 🍂🍁 (fallend) -->
  <text x="155" y="190" font-size="28" opacity="0.85">🍁</text>
  <text x="325" y="250" font-size="26" opacity="0.8">🍂</text>
  <text x="235" y="330" font-size="30" opacity="0.85">🍁</text>
  <text x="455" y="270" font-size="28" opacity="0.8">🍂</text>
  <text x="115" y="390" font-size="24" opacity="0.75">🍁</text>
  <text x="495" y="330" font-size="28" opacity="0.8">🍂</text>
  <text x="195" y="460" font-size="26" opacity="0.75">🍁</text>
  <text x="395" y="430" font-size="24" opacity="0.7">🍂</text>

  <!-- Goldene Bäume 🌳 -->
  <text x="50" y="375" font-size="35" opacity="0.35">🌳</text>
  <text x="460" y="425" font-size="32" opacity="0.35">🌳</text>

  <!-- Sonne 🌤️ -->
  <text x="440" y="135" font-size="42" opacity="0.4">🌤️</text>

  <!-- Vögel 🐦 (ziehend) -->
  <text x="190" y="150" font-size="18" opacity="0.5">🐦</text>
  <text x="240" y="175" font-size="16" opacity="0.5">🐦</text>
  <text x="260" y="125" font-size="16" opacity="0.5">🐦</text>
</svg>
